<svg width="106" height="60" viewBox="0 0 106 60" fill="none" xmlns="http://www.w3.org/2000/svg">
<mask id="path-1-inside-1_1_757" fill="white">
<path fill-rule="evenodd" clip-rule="evenodd" d="M38 7L45.0078 13.6341L32 13.6265V45.8137H66V33.507L73 40.1338V7H38ZM65.6924 32.7283L45.8226 13.918H65.6924V32.7283ZM59.5231 41.1055H37.3801V19.4579H38.9453V39.6397H59.5231V41.1055ZM42.6089 50.0991L41.791 51.7837L40.9731 50.0991H40.2871L41.481 52.3452V53.6538H42.1011V52.3452L43.2925 50.0991H42.6089ZM43.6367 53.6538L43.9248 52.8262H45.3018L45.5923 53.6538H46.2368L44.8916 50.0991H44.3374L42.9946 53.6538H43.6367ZM44.6133 50.8535L45.1284 52.3281H44.0981L44.6133 50.8535ZM47.8701 52.2427C47.7806 52.3794 47.7358 52.5299 47.7358 52.6943C47.7358 52.9938 47.8408 53.2371 48.0508 53.4243C48.2624 53.6099 48.5439 53.7026 48.8955 53.7026C49.2471 53.7026 49.5498 53.6074 49.8037 53.417L50.0039 53.6538H50.6924L50.1699 53.0361C50.375 52.7562 50.4775 52.3973 50.4775 51.9595H49.9624C49.9624 52.1987 49.9128 52.416 49.8135 52.6113L49.1274 51.8008L49.3691 51.625C49.54 51.5013 49.6629 51.3776 49.7378 51.2539C49.8127 51.1286 49.8501 50.9919 49.8501 50.8438C49.8501 50.6191 49.7671 50.4312 49.6011 50.2798C49.4367 50.1268 49.2251 50.0503 48.9663 50.0503C48.6798 50.0503 48.452 50.1317 48.2827 50.2944C48.1134 50.4556 48.0288 50.6753 48.0288 50.9536C48.0288 51.0675 48.0557 51.1855 48.1094 51.3076C48.1647 51.4297 48.2616 51.5778 48.3999 51.752C48.1362 51.9408 47.9596 52.1043 47.8701 52.2427ZM49.4741 53.0288C49.3 53.1623 49.1128 53.229 48.9126 53.229C48.7352 53.229 48.5936 53.1777 48.4878 53.0752C48.382 52.9727 48.3291 52.8392 48.3291 52.6748C48.3291 52.4844 48.4268 52.3151 48.6221 52.167L48.6978 52.1133L49.4741 53.0288ZM48.8369 51.4541C48.6693 51.2474 48.5854 51.0757 48.5854 50.939C48.5854 50.8201 48.6196 50.7217 48.688 50.6436C48.7563 50.5654 48.8483 50.5264 48.9639 50.5264C49.0713 50.5264 49.16 50.5597 49.23 50.6265C49.3 50.6916 49.335 50.7705 49.335 50.8633C49.335 51.0033 49.2845 51.118 49.1836 51.2075L49.1079 51.2686L48.8369 51.4541ZM54.623 53.3853C54.8672 53.172 55.0072 52.8758 55.043 52.4966H54.4277C54.3952 52.7505 54.3179 52.932 54.1958 53.041C54.0737 53.1501 53.8914 53.2046 53.6489 53.2046C53.3836 53.2046 53.1818 53.1037 53.0435 52.9019C52.9067 52.7 52.8384 52.4071 52.8384 52.0229V51.708C52.8416 51.3288 52.9149 51.0415 53.0581 50.8462C53.203 50.6493 53.4097 50.5508 53.6782 50.5508C53.9093 50.5508 54.0843 50.6077 54.2031 50.7217C54.3236 50.834 54.3984 51.0179 54.4277 51.2734H55.043C55.0039 50.8844 54.8647 50.5833 54.6255 50.3701C54.3862 50.1569 54.0705 50.0503 53.6782 50.0503C53.3869 50.0503 53.1297 50.1195 52.9067 50.2578C52.6854 50.3962 52.5153 50.5931 52.3965 50.8486C52.2777 51.1042 52.2183 51.3996 52.2183 51.7349V52.0669C52.2231 52.394 52.2842 52.6813 52.4014 52.9287C52.5186 53.1761 52.6846 53.3674 52.8994 53.5024C53.1159 53.6359 53.3657 53.7026 53.6489 53.7026C54.0542 53.7026 54.3789 53.5968 54.623 53.3853ZM58.2534 52.8872C58.3739 52.6235 58.4341 52.3175 58.4341 51.9692V51.7715C58.4325 51.4248 58.3706 51.1213 58.2485 50.8608C58.1265 50.5988 57.9531 50.3986 57.7285 50.2603C57.5055 50.1203 57.2492 50.0503 56.9595 50.0503C56.6698 50.0503 56.4126 50.1211 56.188 50.2627C55.965 50.4027 55.7917 50.6053 55.668 50.8706C55.5459 51.1359 55.4849 51.4419 55.4849 51.7886V51.9888C55.4865 52.3289 55.5483 52.6292 55.6704 52.8896C55.7941 53.1501 55.9683 53.3511 56.1929 53.4927C56.4191 53.6326 56.6763 53.7026 56.9644 53.7026C57.2557 53.7026 57.5129 53.6326 57.7358 53.4927C57.9604 53.3511 58.133 53.1493 58.2534 52.8872ZM57.5918 50.8779C57.7415 51.0879 57.8164 51.3898 57.8164 51.7837V51.9692C57.8164 52.3696 57.7423 52.674 57.5942 52.8823C57.4478 53.0907 57.2378 53.1948 56.9644 53.1948C56.6942 53.1948 56.4826 53.0882 56.3296 52.875C56.1782 52.6618 56.1025 52.3599 56.1025 51.9692V51.7642C56.1058 51.3817 56.1823 51.0863 56.332 50.8779C56.4834 50.668 56.6925 50.563 56.9595 50.563C57.2329 50.563 57.4437 50.668 57.5918 50.8779Z"/>
</mask>
<path fill-rule="evenodd" clip-rule="evenodd" d="M38 7L45.0078 13.6341L32 13.6265V45.8137H66V33.507L73 40.1338V7H38ZM65.6924 32.7283L45.8226 13.918H65.6924V32.7283ZM59.5231 41.1055H37.3801V19.4579H38.9453V39.6397H59.5231V41.1055ZM42.6089 50.0991L41.791 51.7837L40.9731 50.0991H40.2871L41.481 52.3452V53.6538H42.1011V52.3452L43.2925 50.0991H42.6089ZM43.6367 53.6538L43.9248 52.8262H45.3018L45.5923 53.6538H46.2368L44.8916 50.0991H44.3374L42.9946 53.6538H43.6367ZM44.6133 50.8535L45.1284 52.3281H44.0981L44.6133 50.8535ZM47.8701 52.2427C47.7806 52.3794 47.7358 52.5299 47.7358 52.6943C47.7358 52.9938 47.8408 53.2371 48.0508 53.4243C48.2624 53.6099 48.5439 53.7026 48.8955 53.7026C49.2471 53.7026 49.5498 53.6074 49.8037 53.417L50.0039 53.6538H50.6924L50.1699 53.0361C50.375 52.7562 50.4775 52.3973 50.4775 51.9595H49.9624C49.9624 52.1987 49.9128 52.416 49.8135 52.6113L49.1274 51.8008L49.3691 51.625C49.54 51.5013 49.6629 51.3776 49.7378 51.2539C49.8127 51.1286 49.8501 50.9919 49.8501 50.8438C49.8501 50.6191 49.7671 50.4312 49.6011 50.2798C49.4367 50.1268 49.2251 50.0503 48.9663 50.0503C48.6798 50.0503 48.452 50.1317 48.2827 50.2944C48.1134 50.4556 48.0288 50.6753 48.0288 50.9536C48.0288 51.0675 48.0557 51.1855 48.1094 51.3076C48.1647 51.4297 48.2616 51.5778 48.3999 51.752C48.1362 51.9408 47.9596 52.1043 47.8701 52.2427ZM49.4741 53.0288C49.3 53.1623 49.1128 53.229 48.9126 53.229C48.7352 53.229 48.5936 53.1777 48.4878 53.0752C48.382 52.9727 48.3291 52.8392 48.3291 52.6748C48.3291 52.4844 48.4268 52.3151 48.6221 52.167L48.6978 52.1133L49.4741 53.0288ZM48.8369 51.4541C48.6693 51.2474 48.5854 51.0757 48.5854 50.939C48.5854 50.8201 48.6196 50.7217 48.688 50.6436C48.7563 50.5654 48.8483 50.5264 48.9639 50.5264C49.0713 50.5264 49.16 50.5597 49.23 50.6265C49.3 50.6916 49.335 50.7705 49.335 50.8633C49.335 51.0033 49.2845 51.118 49.1836 51.2075L49.1079 51.2686L48.8369 51.4541ZM54.623 53.3853C54.8672 53.172 55.0072 52.8758 55.043 52.4966H54.4277C54.3952 52.7505 54.3179 52.932 54.1958 53.041C54.0737 53.1501 53.8914 53.2046 53.6489 53.2046C53.3836 53.2046 53.1818 53.1037 53.0435 52.9019C52.9067 52.7 52.8384 52.4071 52.8384 52.0229V51.708C52.8416 51.3288 52.9149 51.0415 53.0581 50.8462C53.203 50.6493 53.4097 50.5508 53.6782 50.5508C53.9093 50.5508 54.0843 50.6077 54.2031 50.7217C54.3236 50.834 54.3984 51.0179 54.4277 51.2734H55.043C55.0039 50.8844 54.8647 50.5833 54.6255 50.3701C54.3862 50.1569 54.0705 50.0503 53.6782 50.0503C53.3869 50.0503 53.1297 50.1195 52.9067 50.2578C52.6854 50.3962 52.5153 50.5931 52.3965 50.8486C52.2777 51.1042 52.2183 51.3996 52.2183 51.7349V52.0669C52.2231 52.394 52.2842 52.6813 52.4014 52.9287C52.5186 53.1761 52.6846 53.3674 52.8994 53.5024C53.1159 53.6359 53.3657 53.7026 53.6489 53.7026C54.0542 53.7026 54.3789 53.5968 54.623 53.3853ZM58.2534 52.8872C58.3739 52.6235 58.4341 52.3175 58.4341 51.9692V51.7715C58.4325 51.4248 58.3706 51.1213 58.2485 50.8608C58.1265 50.5988 57.9531 50.3986 57.7285 50.2603C57.5055 50.1203 57.2492 50.0503 56.9595 50.0503C56.6698 50.0503 56.4126 50.1211 56.188 50.2627C55.965 50.4027 55.7917 50.6053 55.668 50.8706C55.5459 51.1359 55.4849 51.4419 55.4849 51.7886V51.9888C55.4865 52.3289 55.5483 52.6292 55.6704 52.8896C55.7941 53.1501 55.9683 53.3511 56.1929 53.4927C56.4191 53.6326 56.6763 53.7026 56.9644 53.7026C57.2557 53.7026 57.5129 53.6326 57.7358 53.4927C57.9604 53.3511 58.133 53.1493 58.2534 52.8872ZM57.5918 50.8779C57.7415 51.0879 57.8164 51.3898 57.8164 51.7837V51.9692C57.8164 52.3696 57.7423 52.674 57.5942 52.8823C57.4478 53.0907 57.2378 53.1948 56.9644 53.1948C56.6942 53.1948 56.4826 53.0882 56.3296 52.875C56.1782 52.6618 56.1025 52.3599 56.1025 51.9692V51.7642C56.1058 51.3817 56.1823 51.0863 56.332 50.8779C56.4834 50.668 56.6925 50.563 56.9595 50.563C57.2329 50.563 57.4437 50.668 57.5918 50.8779Z" fill="#AFB1B8"/>
<path d="M45.0078 13.6341L45.0072 14.6341L47.5203 14.6356L45.6953 12.9079L45.0078 13.6341ZM38 7V6H35.4891L37.3125 7.7262L38 7ZM32 13.6265L32.0006 12.6265L31 12.6259V13.6265H32ZM32 45.8137H31V46.8137H32V45.8137ZM66 45.8137V46.8137H67V45.8137H66ZM66 33.507L66.6875 32.7808L65 31.1833V33.507H66ZM73 40.1338L72.3125 40.86L74 42.4575V40.1338H73ZM73 7H74V6H73V7ZM45.8226 13.918V12.918H43.3117L45.1352 14.6442L45.8226 13.918ZM65.6924 32.7283L65.0049 33.4545L66.6924 35.0521V32.7283H65.6924ZM65.6924 13.918H66.6924V12.918H65.6924V13.918ZM37.3801 41.1055H36.3801V42.1055H37.3801V41.1055ZM59.5231 41.1055V42.1055H60.5231V41.1055H59.5231ZM37.3801 19.4579V18.4579H36.3801V19.4579H37.3801ZM38.9453 19.4579H39.9453V18.4579H38.9453V19.4579ZM38.9453 39.6397H37.9453V40.6397H38.9453V39.6397ZM59.5231 39.6397H60.5231V38.6397H59.5231V39.6397ZM41.791 51.7837L40.8914 52.2204L41.791 54.0733L42.6906 52.2204L41.791 51.7837ZM42.6089 50.0991V49.0991H41.9828L41.7093 49.6624L42.6089 50.0991ZM40.9731 50.0991L41.8727 49.6624L41.5993 49.0991H40.9731V50.0991ZM40.2871 50.0991V49.0991H38.6231L39.4041 50.5685L40.2871 50.0991ZM41.481 52.3452H42.481V52.096L42.364 51.8759L41.481 52.3452ZM41.481 53.6538H40.481V54.6538H41.481V53.6538ZM42.1011 53.6538V54.6538H43.1011V53.6538H42.1011ZM42.1011 52.3452L41.2177 51.8766L41.1011 52.0964V52.3452H42.1011ZM43.2925 50.0991L44.1759 50.5677L44.9549 49.0991H43.2925V50.0991ZM43.9248 52.8262V51.8262H43.214L42.9804 52.4974L43.9248 52.8262ZM43.6367 53.6538V54.6538H44.3475L44.5811 53.9825L43.6367 53.6538ZM45.3018 52.8262L46.2453 52.495L46.0105 51.8262H45.3018V52.8262ZM45.5923 53.6538L44.6487 53.985L44.8835 54.6538H45.5923V53.6538ZM46.2368 53.6538V54.6538H47.6845L47.1721 53.2999L46.2368 53.6538ZM44.8916 50.0991L45.8269 49.7452L45.5824 49.0991H44.8916V50.0991ZM44.3374 50.0991V49.0991H43.6462L43.4019 49.7457L44.3374 50.0991ZM42.9946 53.6538L42.0591 53.3004L41.5479 54.6538H42.9946V53.6538ZM45.1284 52.3281V53.3281H46.537L46.0725 51.9983L45.1284 52.3281ZM44.6133 50.8535L45.5573 50.5237L44.6133 47.8213L43.6692 50.5237L44.6133 50.8535ZM44.0981 52.3281L43.1541 51.9983L42.6895 53.3281H44.0981V52.3281ZM47.8701 52.2427L48.7067 52.7905L48.7097 52.7859L47.8701 52.2427ZM48.0508 53.4243L47.3853 54.1708L47.3915 54.1762L48.0508 53.4243ZM49.8037 53.417L50.5674 52.7714L49.9584 52.051L49.2037 52.617L49.8037 53.417ZM50.0039 53.6538L49.2402 54.2994L49.5398 54.6538H50.0039V53.6538ZM50.6924 53.6538V54.6538H52.848L51.4559 53.008L50.6924 53.6538ZM50.1699 53.0361L49.3632 52.4452L48.8978 53.0806L49.4064 53.6819L50.1699 53.0361ZM50.4775 51.9595H51.4775V50.9595H50.4775V51.9595ZM49.9624 51.9595V50.9595H48.9624V51.9595H49.9624ZM49.8135 52.6113L49.0502 53.2574L50.0227 54.4065L50.7049 53.0645L49.8135 52.6113ZM49.1274 51.8008L48.5393 50.992L47.6687 51.6252L48.3641 52.4468L49.1274 51.8008ZM49.3691 51.625L48.7828 50.8149L48.781 50.8163L49.3691 51.625ZM49.7378 51.2539L50.5933 51.7717L50.5963 51.7668L49.7378 51.2539ZM49.6011 50.2798L48.9198 51.0118L48.9273 51.0187L49.6011 50.2798ZM48.2827 50.2944L48.9722 51.0187L48.9758 51.0153L48.2827 50.2944ZM48.1094 51.3076L47.194 51.7104L47.1986 51.7205L48.1094 51.3076ZM48.3999 51.752L48.9821 52.565L49.8368 51.953L49.1829 51.1299L48.3999 51.752ZM49.4741 53.0288L50.0824 53.8225L50.9164 53.1834L50.2368 52.382L49.4741 53.0288ZM48.6221 52.167L48.0433 51.3515L48.0304 51.3606L48.0178 51.3702L48.6221 52.167ZM48.6978 52.1133L49.4604 51.4665L48.8671 50.7668L48.119 51.2978L48.6978 52.1133ZM48.8369 51.4541L48.0602 52.084L48.641 52.8001L49.4019 52.2792L48.8369 51.4541ZM49.23 50.6265L48.5399 51.3503L48.5489 51.3586L49.23 50.6265ZM49.1836 51.2075L49.8113 51.9859L49.8296 51.9712L49.8472 51.9556L49.1836 51.2075ZM49.1079 51.2686L49.6729 52.0937L49.7052 52.0716L49.7357 52.047L49.1079 51.2686ZM55.043 52.4966L56.0385 52.5906L56.1418 51.4966H55.043V52.4966ZM54.623 53.3853L55.278 54.1409L55.2808 54.1385L54.623 53.3853ZM54.4277 52.4966V51.4966H53.5478L53.4359 52.3694L54.4277 52.4966ZM53.0435 52.9019L52.2155 53.4627L52.2186 53.4673L53.0435 52.9019ZM52.8384 51.708L51.8384 51.6994V51.708H52.8384ZM53.0581 50.8462L52.2525 50.2537L52.2517 50.2548L53.0581 50.8462ZM54.2031 50.7217L53.5109 51.4435L53.5212 51.4531L54.2031 50.7217ZM54.4277 51.2734L53.4342 51.3873L53.5358 52.2734H54.4277V51.2734ZM55.043 51.2734V52.2734H56.1484L56.038 51.1735L55.043 51.2734ZM52.9067 50.2578L52.3795 49.4081L52.3767 49.4098L52.9067 50.2578ZM52.2183 52.0669H51.2183V52.0744L51.2184 52.0818L52.2183 52.0669ZM52.8994 53.5024L52.3671 54.349L52.3746 54.3537L52.8994 53.5024ZM58.2534 52.8872L59.162 53.3048L59.163 53.3027L58.2534 52.8872ZM58.4341 51.7715H59.4341L59.4341 51.7668L58.4341 51.7715ZM58.2485 50.8608L57.3421 51.2831L57.3431 51.2853L58.2485 50.8608ZM57.7285 50.2603L57.1968 51.1072L57.2041 51.1117L57.7285 50.2603ZM56.188 50.2627L56.7197 51.1097L56.7213 51.1086L56.188 50.2627ZM55.668 50.8706L54.7616 50.448L54.7595 50.4526L55.668 50.8706ZM55.4849 51.9888H54.4849L54.4849 51.9936L55.4849 51.9888ZM55.6704 52.8896L54.7649 53.3141L54.7671 53.3187L55.6704 52.8896ZM56.1929 53.4927L55.6596 54.3386L55.6667 54.3431L56.1929 53.4927ZM57.7358 53.4927L58.2675 54.3396L58.2691 54.3386L57.7358 53.4927ZM57.5918 50.8779L56.7746 51.4544L56.7776 51.4586L57.5918 50.8779ZM57.5942 52.8823L56.7792 52.3029L56.7762 52.3071L57.5942 52.8823ZM56.3296 52.875L55.5142 53.4539L55.5171 53.458L56.3296 52.875ZM56.1025 51.7642L55.1025 51.7556V51.7642H56.1025ZM56.332 50.8779L55.5209 50.2931L55.52 50.2943L56.332 50.8779ZM45.6953 12.9079L38.6875 6.2738L37.3125 7.7262L44.3203 14.3603L45.6953 12.9079ZM31.9994 14.6265L45.0072 14.6341L45.0084 12.6341L32.0006 12.6265L31.9994 14.6265ZM33 45.8137V13.6265H31V45.8137H33ZM66 44.8137H32V46.8137H66V44.8137ZM65 33.507V45.8137H67V33.507H65ZM73.6875 39.4076L66.6875 32.7808L65.3125 34.2332L72.3125 40.86L73.6875 39.4076ZM72 7V40.1338H74V7H72ZM38 8H73V6H38V8ZM45.1352 14.6442L65.0049 33.4545L66.3799 32.0021L46.5101 13.1918L45.1352 14.6442ZM65.6924 12.918H45.8226V14.918H65.6924V12.918ZM66.6924 32.7283V13.918H64.6924V32.7283H66.6924ZM37.3801 42.1055H59.5231V40.1055H37.3801V42.1055ZM36.3801 19.4579V41.1055H38.3801V19.4579H36.3801ZM38.9453 18.4579H37.3801V20.4579H38.9453V18.4579ZM39.9453 39.6397V19.4579H37.9453V39.6397H39.9453ZM59.5231 38.6397H38.9453V40.6397H59.5231V38.6397ZM60.5231 41.1055V39.6397H58.5231V41.1055H60.5231ZM42.6906 52.2204L43.5085 50.5359L41.7093 49.6624L40.8914 51.3469L42.6906 52.2204ZM40.0736 50.5359L40.8914 52.2204L42.6906 51.3469L41.8727 49.6624L40.0736 50.5359ZM40.2871 51.0991H40.9731V49.0991H40.2871V51.0991ZM42.364 51.8759L41.1701 49.6298L39.4041 50.5685L40.5979 52.8146L42.364 51.8759ZM42.481 53.6538V52.3452H40.481V53.6538H42.481ZM42.1011 52.6538H41.481V54.6538H42.1011V52.6538ZM41.1011 52.3452V53.6538H43.1011V52.3452H41.1011ZM42.4091 49.6305L41.2177 51.8766L42.9845 52.8138L44.1759 50.5677L42.4091 49.6305ZM42.6089 51.0991H43.2925V49.0991H42.6089V51.0991ZM42.9804 52.4974L42.6923 53.3251L44.5811 53.9825L44.8692 53.1549L42.9804 52.4974ZM45.3018 51.8262H43.9248V53.8262H45.3018V51.8262ZM46.5358 53.3226L46.2453 52.495L44.3582 53.1574L44.6487 53.985L46.5358 53.3226ZM46.2368 52.6538H45.5923V54.6538H46.2368V52.6538ZM43.9563 50.4531L45.3015 54.0077L47.1721 53.2999L45.8269 49.7452L43.9563 50.4531ZM44.3374 51.0991H44.8916V49.0991H44.3374V51.0991ZM43.9301 54.0072L45.2729 50.4525L43.4019 49.7457L42.0591 53.3004L43.9301 54.0072ZM43.6367 52.6538H42.9946V54.6538H43.6367V52.6538ZM46.0725 51.9983L45.5573 50.5237L43.6692 51.1833L44.1844 52.6579L46.0725 51.9983ZM44.0981 53.3281H45.1284V51.3281H44.0981V53.3281ZM43.6692 50.5237L43.1541 51.9983L45.0422 52.6579L45.5573 51.1833L43.6692 50.5237ZM48.7358 52.6943C48.7358 52.7041 48.7343 52.7217 48.7279 52.7431C48.7216 52.7646 48.713 52.7809 48.7067 52.7905L47.0335 51.6949C46.8367 51.9954 46.7358 52.3366 46.7358 52.6943H48.7358ZM48.7162 52.6779C48.7135 52.6754 48.7157 52.6769 48.7201 52.683C48.7246 52.6892 48.7292 52.697 48.7328 52.7053C48.7363 52.7135 48.7373 52.7186 48.7373 52.7185C48.7373 52.7182 48.7358 52.7107 48.7358 52.6943H46.7358C46.7358 53.2581 46.9475 53.7804 47.3853 54.1708L48.7162 52.6779ZM48.8955 52.7026C48.8068 52.7026 48.7566 52.6909 48.7336 52.6833C48.7222 52.6795 48.7163 52.6765 48.7141 52.6752C48.712 52.674 48.711 52.6732 48.7101 52.6725L47.3915 54.1762C47.8276 54.5586 48.364 54.7026 48.8955 54.7026V52.7026ZM49.2037 52.617C49.1416 52.6636 49.0552 52.7026 48.8955 52.7026V54.7026C49.4389 54.7026 49.958 54.5512 50.4037 54.217L49.2037 52.617ZM50.7676 53.0082L50.5674 52.7714L49.04 54.0626L49.2402 54.2994L50.7676 53.0082ZM50.6924 52.6538H50.0039V54.6538H50.6924V52.6538ZM49.4064 53.6819L49.9289 54.2996L51.4559 53.008L50.9334 52.3903L49.4064 53.6819ZM49.4775 51.9595C49.4775 52.2409 49.4132 52.377 49.3632 52.4452L50.9766 53.6271C51.3368 53.1354 51.4775 52.5537 51.4775 51.9595H49.4775ZM49.9624 52.9595H50.4775V50.9595H49.9624V52.9595ZM50.7049 53.0645C50.882 52.7162 50.9624 52.3415 50.9624 51.9595H48.9624C48.9624 52.056 48.9436 52.1159 48.922 52.1582L50.7049 53.0645ZM48.3641 52.4468L49.0502 53.2574L50.5768 51.9653L49.8907 51.1547L48.3641 52.4468ZM48.781 50.8163L48.5393 50.992L49.7156 52.6095L49.9573 52.4337L48.781 50.8163ZM48.8823 50.7361C48.8933 50.7178 48.8966 50.718 48.88 50.7347C48.8637 50.7512 48.8332 50.7785 48.7828 50.8149L49.9555 52.4351C50.1892 52.2659 50.425 52.0498 50.5933 51.7717L48.8823 50.7361ZM48.8501 50.8438C48.8501 50.8326 48.8516 50.8148 48.8575 50.7933C48.8634 50.7717 48.8717 50.7538 48.8793 50.7411L50.5963 51.7668C50.7652 51.484 50.8501 51.1697 50.8501 50.8438H48.8501ZM48.9273 51.0187C48.9172 51.0095 48.8928 50.9829 48.8731 50.9382C48.8533 50.8936 48.8501 50.8575 48.8501 50.8438H50.8501C50.8501 50.3378 50.6486 49.8816 50.2748 49.5408L48.9273 51.0187ZM48.9663 51.0503C48.9969 51.0503 48.9974 51.0547 48.9791 51.0481C48.9703 51.0449 48.9594 51.04 48.9479 51.0329C48.9364 51.0259 48.9269 51.0184 48.9198 51.0118L50.2824 49.5478C49.9047 49.1963 49.4366 49.0503 48.9663 49.0503V51.0503ZM48.9758 51.0153C48.9669 51.0238 48.9562 51.0323 48.9444 51.0395C48.9326 51.0467 48.9229 51.0509 48.9169 51.0531C48.9051 51.0573 48.9171 51.0503 48.9663 51.0503V49.0503C48.4816 49.0503 47.9844 49.194 47.5896 49.5736L48.9758 51.0153ZM49.0288 50.9536C49.0288 50.9154 49.0346 50.9159 49.0255 50.9395C49.0209 50.9512 49.0139 50.9657 49.0037 50.981C48.9935 50.9963 48.9824 51.009 48.9722 51.0187L47.5932 49.5701C47.1882 49.9557 47.0288 50.4581 47.0288 50.9536H49.0288ZM49.0247 50.9049C49.0209 50.8963 49.022 50.8967 49.024 50.9057C49.0261 50.915 49.0288 50.9314 49.0288 50.9536H47.0288C47.0288 51.2278 47.0939 51.4828 47.1941 51.7104L49.0247 50.9049ZM49.1829 51.1299C49.1283 51.0611 49.0885 51.0058 49.0605 50.963C49.0467 50.9419 49.0368 50.9254 49.03 50.9133C49.0266 50.9073 49.0242 50.9027 49.0225 50.8995C49.0209 50.8963 49.0202 50.8947 49.0202 50.8947L47.1986 51.7205C47.3027 51.9501 47.4563 52.1718 47.6169 52.374L49.1829 51.1299ZM48.7097 52.7859C48.6937 52.8106 48.6967 52.7985 48.7492 52.7499C48.7983 52.7044 48.8735 52.6428 48.9821 52.565L47.8177 50.9389C47.5314 51.1439 47.2263 51.3969 47.0305 51.6994L48.7097 52.7859ZM48.9126 54.229C49.3541 54.229 49.7514 54.0762 50.0824 53.8225L48.8658 52.2351C48.8528 52.2451 48.8533 52.242 48.8673 52.237C48.8739 52.2347 48.8818 52.2325 48.8905 52.231C48.8992 52.2295 48.9068 52.229 48.9126 52.229V54.229ZM47.7918 53.7933C48.1211 54.1124 48.5318 54.229 48.9126 54.229V52.229C48.9198 52.229 48.9579 52.2301 49.0138 52.2503C49.0728 52.2717 49.1329 52.3078 49.1838 52.3571L47.7918 53.7933ZM47.3291 52.6748C47.3291 53.0754 47.4683 53.4797 47.7918 53.7933L49.1838 52.3571C49.2299 52.4019 49.2712 52.4612 49.2984 52.5297C49.3247 52.596 49.3291 52.649 49.3291 52.6748H47.3291ZM48.0178 51.3702C47.6517 51.6479 47.3291 52.0846 47.3291 52.6748H49.3291C49.3291 52.7598 49.305 52.8416 49.2685 52.9048C49.2361 52.961 49.2088 52.9771 49.2263 52.9638L48.0178 51.3702ZM48.119 51.2978L48.0433 51.3515L49.2008 52.9825L49.2765 52.9288L48.119 51.2978ZM50.2368 52.382L49.4604 51.4665L47.9351 52.76L48.7114 53.6756L50.2368 52.382ZM47.5854 50.939C47.5854 51.4395 47.8651 51.8434 48.0602 52.084L49.6136 50.8242C49.5883 50.7931 49.571 50.7691 49.5598 50.7522C49.5484 50.735 49.5453 50.7283 49.547 50.7316C49.5485 50.7347 49.5573 50.7532 49.5662 50.7858C49.5751 50.8187 49.5854 50.8711 49.5854 50.939H47.5854ZM47.9354 49.9851C47.6846 50.2717 47.5854 50.6152 47.5854 50.939H49.5854C49.5854 50.9758 49.58 51.0341 49.5558 51.1039C49.5309 51.1757 49.4914 51.2439 49.4406 51.3021L47.9354 49.9851ZM48.9639 49.5264C48.5965 49.5264 48.2165 49.6639 47.9354 49.9851L49.4406 51.3021C49.3795 51.3719 49.2974 51.4343 49.1992 51.4761C49.1037 51.5166 49.0196 51.5264 48.9639 51.5264V49.5264ZM49.9201 49.9027C49.6428 49.6384 49.2973 49.5264 48.9639 49.5264V51.5264C48.9132 51.5264 48.8411 51.5183 48.7589 51.4874C48.6749 51.4558 48.6001 51.4076 48.5399 51.3502L49.9201 49.9027ZM50.335 50.8633C50.335 50.4834 50.1775 50.1421 49.9111 49.8943L48.5489 51.3586C48.4955 51.309 48.4374 51.2365 48.3945 51.1398C48.3513 51.0423 48.335 50.946 48.335 50.8633H50.335ZM49.8472 51.9556C50.1711 51.6683 50.335 51.277 50.335 50.8633H48.335C48.335 50.8109 48.345 50.7353 48.3817 50.6518C48.4188 50.5673 48.4709 50.503 48.52 50.4594L49.8472 51.9556ZM49.7357 52.047L49.8113 51.9859L48.5558 50.4291L48.4802 50.4901L49.7357 52.047ZM49.4019 52.2792L49.6729 52.0937L48.543 50.4434L48.272 50.629L49.4019 52.2792ZM54.0474 52.4026C54.0312 52.5746 53.9833 52.6163 53.9653 52.6321L55.2808 54.1385C55.7511 53.7278 55.9832 53.177 56.0385 52.5906L54.0474 52.4026ZM54.4277 53.4966H55.043V51.4966H54.4277V53.4966ZM54.862 53.7868C55.2408 53.4484 55.3729 52.9882 55.4196 52.6237L53.4359 52.3694C53.428 52.4307 53.4191 52.4458 53.4253 52.4312C53.4326 52.4141 53.4609 52.3566 53.5296 52.2953L54.862 53.7868ZM53.6489 54.2046C54.0216 54.2046 54.4857 54.123 54.862 53.7868L53.5296 52.2953C53.5944 52.2374 53.6542 52.2136 53.681 52.2056C53.7042 52.1987 53.6984 52.2046 53.6489 52.2046V54.2046ZM52.2186 53.4673C52.5612 53.967 53.0866 54.2046 53.6489 54.2046V52.2046C53.6443 52.2046 53.6854 52.2043 53.7458 52.2345C53.8093 52.2662 53.8498 52.3096 53.8683 52.3365L52.2186 53.4673ZM51.8384 52.0229C51.8384 52.5009 51.9191 53.0252 52.2155 53.4627L53.8714 52.341C53.8856 52.3621 53.8761 52.3578 53.8635 52.3035C53.8507 52.2487 53.8384 52.1584 53.8384 52.0229H51.8384ZM51.8384 51.708V52.0229H53.8384V51.708H51.8384ZM52.2517 50.2548C51.9321 50.6906 51.8425 51.2208 51.8384 51.6994L53.8383 51.7166C53.8395 51.5863 53.8526 51.5027 53.8648 51.4552C53.8766 51.4087 53.8835 51.4116 53.8645 51.4376L52.2517 50.2548ZM53.6782 49.5508C53.1279 49.5508 52.6064 49.7726 52.2525 50.2537L53.8637 51.4387C53.8452 51.4638 53.8074 51.501 53.7518 51.5274C53.6996 51.5523 53.6672 51.5508 53.6782 51.5508V49.5508ZM54.8953 49.9999C54.5262 49.646 54.0623 49.5508 53.6782 49.5508V51.5508C53.7143 51.5508 53.7075 51.5555 53.6732 51.5444C53.6346 51.5318 53.5725 51.5024 53.511 51.4435L54.8953 49.9999ZM55.4212 51.1595C55.3793 50.7939 55.2541 50.3344 54.8851 49.9903L53.5212 51.4531C53.4556 51.392 53.4296 51.3362 53.4234 51.3209C53.4182 51.308 53.4271 51.3248 53.4342 51.3873L55.4212 51.1595ZM55.043 50.2734H54.4277V52.2734H55.043V50.2734ZM53.9602 51.1167C53.9733 51.1284 54.0282 51.176 54.048 51.3734L56.038 51.1735C55.9797 50.5929 55.7562 50.0383 55.2908 49.6235L53.9602 51.1167ZM53.6782 51.0503C53.8826 51.0503 53.9429 51.1013 53.9602 51.1167L55.2908 49.6235C54.8296 49.2125 54.2584 49.0503 53.6782 49.0503V51.0503ZM53.4339 51.1075C53.4815 51.078 53.552 51.0503 53.6782 51.0503V49.0503C53.2218 49.0503 52.7779 49.1609 52.3795 49.4081L53.4339 51.1075ZM53.3033 51.2702C53.3472 51.1757 53.3927 51.1333 53.4367 51.1058L52.3767 49.4098C51.978 49.659 51.6834 50.0105 51.4897 50.427L53.3033 51.2702ZM53.2183 51.7349C53.2183 51.5179 53.2564 51.371 53.3033 51.2702L51.4897 50.427C51.2989 50.8373 51.2183 51.2812 51.2183 51.7349H53.2183ZM53.2183 52.0669V51.7349H51.2183V52.0669H53.2183ZM53.3051 52.5006C53.2599 52.4052 53.2213 52.2636 53.2182 52.052L51.2184 52.0818C51.225 52.5245 51.3084 52.9574 51.4976 53.3568L53.3051 52.5006ZM53.4317 52.6559C53.3907 52.6301 53.3475 52.5901 53.3051 52.5006L51.4976 53.3568C51.6896 53.7621 51.9784 54.1046 52.3671 54.349L53.4317 52.6559ZM53.6489 52.7026C53.5294 52.7026 53.4654 52.6766 53.4242 52.6512L52.3746 54.3537C52.7663 54.5952 53.2021 54.7026 53.6489 54.7026V52.7026ZM53.9681 52.6296C53.9485 52.6466 53.8768 52.7026 53.6489 52.7026V54.7026C54.2316 54.7026 54.8093 54.5471 55.278 54.1409L53.9681 52.6296ZM57.4341 51.9692C57.4341 52.2026 57.3939 52.362 57.3438 52.4717L59.163 53.3027C59.3538 52.885 59.4341 52.4325 59.4341 51.9692H57.4341ZM57.4341 51.7715V51.9692H59.4341V51.7715H57.4341ZM57.3431 51.2853C57.3922 51.3901 57.433 51.5453 57.4341 51.7762L59.4341 51.7668C59.4319 51.3043 59.349 50.8524 59.154 50.4364L57.3431 51.2853ZM57.2041 51.1117C57.2462 51.1377 57.2944 51.1807 57.3421 51.2831L59.155 50.4386C58.9586 50.0169 58.66 49.6595 58.253 49.4088L57.2041 51.1117ZM56.9595 51.0503C57.0806 51.0503 57.149 51.0771 57.1969 51.1072L58.2602 49.4133C57.8621 49.1634 57.4177 49.0503 56.9595 49.0503V51.0503ZM56.7213 51.1086C56.7718 51.0768 56.8407 51.0503 56.9595 51.0503V49.0503C56.4989 49.0503 56.0534 49.1654 55.6547 49.4168L56.7213 51.1086ZM56.5743 51.2932C56.626 51.1823 56.6777 51.136 56.7196 51.1097L55.6563 49.4157C55.2523 49.6694 54.9573 50.0283 54.7616 50.448L56.5743 51.2932ZM56.4849 51.7886C56.4849 51.5595 56.5249 51.4006 56.5764 51.2886L54.7595 50.4526C54.5669 50.8712 54.4849 51.3243 54.4849 51.7886H56.4849ZM56.4849 51.9888V51.7886H54.4849V51.9888H56.4849ZM56.5759 52.4652C56.5256 52.358 56.4859 52.2053 56.4849 51.984L54.4849 51.9936C54.4871 52.4526 54.5711 52.9005 54.7649 53.3141L56.5759 52.4652ZM56.7262 52.6468C56.6756 52.6149 56.6233 52.5651 56.5737 52.4606L54.7671 53.3187C54.9649 53.7351 55.2609 54.0873 55.6596 54.3386L56.7262 52.6468ZM56.9644 52.7026C56.8462 52.7026 56.7741 52.6764 56.719 52.6423L55.6667 54.3431C56.0641 54.5889 56.5064 54.7026 56.9644 54.7026V52.7026ZM57.2042 52.6457C57.1572 52.6752 57.0883 52.7026 56.9644 52.7026V54.7026C57.4231 54.7026 57.8685 54.5901 58.2675 54.3396L57.2042 52.6457ZM57.3448 52.4696C57.298 52.5713 57.249 52.6174 57.2025 52.6468L58.2691 54.3386C58.6719 54.0847 58.9679 53.7272 59.162 53.3048L57.3448 52.4696ZM58.8164 51.7837C58.8164 51.2846 58.7251 50.7448 58.406 50.2973L56.7776 51.4586C56.7661 51.4423 56.7764 51.4492 56.7897 51.5025C56.8032 51.5571 56.8164 51.6475 56.8164 51.7837H58.8164ZM58.8164 51.9692V51.7837H56.8164V51.9692H58.8164ZM58.4093 53.4618C58.7284 53.0128 58.8164 52.4681 58.8164 51.9692H56.8164C56.8164 52.1106 56.803 52.2045 56.7892 52.2614C56.7756 52.3173 56.7653 52.3225 56.7792 52.3029L58.4093 53.4618ZM56.9644 54.1948C57.5352 54.1948 58.0629 53.9544 58.4123 53.4575L56.7762 52.3071C56.7903 52.2871 56.8254 52.2492 56.8825 52.2209C56.9369 52.1939 56.9725 52.1948 56.9644 52.1948V54.1948ZM55.5171 53.458C55.8644 53.942 56.3833 54.1948 56.9644 54.1948V52.1948C56.9635 52.1948 57.0008 52.1955 57.053 52.2218C57.1063 52.2487 57.1348 52.2819 57.1421 52.292L55.5171 53.458ZM55.1025 51.9692C55.1025 52.4704 55.1967 53.0067 55.5142 53.4539L57.145 52.2961C57.1597 52.3169 57.1025 52.2494 57.1025 51.9692H55.1025ZM55.1025 51.7642V51.9692H57.1025V51.7642H55.1025ZM55.52 50.2943C55.2038 50.7343 55.1068 51.2626 55.1026 51.7556L57.1025 51.7727C57.1048 51.5008 57.1608 51.4383 57.144 51.4616L55.52 50.2943ZM56.9595 49.563C56.383 49.563 55.867 49.813 55.5209 50.2931L57.1432 51.4627C57.1348 51.4743 57.1052 51.5083 57.051 51.5355C57.0263 51.5479 57.0035 51.5552 56.9855 51.5592C56.9679 51.5631 56.9584 51.563 56.9595 51.563V49.563ZM58.4089 50.3015C58.0597 49.8065 57.5334 49.563 56.9595 49.563V51.563C56.9664 51.563 56.9306 51.5636 56.8768 51.5368C56.8207 51.5089 56.7872 51.4721 56.7747 51.4544L58.4089 50.3015Z" fill="black" mask="url(#path-1-inside-1_1_757)"/>
</svg>
