<svg width="106" height="60" viewBox="0 0 106 60" fill="none" xmlns="http://www.w3.org/2000/svg">
<rect width="106" height="60" fill="white"/>
<path d="M56.8772 25.509V25.7142C56.8818 25.9768 56.8627 26.2392 56.8199 26.4989C56.7747 26.7868 56.6229 27.0398 56.4069 27.2248L56.3907 27.2387L56.3733 27.2512C56.1229 27.431 55.8152 27.5168 55.51 27.5047C55.3017 27.5206 55.0905 27.4902 54.8954 27.414C54.6863 27.3323 54.4976 27.1985 54.3566 27.019L54.3295 26.9844L54.3089 26.9457C54.1045 26.5632 54.0103 26.1381 54.0393 25.7097V22.2326C54.0349 21.9594 54.0598 21.6865 54.1135 21.4177L56.8772 25.509ZM56.8772 25.509H57.518V25.6572V25.6751L57.5193 25.693C57.5557 26.1999 57.4014 26.711 57.0657 27.1503C56.8261 27.4137 56.3631 27.6122 55.4871 27.6122C54.6105 27.6122 54.0819 27.3992 53.8151 27.095C53.4473 26.5994 53.2781 26.0256 53.319 25.4554L53.3203 25.4375V25.4196V22.5364C53.3203 21.7201 53.5061 21.1851 53.7983 20.8501C54.0594 20.5509 54.5692 20.3333 55.4861 20.3351H55.4871C56.3404 20.3351 56.8227 20.5175 57.0713 20.7596C57.403 21.1614 57.5553 21.6377 57.5195 22.1084L57.518 22.1274V22.1463V22.3239H56.8772V22.1438C56.8833 21.8901 56.8652 21.6365 56.8231 21.3856C56.7785 21.1041 56.6272 20.8585 56.4142 20.682L56.3959 20.6668L56.3763 20.6534C56.1195 20.4789 55.8083 20.3967 55.4999 20.4108C55.1812 20.3971 54.8602 20.4823 54.5951 20.6618L54.5758 20.6749L54.5577 20.6898C54.3336 20.8744 54.1716 21.1273 54.1135 21.4177L56.8772 25.509Z" fill="#AFB1B8" stroke="black"/>
<path d="M62.3349 20.3351H62.3359C63.2429 20.3351 63.7648 20.5435 64.0412 20.8353C64.3384 21.151 64.5299 21.6568 64.5299 22.4367V25.4695C64.5299 26.2492 64.3384 26.7655 64.0324 27.0936C63.7466 27.4 63.2262 27.6122 62.3359 27.6122C61.4441 27.6122 60.9045 27.3963 60.6229 27.0969C60.3241 26.7725 60.1352 26.2596 60.1352 25.4695V22.4367C60.1352 21.6545 60.3245 21.1496 60.6208 20.8349C60.8964 20.5424 61.4201 20.3333 62.3349 20.3351ZM61.1737 20.9079L61.1465 20.9421L61.1256 20.9805C60.9352 21.3305 60.845 21.7205 60.8678 22.1148V25.8147C60.8444 26.2134 60.9339 26.6081 61.1238 26.9634L61.1594 27.0301L61.2132 27.0833C61.3599 27.2283 61.5363 27.3403 61.7283 27.4156C61.9202 27.4909 62.126 27.529 62.3326 27.529C62.5391 27.529 62.7449 27.4909 62.9368 27.4156C63.1288 27.3403 63.3052 27.2283 63.4519 27.0833L63.6003 26.9365V26.826C63.748 26.5028 63.8164 26.1522 63.7974 25.7983V22.1141C63.8189 21.7223 63.7309 21.3346 63.5453 20.985L63.5245 20.9458L63.4971 20.9109C63.3536 20.7279 63.1607 20.5923 62.947 20.5106L62.7711 20.9712L62.947 20.5106C62.7524 20.4363 62.5422 20.4072 62.3351 20.4238C62.1284 20.4079 61.9187 20.4371 61.7244 20.511L61.9021 20.9783L61.7244 20.511C61.511 20.5921 61.3182 20.7266 61.1737 20.9079Z" fill="#AFB1B8" stroke="black"/>
<path d="M70.5843 25.6372L71.8504 20.4236H72.6869L72.8387 27.5003H72.5671L72.443 22.375L71.4562 22.2733L70.2351 27.5003H70.0064L68.7398 22.2493L67.7538 22.3554L67.6391 27.5003H67.3539L67.4938 20.4236H68.3749L69.6119 25.6347L70.5843 25.6372Z" fill="#AFB1B8" stroke="black"/>
<path d="M76.5186 24.4106V27.5003H75.8206L75.8296 20.4236H78.0819C78.802 20.4236 79.2494 20.5974 79.5183 20.8568C79.784 21.113 79.9599 21.5343 79.9599 22.217C79.9599 22.8539 79.7815 23.245 79.5045 23.4876C79.215 23.7413 78.7293 23.9116 77.9568 23.9106H77.9562H77.0186H76.5186V24.4106ZM78.9806 23.469L79.0222 23.4108C79.2777 23.0529 79.4003 22.6247 79.3606 22.1904C79.3675 21.9068 79.3342 21.6239 79.262 21.3482L79.2597 21.3394L79.257 21.3306C79.2109 21.1778 79.1315 21.0394 79.0278 20.9222L78.6533 21.2534L79.0278 20.9222C78.9243 20.8051 78.7987 20.7113 78.6608 20.6429L78.6456 20.6353L78.6299 20.6288C78.3281 20.5038 77.9982 20.4473 77.6694 20.4618H77.022H76.522V20.9618V23.3754V23.8754H77.022H77.6559C77.8761 23.896 78.0993 23.877 78.3124 23.8188C78.5348 23.758 78.7442 23.655 78.9244 23.5132L78.9806 23.469Z" fill="#AFB1B8" stroke="black"/>
<path d="M85.1426 26.0405L85.0625 25.638H85.059L84.9602 25.1104L84.3249 21.7202H83.342L82.7067 25.1104L82.5958 25.7025H82.6036L82.535 26.0379L82.2363 27.5003H81.6667L83.3068 20.4236H84.3363L85.9764 27.5003H85.4328L85.1426 26.0405Z" fill="#AFB1B8" stroke="black"/>
<path d="M92.0825 24.5309V20.4236H92.4923V27.5003H92.1768L90.0228 22.9757L89.0713 23.1906V27.5003H88.6141L88.6171 20.4236H88.9956L91.1342 24.7524L92.0825 24.5309Z" fill="#AFB1B8" stroke="black"/>
<path d="M96.7945 24.9208V24.8291L96.7619 24.7434L95.1268 20.4349H95.6443L96.6802 23.3073L97.1656 24.6531L97.6242 23.2979L98.5929 20.4349H99.0722L97.4569 24.7454L97.4251 24.8302V24.9208V27.5003H96.7945V24.9208Z" fill="#AFB1B8" stroke="black"/>
<mask id="path-8-inside-1_1_836" fill="white">
<path d="M56.0477 31.5316V31.954H54.6617V35.2359H54.0807V31.954H52.6879V31.5316H56.0477Z"/>
</mask>
<path d="M56.0477 31.5316V31.954H54.6617V35.2359H54.0807V31.954H52.6879V31.5316H56.0477Z" fill="#AFB1B8"/>
<path d="M56.0477 31.5316H57.0477V30.5316H56.0477V31.5316ZM56.0477 31.954V32.954H57.0477V31.954H56.0477ZM54.6617 31.954V30.954H53.6617V31.954H54.6617ZM54.6617 35.2359V36.2359H55.6617V35.2359H54.6617ZM54.0807 35.2359H53.0807V36.2359H54.0807V35.2359ZM54.0807 31.954H55.0807V30.954H54.0807V31.954ZM52.6879 31.954H51.6879V32.954H52.6879V31.954ZM52.6879 31.5316V30.5316H51.6879V31.5316H52.6879ZM55.0477 31.5316V31.954H57.0477V31.5316H55.0477ZM56.0477 30.954H54.6617V32.954H56.0477V30.954ZM53.6617 31.954V35.2359H55.6617V31.954H53.6617ZM54.6617 34.2359H54.0807V36.2359H54.6617V34.2359ZM55.0807 35.2359V31.954H53.0807V35.2359H55.0807ZM54.0807 30.954H52.6879V32.954H54.0807V30.954ZM53.6879 31.954V31.5316H51.6879V31.954H53.6879ZM52.6879 32.5316H56.0477V30.5316H52.6879V32.5316Z" fill="black" mask="url(#path-8-inside-1_1_836)"/>
<mask id="path-10-inside-2_1_836" fill="white">
<path d="M60.3927 35.2362H59.9442C59.8987 35.2386 59.8538 35.2261 59.8185 35.201C59.7846 35.1795 59.7587 35.15 59.7438 35.116L59.3429 34.2361H57.4201L57.0192 35.116C57.0078 35.1528 56.9869 35.1868 56.958 35.2157C56.9225 35.2402 56.8778 35.2527 56.8324 35.2509H56.3839L58.0825 31.5468H58.6737L60.3927 35.2362ZM57.5797 33.8607H59.1833L58.5038 32.3533C58.4537 32.2393 58.4117 32.1227 58.3781 32.0043C58.3543 32.0747 58.3339 32.1421 58.3136 32.2008L58.2524 32.3562L57.5797 33.8607Z"/>
</mask>
<path d="M60.3927 35.2362H59.9442C59.8987 35.2386 59.8538 35.2261 59.8185 35.201C59.7846 35.1795 59.7587 35.15 59.7438 35.116L59.3429 34.2361H57.4201L57.0192 35.116C57.0078 35.1528 56.9869 35.1868 56.958 35.2157C56.9225 35.2402 56.8778 35.2527 56.8324 35.2509H56.3839L58.0825 31.5468H58.6737L60.3927 35.2362ZM57.5797 33.8607H59.1833L58.5038 32.3533C58.4537 32.2393 58.4117 32.1227 58.3781 32.0043C58.3543 32.0747 58.3339 32.1421 58.3136 32.2008L58.2524 32.3562L57.5797 33.8607Z" fill="#AFB1B8"/>
<path d="M60.3927 35.2362V36.2362H61.9618L61.2991 34.8139L60.3927 35.2362ZM59.9442 35.2362V34.2362H59.9174L59.8906 34.2376L59.9442 35.2362ZM59.8185 35.201L60.3983 34.3862L60.3765 34.3707L60.354 34.3564L59.8185 35.201ZM59.7438 35.116L60.6602 34.7156L60.657 34.7085L60.6538 34.7013L59.7438 35.116ZM59.3429 34.2361L60.2529 33.8215L59.9862 33.2361H59.3429V34.2361ZM57.4201 34.2361V33.2361H56.7768L56.5101 33.8215L57.4201 34.2361ZM57.0192 35.116L56.1092 34.7013L56.0828 34.7592L56.064 34.82L57.0192 35.116ZM56.958 35.2157L57.5266 36.0383L57.601 35.9869L57.6649 35.923L56.958 35.2157ZM56.8324 35.2509L56.8736 34.2517L56.853 34.2509H56.8324V35.2509ZM56.3839 35.2509L55.4749 34.834L54.8252 36.2509H56.3839V35.2509ZM58.0825 31.5468V30.5468H57.441L57.1736 31.1299L58.0825 31.5468ZM58.6737 31.5468L59.5801 31.1244L59.311 30.5468H58.6737V31.5468ZM57.5797 33.8607L56.6668 33.4526L56.0373 34.8607H57.5797V33.8607ZM59.1833 33.8607V34.8607H60.7309L60.0949 33.4498L59.1833 33.8607ZM58.5038 32.3533L57.5883 32.7558L57.5921 32.7642L58.5038 32.3533ZM58.3781 32.0043L59.3401 31.7314L58.4614 28.6335L57.4307 31.6842L58.3781 32.0043ZM58.3136 32.2008L59.2441 32.5669L59.2515 32.5481L59.2581 32.529L58.3136 32.2008ZM58.2524 32.3562L59.1653 32.7644L59.1746 32.7435L59.183 32.7223L58.2524 32.3562ZM60.3927 34.2362H59.9442V36.2362H60.3927V34.2362ZM59.8906 34.2376C60.0575 34.2287 60.2386 34.2726 60.3983 34.3862L59.2388 36.0158C59.4689 36.1796 59.7399 36.2486 59.9979 36.2348L59.8906 34.2376ZM60.354 34.3564C60.4739 34.4325 60.5885 34.5516 60.6602 34.7156L58.8274 35.5163C58.9288 35.7483 59.0953 35.9265 59.2831 36.0456L60.354 34.3564ZM60.6538 34.7013L60.2529 33.8215L58.4329 34.6507L58.8338 35.5306L60.6538 34.7013ZM59.3429 33.2361H57.4201V35.2361H59.3429V33.2361ZM56.5101 33.8215L56.1092 34.7013L57.9292 35.5306L58.3301 34.6507L56.5101 33.8215ZM56.064 34.82C56.1035 34.6925 56.1719 34.5875 56.2512 34.5083L57.6649 35.923C57.8018 35.7862 57.9121 35.613 57.9744 35.4119L56.064 34.82ZM56.3895 34.393C56.5426 34.2872 56.7144 34.2451 56.8736 34.2517L56.7911 36.25C57.0412 36.2603 57.3024 36.1933 57.5266 36.0383L56.3895 34.393ZM56.8324 34.2509H56.3839V36.2509H56.8324V34.2509ZM57.2929 35.6677L58.9915 31.9636L57.1736 31.1299L55.4749 34.834L57.2929 35.6677ZM58.0825 32.5468H58.6737V30.5468H58.0825V32.5468ZM57.7672 31.9691L59.4862 35.6585L61.2991 34.8139L59.5801 31.1244L57.7672 31.9691ZM57.5797 34.8607H59.1833V32.8607H57.5797V34.8607ZM60.0949 33.4498L59.4155 31.9424L57.5921 32.7642L58.2716 34.2716L60.0949 33.4498ZM59.4192 31.9508C59.3874 31.8784 59.3611 31.8051 59.3401 31.7314L57.4161 32.2772C57.4623 32.4403 57.52 32.6002 57.5884 32.7557L59.4192 31.9508ZM57.4307 31.6842C57.3822 31.8277 57.3982 31.7885 57.369 31.8725L59.2581 32.529C59.2727 32.4871 59.2863 32.445 59.2965 32.4132C59.3078 32.378 59.3164 32.3512 59.3255 32.3244L57.4307 31.6842ZM57.383 31.8347L57.3218 31.9901L59.183 32.7223L59.2441 32.5669L57.383 31.8347ZM57.3395 31.948L56.6668 33.4526L58.4927 34.2689L59.1653 32.7644L57.3395 31.948Z" fill="black" mask="url(#path-10-inside-2_1_836)"/>
<path d="M64.8974 34.8753C64.8931 34.878 64.8888 34.8806 64.8844 34.8833V34.8753H64.8974ZM64.8974 34.8753V33.9556H64.8844V34.67V34.8543L64.8974 34.8753ZM61.9188 34.2365C61.8774 34.1735 61.8419 34.1076 61.8127 34.0393C61.661 33.6381 61.661 33.2056 61.8127 32.8045L61.9188 34.2365ZM61.9188 34.2365C61.8686 34.1768 61.8251 34.1142 61.7883 34.0498C61.7881 34.0494 61.7879 34.0491 61.7877 34.0488C61.7713 34.0199 61.7563 33.9907 61.7426 33.9612C61.6646 33.7809 61.6271 33.5923 61.6298 33.4042L61.63 33.4042L61.6298 33.3902C61.6273 33.1983 61.6645 33.0059 61.7415 32.8216L61.9188 34.2365ZM64.5145 32.0904L64.5042 32.0711L64.5145 32.0904ZM64.5145 32.0904L64.5245 32.1093M64.5145 32.0904L64.5245 32.1093M64.5245 32.1093L64.5274 32.1148L64.5245 32.1093ZM64.5245 32.1093L64.5245 32.1127L64.5248 32.1266L64.5271 32.2794L64.5233 32.0297L64.5239 32.074L64.5245 32.1093ZM63.6845 33.7401L63.689 33.726L63.6845 33.7401ZM63.6845 33.7401L63.6831 33.7446L63.6845 33.7401ZM64.3974 33.9556V34.5756C64.3931 34.5776 64.3888 34.5795 64.3844 34.5814V34.3369V33.9556H64.3974ZM63.5793 33.7401V33.7464C63.5792 33.7443 63.5792 33.7422 63.5793 33.7401Z" fill="#AFB1B8" stroke="black"/>
<mask id="path-13-inside-3_1_836" fill="white">
<path d="M68.7362 34.8136H70.5911V35.2359H68.1689V31.5316H68.7498L68.7362 34.8136Z"/>
</mask>
<path d="M68.7362 34.8136H70.5911V35.2359H68.1689V31.5316H68.7498L68.7362 34.8136Z" fill="#AFB1B8"/>
<path d="M68.7362 34.8136L67.7362 34.8094L67.7321 35.8136H68.7362V34.8136ZM70.5911 34.8136H71.5911V33.8136H70.5911V34.8136ZM70.5911 35.2359V36.2359H71.5911V35.2359H70.5911ZM68.1689 35.2359H67.1689V36.2359H68.1689V35.2359ZM68.1689 31.5316V30.5316H67.1689V31.5316H68.1689ZM68.7498 31.5316L69.7498 31.5358L69.754 30.5316H68.7498V31.5316ZM68.7362 35.8136H70.5911V33.8136H68.7362V35.8136ZM69.5911 34.8136V35.2359H71.5911V34.8136H69.5911ZM70.5911 34.2359H68.1689V36.2359H70.5911V34.2359ZM69.1689 35.2359V31.5316H67.1689V35.2359H69.1689ZM68.1689 32.5316H68.7498V30.5316H68.1689V32.5316ZM67.7498 31.5275L67.7362 34.8094L69.7362 34.8177L69.7498 31.5358L67.7498 31.5275Z" fill="black" mask="url(#path-13-inside-3_1_836)"/>
<mask id="path-15-inside-4_1_836" fill="white">
<path d="M72.5208 35.2359H71.9398V31.5316H72.5208V35.2359Z"/>
</mask>
<path d="M72.5208 35.2359H71.9398V31.5316H72.5208V35.2359Z" fill="#AFB1B8"/>
<path d="M72.5208 35.2359V36.2359H73.5208V35.2359H72.5208ZM71.9398 35.2359H70.9398V36.2359H71.9398V35.2359ZM71.9398 31.5316V30.5316H70.9398V31.5316H71.9398ZM72.5208 31.5316H73.5208V30.5316H72.5208V31.5316ZM72.5208 34.2359H71.9398V36.2359H72.5208V34.2359ZM72.9398 35.2359V31.5316H70.9398V35.2359H72.9398ZM71.9398 32.5316H72.5208V30.5316H71.9398V32.5316ZM71.5208 31.5316V35.2359H73.5208V31.5316H71.5208Z" fill="black" mask="url(#path-15-inside-4_1_836)"/>
<path d="M77.2592 32.017V33.6636V32.017Z" fill="#AFB1B8" stroke="black"/>
<mask id="path-18-inside-5_1_836" fill="white">
<path d="M82.0364 31.5316V31.9393H79.9777V33.1624H81.6457V33.5554H79.9777V34.8195H82.0364V35.2272H79.3798V31.5316H82.0364Z"/>
</mask>
<path d="M82.0364 31.5316V31.9393H79.9777V33.1624H81.6457V33.5554H79.9777V34.8195H82.0364V35.2272H79.3798V31.5316H82.0364Z" fill="#AFB1B8"/>
<path d="M82.0364 31.5316H83.0364V30.5316H82.0364V31.5316ZM82.0364 31.9393V32.9393H83.0364V31.9393H82.0364ZM79.9777 31.9393V30.9393H78.9777V31.9393H79.9777ZM79.9777 33.1624H78.9777V34.1624H79.9777V33.1624ZM81.6457 33.1624H82.6457V32.1624H81.6457V33.1624ZM81.6457 33.5554V34.5554H82.6457V33.5554H81.6457ZM79.9777 33.5554V32.5554H78.9777V33.5554H79.9777ZM79.9777 34.8195H78.9777V35.8195H79.9777V34.8195ZM82.0364 34.8195H83.0364V33.8195H82.0364V34.8195ZM82.0364 35.2272V36.2272H83.0364V35.2272H82.0364ZM79.3798 35.2272H78.3798V36.2272H79.3798V35.2272ZM79.3798 31.5316V30.5316H78.3798V31.5316H79.3798ZM81.0364 31.5316V31.9393H83.0364V31.5316H81.0364ZM82.0364 30.9393H79.9777V32.9393H82.0364V30.9393ZM78.9777 31.9393V33.1624H80.9777V31.9393H78.9777ZM79.9777 34.1624H81.6457V32.1624H79.9777V34.1624ZM80.6457 33.1624V33.5554H82.6457V33.1624H80.6457ZM81.6457 32.5554H79.9777V34.5554H81.6457V32.5554ZM78.9777 33.5554V34.8195H80.9777V33.5554H78.9777ZM79.9777 35.8195H82.0364V33.8195H79.9777V35.8195ZM81.0364 34.8195V35.2272H83.0364V34.8195H81.0364ZM82.0364 34.2272H79.3798V36.2272H82.0364V34.2272ZM80.3798 35.2272V31.5316H78.3798V35.2272H80.3798ZM79.3798 32.5316H82.0364V30.5316H79.3798V32.5316Z" fill="black" mask="url(#path-18-inside-5_1_836)"/>
<path d="M21.2808 8.16988L20.6617 8.01813V8.65551V30.8164V31.2087L21.0427 31.3021L46.8378 37.6224L47.4568 37.7741V37.1368V14.9788V14.5866L47.0759 14.4932L21.2808 8.16988ZM48.1079 38.3911L20.0073 31.5006V7.4042L48.1079 14.2975V38.3911Z" fill="#AFB1B8" stroke="black"/>
<path d="M34.6039 25.958V50.0547L6.5 43.1584V19.0646L34.6039 25.958Z" fill="#AFB1B8" stroke="black"/>
<path d="M20.1088 7.88538L19.8583 7.82394L19.663 7.99246L8.83273 17.3394L8.09904 17.9726L9.04027 18.2035L34.5024 24.4505L34.753 24.512L34.9483 24.3433L45.7752 14.9934L46.5085 14.3602L45.5675 14.1294L20.1088 7.88538ZM19.6388 7.31379L47.5477 14.16L34.9724 25.0191L7.06024 18.1729L19.6388 7.31379Z" fill="#AFB1B8" stroke="black"/>
<path d="M37.2414 36.7568L47.5478 39.2862L37.2414 48.1864V36.7568Z" fill="#AFB1B8" stroke="black"/>
</svg>
