<svg width="106" height="60" viewBox="0 0 106 60" fill="none" xmlns="http://www.w3.org/2000/svg">
<mask id="path-1-inside-1_1_765" fill="white">
<path fill-rule="evenodd" clip-rule="evenodd" d="M50.1136 5.93452H49.977C49.7671 5.92181 49.5571 5.91672 49.3471 5.91163H49.3471H49.3269H48.8918C48.4946 5.91163 48.0898 5.92181 47.6876 5.94215C47.6573 5.93994 47.6269 5.93994 47.5966 5.94215C43.9522 6.14863 40.3817 7.05951 37.0805 8.62492L36.6479 8.83344V30.9746L37.6598 30.6313C38.5477 30.3261 39.4938 30.0515 40.4728 29.7972C43.1193 29.1178 45.8367 28.7567 48.568 28.7216V31.6306C48.2062 31.6332 47.8546 31.6434 47.503 31.6612H47.4195C45.3175 31.7765 43.2317 32.0967 41.1913 32.6173C38.6072 33.2643 36.1143 34.2357 33.7716 35.5086V7.11189C36.2047 5.69275 38.8253 4.62687 41.5556 3.94596C43.9527 3.32705 46.4169 3.00931 48.8918 3H49.3193C49.8303 3.01271 50.3287 3.0356 50.7967 3.0712C52.0297 3.15778 53.2528 3.35263 54.4521 3.65353V6.51685C53.2874 6.24551 52.1032 6.06695 50.9105 5.98284C50.8863 5.98079 50.8621 5.97872 50.8379 5.97666C50.5911 5.95561 50.344 5.93452 50.1136 5.93452ZM55.1528 8.86138C55.7877 8.9097 56.4455 8.93259 57.1108 8.93259C59.7125 8.92307 62.3031 8.59083 64.8239 7.94339C67.4068 7.29396 69.8986 6.32178 72.2411 5.04956V32.9402C69.8067 34.3585 67.1853 35.4243 64.4546 36.1061C62.0571 36.7227 59.5931 37.0395 57.1184 37.0496C55.2433 37.0647 53.3737 36.8443 51.553 36.3935V8.32229C51.983 8.42146 52.4257 8.51301 52.876 8.58929C53.6147 8.7139 54.3939 8.80544 55.1528 8.86138ZM69.3471 9.07753L68.3352 9.41828C67.4042 9.73106 66.4657 10.0108 65.5221 10.26C62.7749 10.966 59.9514 11.3281 57.1158 11.3382C56.4556 11.3382 55.8485 11.3204 55.2616 11.2822L54.4546 11.2288V31.3178V34.0057L55.1477 34.0667C55.7903 34.1227 56.4531 34.1506 57.1209 34.1506C59.3544 34.1412 61.5781 33.8533 63.7412 33.2937C65.5223 32.8469 67.2552 32.2243 68.9145 31.4348L69.3471 31.2263V9.07753Z"/>
</mask>
<path fill-rule="evenodd" clip-rule="evenodd" d="M50.1136 5.93452H49.977C49.7671 5.92181 49.5571 5.91672 49.3471 5.91163H49.3471H49.3269H48.8918C48.4946 5.91163 48.0898 5.92181 47.6876 5.94215C47.6573 5.93994 47.6269 5.93994 47.5966 5.94215C43.9522 6.14863 40.3817 7.05951 37.0805 8.62492L36.6479 8.83344V30.9746L37.6598 30.6313C38.5477 30.3261 39.4938 30.0515 40.4728 29.7972C43.1193 29.1178 45.8367 28.7567 48.568 28.7216V31.6306C48.2062 31.6332 47.8546 31.6434 47.503 31.6612H47.4195C45.3175 31.7765 43.2317 32.0967 41.1913 32.6173C38.6072 33.2643 36.1143 34.2357 33.7716 35.5086V7.11189C36.2047 5.69275 38.8253 4.62687 41.5556 3.94596C43.9527 3.32705 46.4169 3.00931 48.8918 3H49.3193C49.8303 3.01271 50.3287 3.0356 50.7967 3.0712C52.0297 3.15778 53.2528 3.35263 54.4521 3.65353V6.51685C53.2874 6.24551 52.1032 6.06695 50.9105 5.98284C50.8863 5.98079 50.8621 5.97872 50.8379 5.97666C50.5911 5.95561 50.344 5.93452 50.1136 5.93452ZM55.1528 8.86138C55.7877 8.9097 56.4455 8.93259 57.1108 8.93259C59.7125 8.92307 62.3031 8.59083 64.8239 7.94339C67.4068 7.29396 69.8986 6.32178 72.2411 5.04956V32.9402C69.8067 34.3585 67.1853 35.4243 64.4546 36.1061C62.0571 36.7227 59.5931 37.0395 57.1184 37.0496C55.2433 37.0647 53.3737 36.8443 51.553 36.3935V8.32229C51.983 8.42146 52.4257 8.51301 52.876 8.58929C53.6147 8.7139 54.3939 8.80544 55.1528 8.86138ZM69.3471 9.07753L68.3352 9.41828C67.4042 9.73106 66.4657 10.0108 65.5221 10.26C62.7749 10.966 59.9514 11.3281 57.1158 11.3382C56.4556 11.3382 55.8485 11.3204 55.2616 11.2822L54.4546 11.2288V31.3178V34.0057L55.1477 34.0667C55.7903 34.1227 56.4531 34.1506 57.1209 34.1506C59.3544 34.1412 61.5781 33.8533 63.7412 33.2937C65.5223 32.8469 67.2552 32.2243 68.9145 31.4348L69.3471 31.2263V9.07753Z" fill="#AFB1B8"/>
<path d="M49.977 5.93452L49.9166 6.93269L49.9468 6.93452H49.977V5.93452ZM49.3471 5.91163L49.3714 4.91193L49.3592 4.91163H49.3471V5.91163ZM47.6876 5.94215L47.615 6.93951L47.6765 6.94399L47.7381 6.94087L47.6876 5.94215ZM47.5966 5.94215L47.6531 6.94055L47.6612 6.94009L47.6692 6.93951L47.5966 5.94215ZM37.0805 8.62492L36.652 7.72134L36.6463 7.72411L37.0805 8.62492ZM36.6479 8.83344L36.2137 7.93263L35.6479 8.20536V8.83344H36.6479ZM36.6479 30.9746H35.6479V32.3698L36.9692 31.9216L36.6479 30.9746ZM37.6598 30.6313L37.9811 31.5783L37.9848 31.577L37.6598 30.6313ZM40.4728 29.7972L40.2242 28.8286L40.2214 28.8293L40.4728 29.7972ZM48.568 28.7216H49.568V27.7086L48.5551 27.7216L48.568 28.7216ZM48.568 31.6306L48.575 32.6306L49.568 32.6236V31.6306H48.568ZM47.503 31.6612V32.6612H47.5282L47.5535 32.6599L47.503 31.6612ZM47.4195 31.6612V30.6612H47.3921L47.3647 30.6627L47.4195 31.6612ZM41.1913 32.6173L41.4342 33.5874L41.4385 33.5863L41.1913 32.6173ZM33.7716 35.5086H32.7716V37.19L34.249 36.3873L33.7716 35.5086ZM33.7716 7.11189L33.2678 6.24808L32.7716 6.53749V7.11189H33.7716ZM41.5556 3.94596L41.7976 4.91628L41.8056 4.91421L41.5556 3.94596ZM48.8918 3V1.99999L48.888 2.00001L48.8918 3ZM49.3193 3L49.3442 2.00031L49.3317 2H49.3193V3ZM50.7967 3.0712L50.7208 4.06834L50.7266 4.06875L50.7967 3.0712ZM54.4521 3.65353H55.4521V2.87344L54.6955 2.68359L54.4521 3.65353ZM54.4521 6.51685L54.2252 7.49077L55.4521 7.77659V6.51685H54.4521ZM50.9105 5.98284L50.8262 6.97938L50.8401 6.98036L50.9105 5.98284ZM50.8379 5.97666L50.7528 6.97304L50.7529 6.97304L50.8379 5.97666ZM57.1108 8.93259V9.93259L57.1144 9.93258L57.1108 8.93259ZM55.1528 8.86138L55.2286 7.86426L55.2263 7.86409L55.1528 8.86138ZM64.8239 7.94339L64.5801 6.97357L64.5751 6.97483L64.8239 7.94339ZM72.2411 5.04956H73.2411V3.36848L71.7638 4.1708L72.2411 5.04956ZM72.2411 32.9402L72.7445 33.8043L73.2411 33.5149V32.9402H72.2411ZM64.4546 36.1061L64.2123 35.1359L64.2055 35.1376L64.4546 36.1061ZM57.1184 37.0496L57.1143 36.0496L57.1103 36.0496L57.1184 37.0496ZM51.553 36.3935H50.553V37.1761L51.3126 37.3642L51.553 36.3935ZM51.553 8.32229L51.7777 7.34786L50.553 7.06543V8.32229H51.553ZM52.876 8.58929L52.709 9.57524L52.7097 9.57536L52.876 8.58929ZM68.3352 9.41828L68.6537 10.3662L68.6543 10.366L68.3352 9.41828ZM69.3471 9.07753H70.3471V7.68561L69.0279 8.12982L69.3471 9.07753ZM65.5221 10.26L65.771 11.2285L65.7775 11.2268L65.5221 10.26ZM57.1158 11.3382V12.3382L57.1194 12.3382L57.1158 11.3382ZM55.2616 11.2822L55.1955 12.2801L55.1967 12.2801L55.2616 11.2822ZM54.4546 11.2288L54.5206 10.231L53.4546 10.1605V11.2288H54.4546ZM54.4546 34.0057H53.4546V34.9215L54.3669 35.0018L54.4546 34.0057ZM55.1477 34.0667L55.06 35.0629L55.061 35.063L55.1477 34.0667ZM57.1209 34.1506V35.1506L57.1251 35.1506L57.1209 34.1506ZM63.7412 33.2937L63.4979 32.3237L63.4907 32.3256L63.7412 33.2937ZM68.9145 31.4348L69.3441 32.3378L69.3487 32.3356L68.9145 31.4348ZM69.3471 31.2263L69.7813 32.1271L70.3471 31.8544V31.2263H69.3471ZM49.977 6.93452H50.1136V4.93452H49.977V6.93452ZM49.3229 6.91134C49.5359 6.9165 49.7277 6.92126 49.9166 6.93269L50.0375 4.93635C49.8064 4.92236 49.5783 4.91694 49.3714 4.91193L49.3229 6.91134ZM49.3471 6.91163H49.3471V4.91163H49.3471V6.91163ZM49.3269 6.91163H49.3471V4.91163H49.3269V6.91163ZM48.8918 6.91163H49.3269V4.91163H48.8918V6.91163ZM47.7381 6.94087C48.1236 6.92138 48.5115 6.91163 48.8918 6.91163V4.91163C48.4777 4.91163 48.0561 4.92223 47.6371 4.94343L47.7381 6.94087ZM47.6692 6.93951C47.6512 6.94082 47.633 6.94082 47.615 6.93951L47.7603 4.94479C47.6816 4.93906 47.6026 4.93906 47.5239 4.94479L47.6692 6.93951ZM37.5089 9.52848C40.6936 8.01835 44.1379 7.13972 47.6531 6.94055L47.54 4.94375C43.7666 5.15754 40.0698 6.10068 36.652 7.72136L37.5089 9.52848ZM37.0821 9.73425L37.5147 9.52573L36.6463 7.72411L36.2137 7.93263L37.0821 9.73425ZM37.6479 30.9746V8.83344H35.6479V30.9746H37.6479ZM37.3385 29.6843L36.3266 30.0276L36.9692 31.9216L37.9811 31.5783L37.3385 29.6843ZM40.2214 28.8293C39.2256 29.088 38.2537 29.3698 37.3348 29.6856L37.9848 31.577C38.8418 31.2825 39.762 31.015 40.7243 30.7651L40.2214 28.8293ZM48.5551 27.7216C45.7443 27.7578 42.9477 28.1294 40.2242 28.8286L40.7215 30.7658C43.291 30.1062 45.9292 29.7556 48.5808 29.7215L48.5551 27.7216ZM49.568 31.6306V28.7216H47.568V31.6306H49.568ZM47.5535 32.6599C47.8905 32.6428 48.2276 32.6331 48.575 32.6306L48.5609 30.6307C48.1848 30.6333 47.8186 30.6439 47.4524 30.6624L47.5535 32.6599ZM47.4195 32.6612H47.503V30.6612H47.4195V32.6612ZM41.4385 33.5863C43.4159 33.0817 45.4373 32.7714 47.4742 32.6597L47.3647 30.6627C45.1978 30.7815 43.0475 31.1117 40.9441 31.6483L41.4385 33.5863ZM34.249 36.3873C36.5178 35.1545 38.9318 34.2138 41.4342 33.5874L40.9484 31.6472C38.2825 32.3147 35.7109 33.3168 33.2942 34.6299L34.249 36.3873ZM32.7716 7.11189V35.5086H34.7716V7.11189H32.7716ZM41.3136 2.97568C38.4914 3.67953 35.7826 4.78128 33.2678 6.24808L34.2754 7.97569C36.6268 6.60422 39.1593 5.57422 41.7976 4.91624L41.3136 2.97568ZM48.888 2.00001C46.33 2.00963 43.7831 2.33804 41.3056 2.97772L41.8056 4.91421C44.1223 4.31606 46.5037 4.00899 48.8955 3.99999L48.888 2.00001ZM49.3193 2H48.8918V4H49.3193V2ZM50.8725 2.07408C50.384 2.03692 49.8682 2.01335 49.3442 2.00031L49.2944 3.99969C49.7924 4.01208 50.2733 4.03428 50.7208 4.06832L50.8725 2.07408ZM54.6955 2.68359C53.4394 2.36843 52.1582 2.16434 50.8667 2.07366L50.7266 4.06875C51.9012 4.15121 53.0663 4.33682 54.2087 4.62346L54.6955 2.68359ZM55.4521 6.51685V3.65353H53.4521V6.51685H55.4521ZM50.8401 6.98036C51.9801 7.06075 53.1119 7.23142 54.2252 7.49077L54.679 5.54293C53.4628 5.2596 52.2262 5.07315 50.9808 4.98531L50.8401 6.98036ZM50.7529 6.97304C50.777 6.9751 50.8016 6.9772 50.8262 6.97928L50.9947 4.98639C50.971 4.98438 50.9472 4.98235 50.9229 4.98028L50.7529 6.97304ZM50.1136 6.93452C50.2936 6.93452 50.4967 6.95118 50.7528 6.97304L50.9229 4.98028C50.6856 4.96003 50.3944 4.93452 50.1136 4.93452V6.93452ZM57.1108 7.93259C56.468 7.93259 55.8358 7.91046 55.2286 7.86427L55.0769 9.8585C55.7397 9.90894 56.4229 9.93259 57.1108 9.93259V7.93259ZM64.5751 6.97483C62.1344 7.60171 59.6261 7.92338 57.1071 7.93259L57.1144 9.93258C59.7989 9.92277 62.4718 9.57996 65.0727 8.91196L64.5751 6.97483ZM71.7638 4.1708C69.495 5.40304 67.0816 6.34461 64.5801 6.97358L65.0678 8.91321C67.7321 8.24331 70.3023 7.24052 72.7183 5.92832L71.7638 4.1708ZM73.2411 32.9402V5.04956H71.2411V32.9402H73.2411ZM64.6968 37.0764C67.5193 36.3716 70.2285 35.27 72.7445 33.8043L71.7377 32.0762C69.3848 33.447 66.8514 34.477 64.2123 35.1359L64.6968 37.0764ZM57.1224 38.0495C59.6798 38.0392 62.2261 37.7118 64.7036 37.0746L64.2055 35.1376C61.888 35.7336 59.5063 36.0399 57.1143 36.0496L57.1224 38.0495ZM51.3126 37.3642C53.2146 37.8351 55.1676 38.0653 57.1264 38.0495L57.1103 36.0496C55.319 36.064 53.5328 35.8535 51.7933 35.4228L51.3126 37.3642ZM50.553 8.32229V36.3935H52.553V8.32229H50.553ZM53.0431 7.60334C52.616 7.53098 52.1929 7.44361 51.7777 7.34786L51.3283 9.29671C51.7732 9.39931 52.2355 9.49503 52.709 9.57524L53.0431 7.60334ZM55.2263 7.86409C54.4959 7.81025 53.7478 7.72222 53.0424 7.60322L52.7097 9.57536C53.4816 9.70557 54.2918 9.80063 55.0793 9.85868L55.2263 7.86409ZM68.6543 10.366L69.6662 10.0252L69.0279 8.12982L68.016 8.47057L68.6543 10.366ZM65.7775 11.2268C66.7414 10.9723 67.701 10.6863 68.6537 10.3662L68.0167 8.47035C67.1075 8.77584 66.19 9.0493 65.2668 9.29314L65.7775 11.2268ZM57.1194 12.3382C60.0378 12.3278 62.9436 11.9551 65.771 11.2285L65.2732 9.29145C62.6061 9.97683 59.8651 10.3284 57.1123 10.3382L57.1194 12.3382ZM55.1967 12.2801C55.8084 12.3199 56.4374 12.3382 57.1158 12.3382V10.3382C56.4738 10.3382 55.8885 10.3209 55.3264 10.2843L55.1967 12.2801ZM54.3885 12.2267L55.1955 12.2801L55.3276 10.2844L54.5206 10.231L54.3885 12.2267ZM55.4546 31.3178V11.2288H53.4546V31.3178H55.4546ZM55.4546 34.0057V31.3178H53.4546V34.0057H55.4546ZM55.2354 33.0706L54.5423 33.0095L54.3669 35.0018L55.06 35.0629L55.2354 33.0706ZM57.1209 33.1506C56.4807 33.1506 55.8468 33.1238 55.2345 33.0705L55.061 35.063C55.7337 35.1215 56.4255 35.1506 57.1209 35.1506V33.1506ZM63.4907 32.3256C61.4081 32.8644 59.2671 33.1415 57.1167 33.1506L57.1251 35.1506C59.4418 35.1408 61.7482 34.8422 63.9917 34.2618L63.4907 32.3256ZM68.4848 30.5318C66.8853 31.2929 65.2148 31.8931 63.4979 32.3237L63.9845 34.2636C65.8298 33.8008 67.6251 33.1557 69.3441 32.3378L68.4848 30.5318ZM68.9128 30.3255L68.4803 30.534L69.3487 32.3356L69.7813 32.1271L68.9128 30.3255ZM68.3471 9.07753V31.2263H70.3471V9.07753H68.3471Z" fill="black" mask="url(#path-1-inside-1_1_765)"/>
<mask id="path-3-inside-2_1_765" fill="white">
<path d="M35.7371 45.2124C35.5917 45.0615 35.4163 44.943 35.2224 44.8646C35.0284 44.7862 34.8203 44.7496 34.6114 44.7572C34.3888 44.7542 34.1678 44.7957 33.9613 44.8793C33.7719 44.9547 33.5998 45.068 33.4553 45.2124C33.3125 45.3572 33.2013 45.5304 33.129 45.721C33.0497 45.9207 33.0101 46.1341 33.0126 46.3491V50.1431C33.0036 50.4104 33.0546 50.6764 33.1619 50.9212C33.2514 51.1156 33.3807 51.2889 33.5413 51.4298C33.693 51.5575 33.871 51.6495 34.0625 51.6994C34.2469 51.7512 34.4376 51.7777 34.6291 51.7782C34.8404 51.7803 35.0495 51.7351 35.2413 51.646C35.4309 51.563 35.6028 51.4438 35.7473 51.295C35.8881 51.1476 36.0005 50.9752 36.0786 50.7864C36.1597 50.5951 36.201 50.3892 36.2001 50.1812V49.7566H35.2084V50.0948C35.2114 50.2103 35.1916 50.3252 35.1502 50.433C35.1179 50.5137 35.0688 50.5866 35.006 50.6466C34.9446 50.6962 34.8742 50.7334 34.7986 50.7559C34.7316 50.7782 34.6617 50.7902 34.5912 50.7915C34.5026 50.8018 34.413 50.7885 34.3312 50.7527C34.2495 50.717 34.1786 50.6602 34.1257 50.5881C34.0322 50.4356 33.9864 50.2585 33.9942 50.0795V46.5423C33.988 46.3462 34.0297 46.1515 34.1156 45.9753C34.1671 45.8952 34.2399 45.8313 34.3258 45.7908C34.4117 45.7503 34.5071 45.7349 34.6013 45.7464C34.6868 45.7434 34.7717 45.7612 34.8488 45.7984C34.9259 45.8356 34.9929 45.8911 35.044 45.96C35.155 46.1057 35.213 46.2852 35.2084 46.4686V46.7966H36.19V46.4101C36.1919 46.1831 36.1507 45.9578 36.0685 45.7464C35.9953 45.5476 35.8825 45.3659 35.7371 45.2124Z"/>
</mask>
<path d="M35.7371 45.2124C35.5917 45.0615 35.4163 44.943 35.2224 44.8646C35.0284 44.7862 34.8203 44.7496 34.6114 44.7572C34.3888 44.7542 34.1678 44.7957 33.9613 44.8793C33.7719 44.9547 33.5998 45.068 33.4553 45.2124C33.3125 45.3572 33.2013 45.5304 33.129 45.721C33.0497 45.9207 33.0101 46.1341 33.0126 46.3491V50.1431C33.0036 50.4104 33.0546 50.6764 33.1619 50.9212C33.2514 51.1156 33.3807 51.2889 33.5413 51.4298C33.693 51.5575 33.871 51.6495 34.0625 51.6994C34.2469 51.7512 34.4376 51.7777 34.6291 51.7782C34.8404 51.7803 35.0495 51.7351 35.2413 51.646C35.4309 51.563 35.6028 51.4438 35.7473 51.295C35.8881 51.1476 36.0005 50.9752 36.0786 50.7864C36.1597 50.5951 36.201 50.3892 36.2001 50.1812V49.7566H35.2084V50.0948C35.2114 50.2103 35.1916 50.3252 35.1502 50.433C35.1179 50.5137 35.0688 50.5866 35.006 50.6466C34.9446 50.6962 34.8742 50.7334 34.7986 50.7559C34.7316 50.7782 34.6617 50.7902 34.5912 50.7915C34.5026 50.8018 34.413 50.7885 34.3312 50.7527C34.2495 50.717 34.1786 50.6602 34.1257 50.5881C34.0322 50.4356 33.9864 50.2585 33.9942 50.0795V46.5423C33.988 46.3462 34.0297 46.1515 34.1156 45.9753C34.1671 45.8952 34.2399 45.8313 34.3258 45.7908C34.4117 45.7503 34.5071 45.7349 34.6013 45.7464C34.6868 45.7434 34.7717 45.7612 34.8488 45.7984C34.9259 45.8356 34.9929 45.8911 35.044 45.96C35.155 46.1057 35.213 46.2852 35.2084 46.4686V46.7966H36.19V46.4101C36.1919 46.1831 36.1507 45.9578 36.0685 45.7464C35.9953 45.5476 35.8825 45.3659 35.7371 45.2124Z" fill="#AFB1B8"/>
<path d="M34.6114 44.7572L34.5981 45.7571L34.6229 45.7574L34.6477 45.7565L34.6114 44.7572ZM33.9613 44.8793L34.3313 45.8083L34.3362 45.8063L33.9613 44.8793ZM33.4553 45.2124L32.7484 44.5051L32.7435 44.51L33.4553 45.2124ZM33.129 45.721L34.0584 46.0901L34.0612 46.0829L34.0639 46.0757L33.129 45.721ZM33.0126 46.3491H34.0127L34.0126 46.3375L33.0126 46.3491ZM33.0126 50.1431L34.012 50.1769L34.0126 50.16V50.1431H33.0126ZM33.1619 50.9212L32.246 51.3226L32.2497 51.3311L32.2536 51.3396L33.1619 50.9212ZM33.5413 51.4298L32.8819 52.1816L32.8895 52.1883L32.8972 52.1948L33.5413 51.4298ZM34.0625 51.6994L34.3331 50.7367L34.3237 50.734L34.3142 50.7315L34.0625 51.6994ZM34.6291 51.7782L34.6391 50.7782L34.6315 50.7782L34.6291 51.7782ZM35.2413 51.646L34.8405 50.7298L34.83 50.7344L34.8196 50.7392L35.2413 51.646ZM35.7473 51.295L36.4646 51.9917L36.4701 51.986L35.7473 51.295ZM36.0786 50.7864L35.1579 50.3962L35.1547 50.4039L36.0786 50.7864ZM36.2001 50.1812H35.2001L35.2001 50.1859L36.2001 50.1812ZM36.2001 49.7566H37.2001V48.7566H36.2001V49.7566ZM35.2084 49.7566V48.7566H34.2084V49.7566H35.2084ZM35.2084 50.0948H34.2084V50.1075L34.2087 50.1203L35.2084 50.0948ZM35.1502 50.433L36.0788 50.8043L36.0839 50.7912L35.1502 50.433ZM35.006 50.6466L35.6345 51.4244L35.6671 51.3981L35.6973 51.3692L35.006 50.6466ZM34.7986 50.7559L34.5124 49.7978L34.4975 49.8022L34.4827 49.8071L34.7986 50.7559ZM34.5912 50.7915L34.5727 49.7917L34.5239 49.7926L34.4755 49.7982L34.5912 50.7915ZM34.1257 50.5881L33.2732 51.1108L33.2948 51.1461L33.3193 51.1795L34.1257 50.5881ZM33.9942 50.0795L34.9932 50.1228L34.9942 50.1012V50.0795H33.9942ZM33.9942 46.5423H34.9942V46.5266L34.9937 46.511L33.9942 46.5423ZM34.1156 45.9753L33.2744 45.4345L33.2425 45.4841L33.2167 45.5372L34.1156 45.9753ZM34.6013 45.7464L34.4806 46.7391L34.5585 46.7486L34.6369 46.7458L34.6013 45.7464ZM35.044 45.96L34.2405 46.5555L34.2485 46.5659L35.044 45.96ZM35.2084 46.4686L34.2087 46.4437L34.2084 46.4562V46.4686H35.2084ZM35.2084 46.7966H34.2084V47.7966H35.2084V46.7966ZM36.19 46.7966V47.7966H37.19V46.7966H36.19ZM36.19 46.4101L35.19 46.4013V46.4101H36.19ZM36.0685 45.7464L35.1302 46.0922L35.1333 46.1005L35.1365 46.1088L36.0685 45.7464ZM36.457 44.5183C36.2144 44.2666 35.9215 44.0686 35.5972 43.9375L34.8475 45.7917C34.9111 45.8174 34.969 45.8564 35.0172 45.9065L36.457 44.5183ZM35.5972 43.9375C35.2729 43.8064 34.9247 43.7452 34.5751 43.7579L34.6477 45.7565C34.7159 45.7541 34.7839 45.766 34.8475 45.7917L35.5972 43.9375ZM34.6247 43.7573C34.269 43.7526 33.9161 43.8189 33.5863 43.9522L34.3362 45.8063C34.4195 45.7726 34.5086 45.7559 34.5981 45.7571L34.6247 43.7573ZM33.5912 43.9502C33.2754 44.076 32.9887 44.2649 32.7484 44.5051L34.1622 45.9197C34.2108 45.8712 34.2684 45.8334 34.3313 45.8083L33.5912 43.9502ZM32.7435 44.51C32.5027 44.7541 32.3156 45.0458 32.194 45.3662L34.0639 46.0757C34.087 46.0151 34.1222 45.9603 34.1671 45.9147L32.7435 44.51ZM32.1996 45.3519C32.0722 45.6727 32.0087 46.0154 32.0127 46.3606L34.0126 46.3375C34.0116 46.2527 34.0272 46.1686 34.0584 46.0901L32.1996 45.3519ZM32.0126 46.3491V50.1431H34.0126V46.3491H32.0126ZM32.0132 50.1093C31.9991 50.526 32.0786 50.9407 32.246 51.3226L34.0778 50.5198C34.0306 50.4121 34.0081 50.2949 34.012 50.1769L32.0132 50.1093ZM32.2536 51.3396C32.4017 51.6611 32.6157 51.9481 32.8819 52.1816L34.2007 50.678C34.1458 50.6298 34.1012 50.5702 34.0702 50.5028L32.2536 51.3396ZM32.8972 52.1948C33.1627 52.4183 33.4747 52.5798 33.8107 52.6672L34.3142 50.7315C34.2672 50.7193 34.2232 50.6967 34.1854 50.6649L32.8972 52.1948ZM33.7918 52.662C34.0636 52.7384 34.3444 52.7775 34.6268 52.7782L34.6315 50.7782C34.5307 50.7779 34.4303 50.764 34.3331 50.7367L33.7918 52.662ZM34.6191 52.7781C34.9796 52.7817 35.3362 52.7047 35.663 52.5527L34.8196 50.7392C34.7629 50.7656 34.7012 50.7789 34.6391 50.7782L34.6191 52.7781ZM35.6422 52.5621C35.9508 52.4271 36.23 52.2333 36.4646 51.9917L35.0299 50.5983C34.9755 50.6543 34.9111 50.6989 34.8405 50.7298L35.6422 52.5621ZM36.4701 51.986C36.6967 51.7489 36.8772 51.4718 37.0026 51.1689L35.1547 50.4039C35.1238 50.4785 35.0796 50.5463 35.0244 50.6041L36.4701 51.986ZM36.9994 51.1767C37.1334 50.8604 37.2017 50.52 37.2001 50.1765L35.2001 50.1859C35.2004 50.2583 35.186 50.3299 35.1579 50.3962L36.9994 51.1767ZM37.2001 50.1812V49.7566H35.2001V50.1812H37.2001ZM36.2001 48.7566H35.2084V50.7566H36.2001V48.7566ZM34.2084 49.7566V50.0948H36.2084V49.7566H34.2084ZM34.2087 50.1203C34.2084 50.1049 34.211 50.0894 34.2166 50.0747L36.0839 50.7912C36.1722 50.561 36.2144 50.3157 36.2081 50.0693L34.2087 50.1203ZM34.2217 50.0617C34.2424 50.01 34.274 49.963 34.3148 49.924L35.6973 51.3692C35.8635 51.2102 35.9935 51.0175 36.0788 50.8043L34.2217 50.0617ZM34.3775 49.8688C34.4172 49.8367 34.463 49.8125 34.5124 49.7978L35.0848 51.7141C35.2853 51.6542 35.472 51.5557 35.6345 51.4244L34.3775 49.8688ZM34.4827 49.8071C34.5117 49.7975 34.542 49.7923 34.5727 49.7917L34.6096 51.7914C34.7814 51.7882 34.9516 51.759 35.1145 51.7047L34.4827 49.8071ZM34.4755 49.7982C34.5629 49.7881 34.6514 49.8013 34.7317 49.8364L33.9307 51.669C34.1746 51.7756 34.4423 51.8156 34.7068 51.7848L34.4755 49.7982ZM34.7317 49.8364C34.812 49.8715 34.881 49.927 34.9321 49.9967L33.3193 51.1795C33.4762 51.3934 33.687 51.5625 33.9307 51.669L34.7317 49.8364ZM34.9782 50.0654C34.989 50.0831 34.9941 50.103 34.9932 50.1228L32.9951 50.0362C32.9787 50.4139 33.0754 50.7882 33.2732 51.1108L34.9782 50.0654ZM34.9942 50.0795V46.5423H32.9942V50.0795H34.9942ZM34.9937 46.511C34.9926 46.477 34.9998 46.4435 35.0145 46.4134L33.2167 45.5372C33.0595 45.8595 32.9834 46.2154 32.9946 46.5737L34.9937 46.511ZM34.9568 46.516C34.9071 46.5933 34.8363 46.6557 34.752 46.6954L33.8995 44.8862C33.6435 45.0068 33.427 45.1971 33.2744 45.4345L34.9568 46.516ZM34.752 46.6954C34.6676 46.7352 34.5735 46.7504 34.4806 46.7391L34.722 44.7537C34.4407 44.7195 34.1557 44.7655 33.8995 44.8862L34.752 46.6954ZM34.6369 46.7458C34.5598 46.7485 34.4834 46.7324 34.4142 46.699L35.2834 44.8978C35.06 44.79 34.8137 44.7382 34.5657 44.747L34.6369 46.7458ZM34.4142 46.699C34.3451 46.6657 34.2857 46.6163 34.2406 46.5555L35.8474 45.3645C35.7001 45.1658 35.5067 45.0055 35.2834 44.8978L34.4142 46.699ZM34.2485 46.5659C34.2213 46.5303 34.2076 46.4872 34.2087 46.4437L36.2081 46.4934C36.2183 46.0831 36.0886 45.6811 35.8395 45.3541L34.2485 46.5659ZM34.2084 46.4686V46.7966H36.2084V46.4686H34.2084ZM35.2084 47.7966H36.19V45.7966H35.2084V47.7966ZM37.19 46.7966V46.4101H35.19V46.7966H37.19ZM37.1899 46.4189C37.193 46.0651 37.1288 45.7138 37.0006 45.384L35.1365 46.1088C35.1727 46.2018 35.1909 46.3011 35.19 46.4013L37.1899 46.4189ZM37.0068 45.4006C36.8868 45.075 36.702 44.7769 36.4633 44.5248L35.011 45.8999C35.0631 45.9549 35.1037 46.0203 35.1302 46.0922L37.0068 45.4006Z" fill="black" mask="url(#path-3-inside-2_1_765)"/>
<path d="M39.8379 50.0744H39.3563V50.0877L39.3562 50.0877C39.3521 50.2384 39.3753 50.3881 39.4241 50.5299C39.434 50.5588 39.4451 50.5874 39.4572 50.6157C39.5158 50.7417 39.6003 50.8535 39.705 50.9438C39.7065 50.945 39.7079 50.9462 39.7093 50.9474L39.7174 50.9544L39.7253 50.9616C39.7266 50.9629 39.728 50.9642 39.7294 50.9654C39.8313 51.0591 39.9504 51.1315 40.0799 51.1787L40.0814 51.1792C40.216 51.2288 40.358 51.2545 40.5013 51.2552L41.166 50.0744C41.1743 50.1714 41.1609 50.269 41.1268 50.3601C41.0926 50.4512 41.0386 50.5334 40.9687 50.6008C40.8377 50.7106 40.6725 50.7708 40.5019 50.7708C40.3313 50.7708 40.1662 50.7106 40.0352 50.6008C39.9652 50.5334 39.9112 50.4512 39.8771 50.3601C39.8429 50.269 39.8295 50.1714 39.8379 50.0744ZM39.8379 50.0744L39.3563 50.0329M39.8379 50.0744V46.4355M39.3563 50.0329L40.9687 45.9091C40.8377 45.7993 40.6725 45.7391 40.5019 45.7391C40.3313 45.7391 40.1662 45.7993 40.0352 45.9091C39.9652 45.9764 39.9112 46.0587 39.8771 46.1498C39.8429 46.2409 39.8295 46.3385 39.8379 46.4355M39.3563 50.0329V46.477M39.3563 50.0329V46.477M39.8379 46.4355L39.3563 46.477M39.8379 46.4355H39.3564L39.3562 46.4258C39.3533 46.2742 39.3775 46.1237 39.4274 45.9812M39.3563 46.477L39.718 45.5421C39.7116 45.5479 39.7052 45.5538 39.699 45.5597C39.5975 45.6559 39.5158 45.7716 39.4589 45.9003C39.4475 45.9269 39.437 45.9539 39.4274 45.9812M39.4274 45.9812L39.4089 45.9743C39.419 45.9473 39.43 45.9209 39.4421 45.8948L39.0005 45.7006M39.4274 45.9812L39.4089 45.9743C39.3547 46.1187 39.3302 46.2724 39.3364 46.4262C39.3365 46.4293 39.3367 46.4324 39.3368 46.4355C39.3371 46.4416 39.3375 46.4478 39.3379 46.4539V50.0559C39.3375 50.0621 39.3371 50.0682 39.3368 50.0744C39.3366 50.0787 39.3364 50.0829 39.3363 50.0872C39.3305 50.2398 39.3551 50.3923 39.4089 50.5356C39.4192 50.5631 39.4305 50.5901 39.4428 50.6166L39.0005 50.8195M39.0005 50.8195C38.8987 50.5847 38.8495 50.3304 38.8563 50.0744V46.4355C38.8515 46.183 38.9006 45.9323 39.0005 45.7006M39.0005 50.8195C39.0903 51.0151 39.2215 51.1887 39.3851 51.328C39.5367 51.4688 39.7147 51.5777 39.9087 51.6485C40.0984 51.7183 40.2987 51.7544 40.5007 51.7553M39.0005 50.8195L39.4471 50.6258C39.5066 50.7509 39.5882 50.8645 39.6885 50.961L39.6935 50.9659L39.7008 50.9729L39.7087 50.9795L39.7139 50.9839C39.822 51.0746 39.9441 51.1453 40.0744 51.1938C40.0749 51.1939 40.0754 51.1941 40.0759 51.1943C40.2105 51.2442 40.3539 51.2705 40.4997 51.2708L40.5007 51.7553M39.0005 45.7006L39.4436 45.8916L39.3851 45.1691C39.2208 45.3168 39.0897 45.498 39.0005 45.7006ZM40.5007 51.7553L40.5027 51.2708L41.6289 51.328C41.4719 51.468 41.29 51.5767 41.0926 51.6485C40.9031 51.7187 40.7027 51.7549 40.5007 51.7553Z" fill="#AFB1B8" stroke="black"/>
<path d="M48.3655 47.0087H48.1874L48.7705 45.3107H48.8673V47.0087H48.3832H48.3655ZM46.9366 48.9572H47.1437H47.1614H47.3644L47.1496 49.6121L46.9366 48.9572ZM45.5253 45.3107L46.1131 47.0087H45.9395H45.9218H45.4377V45.3107H45.5253Z" fill="#AFB1B8" stroke="black"/>
<path d="M54.146 45.8251C54.2475 45.8834 54.3281 45.9724 54.3762 46.0794C54.4299 46.2004 54.4591 46.331 54.4622 46.4634L54.146 45.8251ZM54.146 45.8251C54.0075 45.7609 53.8557 45.7312 53.7033 45.7387M54.146 45.8251L53.7033 45.7387M53.7033 45.7387H53.6974H53.1974V46.2387V47.5807V48.0807L53.7033 45.7387Z" fill="#AFB1B8" stroke="black"/>
<path d="M59.208 45.3107L59.4278 46.284H59.2029H59.1852H58.9906L59.2051 45.3107H59.208Z" fill="#AFB1B8" stroke="black"/>
<path d="M65.9497 49.4607H66.4312V51.1994H66.3586L65.7289 49.4607H65.932H65.9497ZM64.4875 47.057H64.006V45.3107H64.0972L64.721 47.057H64.5078H64.4875Z" fill="#AFB1B8" stroke="black"/>
<path d="M71.1583 48.0494H71.3613L71.1654 48.6272L71.1482 48.6781L71.131 48.6272L70.935 48.0494H71.1381H71.1583Z" fill="#AFB1B8" stroke="black"/>
<mask id="path-11-inside-3_1_765" fill="white">
<path d="M33 53.6445H33.4731V54.9719H33.7943V53.6445H34.2649V53.3724H33V53.6445Z"/>
</mask>
<path d="M33 53.6445H33.4731V54.9719H33.7943V53.6445H34.2649V53.3724H33V53.6445Z" fill="#AFB1B8"/>
<path d="M33 53.6445H32V54.6445H33V53.6445ZM33.4731 53.6445H34.4731V52.6445H33.4731V53.6445ZM33.4731 54.9719H32.4731V55.9719H33.4731V54.9719ZM33.7943 54.9719V55.9719H34.7943V54.9719H33.7943ZM33.7943 53.6445V52.6445H32.7943V53.6445H33.7943ZM34.2649 53.6445V54.6445H35.2649V53.6445H34.2649ZM34.2649 53.3724H35.2649V52.3724H34.2649V53.3724ZM33 53.3724V52.3724H32V53.3724H33ZM33 54.6445H33.4731V52.6445H33V54.6445ZM32.4731 53.6445V54.9719H34.4731V53.6445H32.4731ZM33.4731 55.9719H33.7943V53.9719H33.4731V55.9719ZM34.7943 54.9719V53.6445H32.7943V54.9719H34.7943ZM33.7943 54.6445H34.2649V52.6445H33.7943V54.6445ZM35.2649 53.6445V53.3724H33.2649V53.6445H35.2649ZM34.2649 52.3724H33V54.3724H34.2649V52.3724ZM32 53.3724V53.6445H34V53.3724H32Z" fill="black" mask="url(#path-11-inside-3_1_765)"/>
<mask id="path-13-inside-4_1_765" fill="white">
<path d="M36.9767 53.3724L36.3569 54.9719H36.6984L36.83 54.6083H37.4675L37.6041 54.9719H37.9532L37.3182 53.3724H36.9767ZM36.9261 54.3387L37.1437 53.7462L37.3612 54.3387H36.9261Z"/>
</mask>
<path d="M36.9767 53.3724L36.3569 54.9719H36.6984L36.83 54.6083H37.4675L37.6041 54.9719H37.9532L37.3182 53.3724H36.9767ZM36.9261 54.3387L37.1437 53.7462L37.3612 54.3387H36.9261Z" fill="#AFB1B8"/>
<path d="M36.9767 53.3724V52.3724H36.2918L36.0443 53.0111L36.9767 53.3724ZM36.3569 54.9719L35.4245 54.6106L34.897 55.9719H36.3569V54.9719ZM36.6984 54.9719V55.9719H37.4001L37.6388 55.3121L36.6984 54.9719ZM36.83 54.6083V53.6083H36.1283L35.8896 54.2681L36.83 54.6083ZM37.4675 54.6083L38.4036 54.2566L38.1601 53.6083H37.4675V54.6083ZM37.6041 54.9719L36.668 55.3236L36.9115 55.9719H37.6041V54.9719ZM37.9532 54.9719V55.9719H39.4261L38.8826 54.603L37.9532 54.9719ZM37.3182 53.3724L38.2477 53.0035L37.9972 52.3724H37.3182V53.3724ZM36.9261 54.3387L35.9874 53.9941L35.4937 55.3387H36.9261V54.3387ZM37.1437 53.7462L38.0824 53.4016L37.1437 50.845L36.205 53.4016L37.1437 53.7462ZM37.3612 54.3387V55.3387H38.7937L38.3 53.9941L37.3612 54.3387ZM36.0443 53.0111L35.4245 54.6106L37.2894 55.3332L37.9092 53.7337L36.0443 53.0111ZM36.3569 55.9719H36.6984V53.9719H36.3569V55.9719ZM37.6388 55.3121L37.7704 54.9485L35.8896 54.2681L35.7581 54.6318L37.6388 55.3121ZM36.83 55.6083H37.4675V53.6083H36.83V55.6083ZM36.5314 54.96L36.668 55.3236L38.5402 54.6203L38.4036 54.2566L36.5314 54.96ZM37.6041 55.9719H37.9532V53.9719H37.6041V55.9719ZM38.8826 54.603L38.2477 53.0035L36.3888 53.7414L37.0237 55.3409L38.8826 54.603ZM37.3182 52.3724H36.9767V54.3724H37.3182V52.3724ZM37.8648 54.6834L38.0824 54.0909L36.205 53.4016L35.9874 53.9941L37.8648 54.6834ZM36.205 54.0909L36.4225 54.6834L38.3 53.9941L38.0824 53.4016L36.205 54.0909ZM37.3612 53.3387H36.9261V55.3387H37.3612V53.3387Z" fill="black" mask="url(#path-13-inside-4_1_765)"/>
<mask id="path-15-inside-5_1_765" fill="white">
<path d="M40.9079 54.3821H41.2773V54.5881C41.1694 54.6746 41.0358 54.722 40.8978 54.7229C40.8333 54.7265 40.7689 54.7145 40.7099 54.688C40.6509 54.6614 40.5991 54.6211 40.5588 54.5703C40.474 54.4485 40.4322 54.3017 40.4399 54.1533C40.4399 53.7973 40.5942 53.6193 40.9003 53.6193C40.9809 53.6112 41.0617 53.6325 41.128 53.6791C41.1944 53.7257 41.2419 53.7947 41.2621 53.8735L41.5783 53.8125C41.51 53.4997 41.2849 53.3421 40.9003 53.3421C40.6947 53.3366 40.4947 53.4103 40.3413 53.5481C40.2607 53.6276 40.1983 53.7239 40.1586 53.8302C40.1188 53.9365 40.1026 54.0502 40.1111 54.1634C40.1017 54.3823 40.1749 54.5966 40.316 54.7636C40.3943 54.8444 40.4892 54.9071 40.594 54.9475C40.6988 54.9879 40.8111 55.0049 40.9231 54.9975C41.1734 55.0045 41.4165 54.9133 41.6011 54.7432V54.1126H40.9079V54.3821Z"/>
</mask>
<path d="M40.9079 54.3821H41.2773V54.5881C41.1694 54.6746 41.0358 54.722 40.8978 54.7229C40.8333 54.7265 40.7689 54.7145 40.7099 54.688C40.6509 54.6614 40.5991 54.6211 40.5588 54.5703C40.474 54.4485 40.4322 54.3017 40.4399 54.1533C40.4399 53.7973 40.5942 53.6193 40.9003 53.6193C40.9809 53.6112 41.0617 53.6325 41.128 53.6791C41.1944 53.7257 41.2419 53.7947 41.2621 53.8735L41.5783 53.8125C41.51 53.4997 41.2849 53.3421 40.9003 53.3421C40.6947 53.3366 40.4947 53.4103 40.3413 53.5481C40.2607 53.6276 40.1983 53.7239 40.1586 53.8302C40.1188 53.9365 40.1026 54.0502 40.1111 54.1634C40.1017 54.3823 40.1749 54.5966 40.316 54.7636C40.3943 54.8444 40.4892 54.9071 40.594 54.9475C40.6988 54.9879 40.8111 55.0049 40.9231 54.9975C41.1734 55.0045 41.4165 54.9133 41.6011 54.7432V54.1126H40.9079V54.3821Z" fill="#AFB1B8"/>
<path d="M40.9079 54.3821H39.9079V55.3821H40.9079V54.3821ZM41.2773 54.3821H42.2773V53.3821H41.2773V54.3821ZM41.2773 54.5881L41.9027 55.3684L42.2773 55.0682V54.5881H41.2773ZM40.8978 54.7229L40.8916 53.7229L40.8667 53.7231L40.8419 53.7244L40.8978 54.7229ZM40.5588 54.5703L39.7382 55.1418L39.756 55.1674L39.7754 55.1918L40.5588 54.5703ZM40.4399 54.1533L41.4386 54.2055L41.4399 54.1794V54.1533H40.4399ZM40.9003 53.6193V54.6193H40.95L40.9995 54.6143L40.9003 53.6193ZM41.2621 53.8735L40.2932 54.1212L40.5265 55.034L41.4516 54.8554L41.2621 53.8735ZM41.5783 53.8125L41.7678 54.7944L42.7739 54.6002L42.5553 53.5992L41.5783 53.8125ZM40.9003 53.3421L40.8737 54.3417L40.887 54.3421H40.9003V53.3421ZM40.3413 53.5481L39.6731 52.8041L39.6555 52.8199L39.6386 52.8365L40.3413 53.5481ZM40.1111 54.1634L41.1102 54.206L41.1127 54.1474L41.1083 54.0889L40.1111 54.1634ZM40.316 54.7636L39.5521 55.4089L39.5743 55.4352L39.5982 55.4599L40.316 54.7636ZM40.9231 54.9975L40.9509 53.9979L40.9039 53.9966L40.857 53.9997L40.9231 54.9975ZM41.6011 54.7432L42.2787 55.4786L42.6011 55.1816V54.7432H41.6011ZM41.6011 54.1126H42.6011V53.1126H41.6011V54.1126ZM40.9079 54.1126V53.1126H39.9079V54.1126H40.9079ZM40.9079 55.3821H41.2773V53.3821H40.9079V55.3821ZM40.2773 54.3821V54.5881H42.2773V54.3821H40.2773ZM40.6519 53.8078C40.7194 53.7537 40.8038 53.7234 40.8916 53.7229L40.904 55.7229C41.2677 55.7206 41.6194 55.5954 41.9027 55.3684L40.6519 53.8078ZM40.8419 53.7244C40.9376 53.7191 41.0332 53.7369 41.1203 53.7761L40.2994 55.5999C40.5046 55.6922 40.7289 55.7339 40.9537 55.7213L40.8419 53.7244ZM41.1203 53.7761C41.2074 53.8153 41.2834 53.8747 41.3423 53.9488L39.7754 55.1918C39.9148 55.3675 40.0944 55.5076 40.2994 55.5999L41.1203 53.7761ZM41.3795 53.9988C41.4219 54.0597 41.4424 54.1325 41.4386 54.2055L39.4413 54.1011C39.422 54.471 39.5262 54.8373 39.7382 55.1418L41.3795 53.9988ZM41.4399 54.1533C41.4399 54.0973 41.4551 54.2408 41.3123 54.4063C41.1453 54.5996 40.944 54.6193 40.9003 54.6193V52.6193C40.5506 52.6193 40.119 52.7279 39.7984 53.0993C39.5019 53.4427 39.4399 53.8532 39.4399 54.1533H41.4399ZM40.9995 54.6143C40.8409 54.6301 40.6825 54.5882 40.553 54.4972L41.7031 52.861C41.4409 52.6767 41.1209 52.5923 40.8012 52.6242L40.9995 54.6143ZM40.553 54.4972C40.4236 54.4062 40.3319 54.2726 40.2932 54.1212L42.2309 53.6259C42.152 53.3169 41.9652 53.0452 41.7031 52.861L40.553 54.4972ZM41.4516 54.8554L41.7678 54.7944L41.3888 52.8306L41.0726 52.8917L41.4516 54.8554ZM42.5553 53.5992C42.477 53.2407 42.2834 52.8856 41.9289 52.639C41.5943 52.4063 41.2191 52.3421 40.9003 52.3421V54.3421C40.9661 54.3421 40.8957 54.3567 40.7869 54.281C40.7311 54.2422 40.6838 54.1918 40.6496 54.137C40.6167 54.0844 40.605 54.0425 40.6013 54.0259L42.5553 53.5992ZM40.927 52.3424C40.4649 52.3301 40.0164 52.4957 39.6731 52.8041L41.0094 54.2921C40.973 54.3248 40.9245 54.3431 40.8737 54.3417L40.927 52.3424ZM39.6386 52.8365C39.4546 53.0183 39.3125 53.2379 39.222 53.4798L41.0952 54.1806C41.0842 54.21 41.0668 54.237 41.0439 54.2596L39.6386 52.8365ZM39.222 53.4798C39.1315 53.7218 39.0946 53.9805 39.1138 54.2379L41.1083 54.0889C41.1106 54.12 41.1062 54.1512 41.0952 54.1806L39.222 53.4798ZM39.112 54.1209C39.092 54.5898 39.2487 55.0498 39.5521 55.4089L41.0799 54.1182C41.1011 54.1434 41.1115 54.1748 41.1102 54.206L39.112 54.1209ZM39.5982 55.4599C39.7772 55.6444 39.9942 55.788 40.2345 55.8806L40.9536 54.0144C40.9842 54.0262 41.0115 54.0443 41.0337 54.0673L39.5982 55.4599ZM40.2345 55.8806C40.4747 55.9732 40.7323 56.0124 40.9893 55.9953L40.857 53.9997C40.8899 53.9975 40.9229 54.0026 40.9536 54.0144L40.2345 55.8806ZM40.8953 55.9971C41.4068 56.0114 41.9029 55.8249 42.2787 55.4786L40.9234 54.0078C40.9301 54.0017 40.9399 53.9976 40.9509 53.9979L40.8953 55.9971ZM42.6011 54.7432V54.1126H40.6011V54.7432H42.6011ZM41.6011 53.1126H40.9079V55.1126H41.6011V53.1126ZM39.9079 54.1126V54.3821H41.9079V54.1126H39.9079Z" fill="black" mask="url(#path-15-inside-5_1_765)"/>
<mask id="path-17-inside-6_1_765" fill="white">
<path d="M44.9226 53.3724H44.5988V54.9719H45.7194V54.6998H44.9226V53.3724Z"/>
</mask>
<path d="M44.9226 53.3724H44.5988V54.9719H45.7194V54.6998H44.9226V53.3724Z" fill="#AFB1B8"/>
<path d="M44.9226 53.3724H45.9226V52.3724H44.9226V53.3724ZM44.5988 53.3724V52.3724H43.5988V53.3724H44.5988ZM44.5988 54.9719H43.5988V55.9719H44.5988V54.9719ZM45.7194 54.9719V55.9719H46.7194V54.9719H45.7194ZM45.7194 54.6998H46.7194V53.6998H45.7194V54.6998ZM44.9226 54.6998H43.9226V55.6998H44.9226V54.6998ZM44.9226 52.3724H44.5988V54.3724H44.9226V52.3724ZM43.5988 53.3724V54.9719H45.5988V53.3724H43.5988ZM44.5988 55.9719H45.7194V53.9719H44.5988V55.9719ZM46.7194 54.9719V54.6998H44.7194V54.9719H46.7194ZM45.7194 53.6998H44.9226V55.6998H45.7194V53.6998ZM45.9226 54.6998V53.3724H43.9226V54.6998H45.9226Z" fill="black" mask="url(#path-17-inside-6_1_765)"/>
<mask id="path-19-inside-7_1_765" fill="white">
<path d="M48.3175 53.3724H47.9937V54.9719H48.3175V53.3724Z"/>
</mask>
<path d="M48.3175 53.3724H47.9937V54.9719H48.3175V53.3724Z" fill="#AFB1B8"/>
<path d="M47.9937 53.3724V52.3724H46.9937V53.3724H47.9937ZM48.3175 53.3724H49.3175V52.3724H48.3175V53.3724ZM48.3175 54.9719V55.9719H49.3175V54.9719H48.3175ZM47.9937 54.9719H46.9937V55.9719H47.9937V54.9719ZM47.9937 54.3724H48.3175V52.3724H47.9937V54.3724ZM47.3175 53.3724V54.9719H49.3175V53.3724H47.3175ZM48.3175 53.9719H47.9937V55.9719H48.3175V53.9719ZM48.9937 54.9719V53.3724H46.9937V54.9719H48.9937Z" fill="black" mask="url(#path-19-inside-7_1_765)"/>
<mask id="path-21-inside-8_1_765" fill="white">
<path d="M51.6365 54.4405L50.9813 53.3724H50.6676V54.9719H50.9686V53.9268L51.6112 54.9719H51.9325V53.3724H51.6365V54.4405Z"/>
</mask>
<path d="M51.6365 54.4405L50.9813 53.3724H50.6676V54.9719H50.9686V53.9268L51.6112 54.9719H51.9325V53.3724H51.6365V54.4405Z" fill="#AFB1B8"/>
<path d="M51.6365 54.4405L50.7841 54.9634L52.6365 57.9829V54.4405H51.6365ZM50.9813 53.3724L51.8337 52.8495L51.541 52.3724H50.9813V53.3724ZM50.6676 53.3724V52.3724H49.6676V53.3724H50.6676ZM50.6676 54.9719H49.6676V55.9719H50.6676V54.9719ZM50.9686 54.9719V55.9719H51.9686V54.9719H50.9686ZM50.9686 53.9268L51.8205 53.4031L49.9686 50.3909V53.9268H50.9686ZM51.6112 54.9719L50.7593 55.4957L51.0521 55.9719H51.6112V54.9719ZM51.9325 54.9719V55.9719H52.9325V54.9719H51.9325ZM51.9325 53.3724H52.9325V52.3724H51.9325V53.3724ZM51.6365 53.3724V52.3724H50.6365V53.3724H51.6365ZM52.4889 53.9175L51.8337 52.8495L50.1289 53.8953L50.7841 54.9634L52.4889 53.9175ZM50.9813 52.3724H50.6676V54.3724H50.9813V52.3724ZM49.6676 53.3724V54.9719H51.6676V53.3724H49.6676ZM50.6676 55.9719H50.9686V53.9719H50.6676V55.9719ZM51.9686 54.9719V53.9268H49.9686V54.9719H51.9686ZM50.1168 54.4505L50.7593 55.4957L52.4631 54.4482L51.8205 53.4031L50.1168 54.4505ZM51.6112 55.9719H51.9325V53.9719H51.6112V55.9719ZM52.9325 54.9719V53.3724H50.9325V54.9719H52.9325ZM51.9325 52.3724H51.6365V54.3724H51.9325V52.3724ZM50.6365 53.3724V54.4405H52.6365V53.3724H50.6365Z" fill="black" mask="url(#path-21-inside-8_1_765)"/>
<mask id="path-23-inside-9_1_765" fill="white">
<path d="M54.6368 54.2675H55.4337V53.9954H54.6368V53.6445H55.4944V53.3724H54.313V54.9719H55.5273V54.6998H54.6368V54.2675Z"/>
</mask>
<path d="M54.6368 54.2675H55.4337V53.9954H54.6368V53.6445H55.4944V53.3724H54.313V54.9719H55.5273V54.6998H54.6368V54.2675Z" fill="#AFB1B8"/>
<path d="M54.6368 54.2675V53.2675H53.6368V54.2675H54.6368ZM55.4337 54.2675V55.2675H56.4337V54.2675H55.4337ZM55.4337 53.9954H56.4337V52.9954H55.4337V53.9954ZM54.6368 53.9954H53.6368V54.9954H54.6368V53.9954ZM54.6368 53.6445V52.6445H53.6368V53.6445H54.6368ZM55.4944 53.6445V54.6445H56.4944V53.6445H55.4944ZM55.4944 53.3724H56.4944V52.3724H55.4944V53.3724ZM54.313 53.3724V52.3724H53.313V53.3724H54.313ZM54.313 54.9719H53.313V55.9719H54.313V54.9719ZM55.5273 54.9719V55.9719H56.5273V54.9719H55.5273ZM55.5273 54.6998H56.5273V53.6998H55.5273V54.6998ZM54.6368 54.6998H53.6368V55.6998H54.6368V54.6998ZM54.6368 55.2675H55.4337V53.2675H54.6368V55.2675ZM56.4337 54.2675V53.9954H54.4337V54.2675H56.4337ZM55.4337 52.9954H54.6368V54.9954H55.4337V52.9954ZM55.6368 53.9954V53.6445H53.6368V53.9954H55.6368ZM54.6368 54.6445H55.4944V52.6445H54.6368V54.6445ZM56.4944 53.6445V53.3724H54.4944V53.6445H56.4944ZM55.4944 52.3724H54.313V54.3724H55.4944V52.3724ZM53.313 53.3724V54.9719H55.313V53.3724H53.313ZM54.313 55.9719H55.5273V53.9719H54.313V55.9719ZM56.5273 54.9719V54.6998H54.5273V54.9719H56.5273ZM55.5273 53.6998H54.6368V55.6998H55.5273V53.6998ZM55.6368 54.6998V54.2675H53.6368V54.6998H55.6368Z" fill="black" mask="url(#path-23-inside-9_1_765)"/>
<mask id="path-25-inside-10_1_765" fill="white">
<path d="M61.9122 54.0031H61.2823V53.3724H60.9611V54.9719H61.2823V54.2726H61.9122V54.9719H62.2335V53.3724H61.9122V54.0031Z"/>
</mask>
<path d="M61.9122 54.0031H61.2823V53.3724H60.9611V54.9719H61.2823V54.2726H61.9122V54.9719H62.2335V53.3724H61.9122V54.0031Z" fill="#AFB1B8"/>
<path d="M61.9122 54.0031V55.0031H62.9122V54.0031H61.9122ZM61.2823 54.0031H60.2823V55.0031H61.2823V54.0031ZM61.2823 53.3724H62.2823V52.3724H61.2823V53.3724ZM60.9611 53.3724V52.3724H59.9611V53.3724H60.9611ZM60.9611 54.9719H59.9611V55.9719H60.9611V54.9719ZM61.2823 54.9719V55.9719H62.2823V54.9719H61.2823ZM61.2823 54.2726V53.2726H60.2823V54.2726H61.2823ZM61.9122 54.2726H62.9122V53.2726H61.9122V54.2726ZM61.9122 54.9719H60.9122V55.9719H61.9122V54.9719ZM62.2335 54.9719V55.9719H63.2335V54.9719H62.2335ZM62.2335 53.3724H63.2335V52.3724H62.2335V53.3724ZM61.9122 53.3724V52.3724H60.9122V53.3724H61.9122ZM61.9122 53.0031H61.2823V55.0031H61.9122V53.0031ZM62.2823 54.0031V53.3724H60.2823V54.0031H62.2823ZM61.2823 52.3724H60.9611V54.3724H61.2823V52.3724ZM59.9611 53.3724V54.9719H61.9611V53.3724H59.9611ZM60.9611 55.9719H61.2823V53.9719H60.9611V55.9719ZM62.2823 54.9719V54.2726H60.2823V54.9719H62.2823ZM61.2823 55.2726H61.9122V53.2726H61.2823V55.2726ZM60.9122 54.2726V54.9719H62.9122V54.2726H60.9122ZM61.9122 55.9719H62.2335V53.9719H61.9122V55.9719ZM63.2335 54.9719V53.3724H61.2335V54.9719H63.2335ZM62.2335 52.3724H61.9122V54.3724H62.2335V52.3724ZM60.9122 53.3724V54.0031H62.9122V53.3724H60.9122Z" fill="black" mask="url(#path-25-inside-10_1_765)"/>
<mask id="path-27-inside-11_1_765" fill="white">
<path d="M64.9302 54.2675H65.7296V53.9954H64.9302V53.6445H65.7903V53.3724H64.6089V54.9719H65.8206V54.6998H64.9302V54.2675Z"/>
</mask>
<path d="M64.9302 54.2675H65.7296V53.9954H64.9302V53.6445H65.7903V53.3724H64.6089V54.9719H65.8206V54.6998H64.9302V54.2675Z" fill="#AFB1B8"/>
<path d="M64.9302 54.2675V53.2675H63.9302V54.2675H64.9302ZM65.7296 54.2675V55.2675H66.7296V54.2675H65.7296ZM65.7296 53.9954H66.7296V52.9954H65.7296V53.9954ZM64.9302 53.9954H63.9302V54.9954H64.9302V53.9954ZM64.9302 53.6445V52.6445H63.9302V53.6445H64.9302ZM65.7903 53.6445V54.6445H66.7903V53.6445H65.7903ZM65.7903 53.3724H66.7903V52.3724H65.7903V53.3724ZM64.6089 53.3724V52.3724H63.6089V53.3724H64.6089ZM64.6089 54.9719H63.6089V55.9719H64.6089V54.9719ZM65.8206 54.9719V55.9719H66.8206V54.9719H65.8206ZM65.8206 54.6998H66.8206V53.6998H65.8206V54.6998ZM64.9302 54.6998H63.9302V55.6998H64.9302V54.6998ZM64.9302 55.2675H65.7296V53.2675H64.9302V55.2675ZM66.7296 54.2675V53.9954H64.7296V54.2675H66.7296ZM65.7296 52.9954H64.9302V54.9954H65.7296V52.9954ZM65.9302 53.9954V53.6445H63.9302V53.9954H65.9302ZM64.9302 54.6445H65.7903V52.6445H64.9302V54.6445ZM66.7903 53.6445V53.3724H64.7903V53.6445H66.7903ZM65.7903 52.3724H64.6089V54.3724H65.7903V52.3724ZM63.6089 53.3724V54.9719H65.6089V53.3724H63.6089ZM64.6089 55.9719H65.8206V53.9719H64.6089V55.9719ZM66.8206 54.9719V54.6998H64.8206V54.9719H66.8206ZM65.8206 53.6998H64.9302V55.6998H65.8206V53.6998ZM65.9302 54.6998V54.2675H63.9302V54.6998H65.9302Z" fill="black" mask="url(#path-27-inside-11_1_765)"/>
<mask id="path-29-inside-12_1_765" fill="white">
<path d="M69.0233 54.2676C69.3015 54.2244 69.4432 54.0769 69.4432 53.8226C69.4513 53.7546 69.441 53.6856 69.4134 53.623C69.3858 53.5603 69.3419 53.5063 69.2863 53.4666C69.1415 53.3938 68.9799 53.3614 68.8183 53.3725H68.1404V54.972H68.4617V54.3032H68.5249C68.5934 54.299 68.6619 54.3112 68.7247 54.3388C68.7717 54.3678 68.8108 54.4079 68.8386 54.4558L69.1877 54.9644H69.5722L69.3774 54.6516C69.2913 54.4972 69.1699 54.3656 69.0233 54.2676ZM68.6994 54.0464H68.4617V53.6446H68.7146C68.8248 53.6357 68.9357 53.6486 69.041 53.6827C69.0644 53.7034 69.0828 53.7291 69.095 53.7579C69.1072 53.7867 69.1127 53.8179 69.1113 53.8492C69.1098 53.8804 69.1014 53.911 69.0866 53.9385C69.0718 53.966 69.051 53.9899 69.0258 54.0082C68.9202 54.0406 68.8096 54.0535 68.6994 54.0464Z"/>
</mask>
<path d="M69.0233 54.2676C69.3015 54.2244 69.4432 54.0769 69.4432 53.8226C69.4513 53.7546 69.441 53.6856 69.4134 53.623C69.3858 53.5603 69.3419 53.5063 69.2863 53.4666C69.1415 53.3938 68.9799 53.3614 68.8183 53.3725H68.1404V54.972H68.4617V54.3032H68.5249C68.5934 54.299 68.6619 54.3112 68.7247 54.3388C68.7717 54.3678 68.8108 54.4079 68.8386 54.4558L69.1877 54.9644H69.5722L69.3774 54.6516C69.2913 54.4972 69.1699 54.3656 69.0233 54.2676ZM68.6994 54.0464H68.4617V53.6446H68.7146C68.8248 53.6357 68.9357 53.6486 69.041 53.6827C69.0644 53.7034 69.0828 53.7291 69.095 53.7579C69.1072 53.7867 69.1127 53.8179 69.1113 53.8492C69.1098 53.8804 69.1014 53.911 69.0866 53.9385C69.0718 53.966 69.051 53.9899 69.0258 54.0082C68.9202 54.0406 68.8096 54.0535 68.6994 54.0464Z" fill="#AFB1B8"/>
<path d="M69.4432 53.8226L68.4502 53.7048L68.4432 53.7635V53.8226H69.4432ZM69.2863 53.4666L69.868 52.6531L69.8047 52.6079L69.7351 52.5729L69.2863 53.4666ZM68.8183 53.3725V54.3725H68.8528L68.8871 54.3701L68.8183 53.3725ZM68.1404 53.3725V52.3725H67.1404V53.3725H68.1404ZM68.1404 54.972H67.1404V55.972H68.1404V54.972ZM68.4617 54.972V55.972H69.4617V54.972H68.4617ZM68.4617 54.3032V53.3032H67.4617V54.3032H68.4617ZM68.5249 54.3032V55.3032H68.5558L68.5866 55.3013L68.5249 54.3032ZM68.7247 54.3388L69.2495 53.4876L69.1906 53.4512L69.1271 53.4233L68.7247 54.3388ZM68.8386 54.4558L67.9737 54.9578L67.9927 54.9905L68.0141 55.0217L68.8386 54.4558ZM69.1877 54.9644L68.3632 55.5303L68.6612 55.9644H69.1877V54.9644ZM69.5722 54.9644V55.9644H71.373L70.4211 54.4357L69.5722 54.9644ZM69.3774 54.6516L68.504 55.1386L68.5158 55.1597L68.5286 55.1802L69.3774 54.6516ZM68.4617 54.0464H67.4617V55.0464H68.4617V54.0464ZM68.4617 53.6446V52.6446H67.4617V53.6446H68.4617ZM68.7146 53.6446V54.6446H68.7551L68.7955 54.6413L68.7146 53.6446ZM69.041 53.6827L69.7029 52.9332L69.5471 52.7956L69.3494 52.7315L69.041 53.6827ZM69.0258 54.0082L69.319 54.9643L69.4792 54.9152L69.6146 54.8165L69.0258 54.0082ZM69.1768 55.2558C69.4509 55.2132 69.7914 55.0991 70.0633 54.8122C70.3489 54.5109 70.4432 54.1423 70.4432 53.8226H68.4432C68.4432 53.7572 68.4667 53.5894 68.6118 53.4363C68.6762 53.3684 68.7425 53.328 68.7917 53.3056C68.8386 53.2842 68.8687 53.2796 68.8697 53.2795L69.1768 55.2558ZM70.4362 53.9404C70.4653 53.695 70.4282 53.4461 70.3285 53.2198L68.4982 54.0261C68.4537 53.9251 68.4372 53.8141 68.4502 53.7048L70.4362 53.9404ZM70.3285 53.2198C70.2287 52.9934 70.0699 52.7975 69.868 52.6531L68.7047 54.28C68.6139 54.2151 68.5428 54.1272 68.4982 54.0261L70.3285 53.2198ZM69.7351 52.5729C69.4303 52.4199 69.09 52.3514 68.7496 52.3749L68.8871 54.3701C68.8698 54.3713 68.8526 54.3678 68.8376 54.3603L69.7351 52.5729ZM68.8183 52.3725H68.1404V54.3725H68.8183V52.3725ZM67.1404 53.3725V54.972H69.1404V53.3725H67.1404ZM68.1404 55.972H68.4617V53.972H68.1404V55.972ZM69.4617 54.972V54.3032H67.4617V54.972H69.4617ZM68.4617 55.3032H68.5249V53.3032H68.4617V55.3032ZM68.5866 55.3013C68.4959 55.3069 68.4053 55.2907 68.3224 55.2543L69.1271 53.4233C68.9185 53.3316 68.6909 53.291 68.4632 53.3051L68.5866 55.3013ZM68.2 55.19C68.1061 55.1322 68.0285 55.0522 67.9737 54.9578L69.7034 53.9538C69.5931 53.7637 69.4373 53.6033 69.2495 53.4876L68.2 55.19ZM68.0141 55.0217L68.3632 55.5303L70.0121 54.3984L69.663 53.8899L68.0141 55.0217ZM69.1877 55.9644H69.5722V53.9644H69.1877V55.9644ZM70.4211 54.4357L70.2263 54.1229L68.5286 55.1802L68.7234 55.493L70.4211 54.4357ZM70.2508 54.1646C70.0877 53.8721 69.8574 53.6222 69.5787 53.436L68.4678 55.0992C68.4824 55.1089 68.4949 55.1223 68.504 55.1386L70.2508 54.1646ZM68.6994 53.0464H68.4617V55.0464H68.6994V53.0464ZM69.4617 54.0464V53.6446H67.4617V54.0464H69.4617ZM68.4617 54.6446H68.7146V52.6446H68.4617V54.6446ZM68.7955 54.6413C68.7741 54.6431 68.7527 54.6405 68.7325 54.634L69.3494 52.7315C69.1187 52.6567 68.8755 52.6283 68.6338 52.6479L68.7955 54.6413ZM68.379 54.4323C68.2898 54.3535 68.2198 54.2559 68.1738 54.147L70.0162 53.3687C69.9458 53.2022 69.8389 53.0533 69.7029 52.9332L68.379 54.4323ZM68.1738 54.147C68.1278 54.0381 68.1069 53.9204 68.1123 53.8026L70.1102 53.8957C70.1186 53.7154 70.0865 53.5353 70.0162 53.3687L68.1738 54.147ZM68.1123 53.8026C68.1178 53.6848 68.1496 53.5695 68.2057 53.4651L69.9674 54.4118C70.0531 54.2524 70.1018 54.076 70.1102 53.8957L68.1123 53.8026ZM68.2057 53.4651C68.2618 53.3608 68.3407 53.2701 68.437 53.2L69.6146 54.8165C69.7613 54.7096 69.8818 54.5712 69.9674 54.4118L68.2057 53.4651ZM68.7326 53.0522C68.7428 53.0491 68.7535 53.0478 68.7643 53.0485L68.6346 55.0443C68.8657 55.0593 69.0976 55.0322 69.319 54.9643L68.7326 53.0522Z" fill="black" mask="url(#path-29-inside-12_1_765)"/>
<mask id="path-31-inside-13_1_765" fill="white">
<path d="M72.1096 54.2675H72.9064V53.9954H72.1096V53.6445H72.9697V53.3724H71.7858V54.9719H73V54.6998H72.1096V54.2675Z"/>
</mask>
<path d="M72.1096 54.2675H72.9064V53.9954H72.1096V53.6445H72.9697V53.3724H71.7858V54.9719H73V54.6998H72.1096V54.2675Z" fill="#AFB1B8"/>
<path d="M72.1096 54.2675V53.2675H71.1096V54.2675H72.1096ZM72.9064 54.2675V55.2675H73.9064V54.2675H72.9064ZM72.9064 53.9954H73.9064V52.9954H72.9064V53.9954ZM72.1096 53.9954H71.1096V54.9954H72.1096V53.9954ZM72.1096 53.6445V52.6445H71.1096V53.6445H72.1096ZM72.9697 53.6445V54.6445H73.9697V53.6445H72.9697ZM72.9697 53.3724H73.9697V52.3724H72.9697V53.3724ZM71.7858 53.3724V52.3724H70.7858V53.3724H71.7858ZM71.7858 54.9719H70.7858V55.9719H71.7858V54.9719ZM73 54.9719V55.9719H74V54.9719H73ZM73 54.6998H74V53.6998H73V54.6998ZM72.1096 54.6998H71.1096V55.6998H72.1096V54.6998ZM72.1096 55.2675H72.9064V53.2675H72.1096V55.2675ZM73.9064 54.2675V53.9954H71.9064V54.2675H73.9064ZM72.9064 52.9954H72.1096V54.9954H72.9064V52.9954ZM73.1096 53.9954V53.6445H71.1096V53.9954H73.1096ZM72.1096 54.6445H72.9697V52.6445H72.1096V54.6445ZM73.9697 53.6445V53.3724H71.9697V53.6445H73.9697ZM72.9697 52.3724H71.7858V54.3724H72.9697V52.3724ZM70.7858 53.3724V54.9719H72.7858V53.3724H70.7858ZM71.7858 55.9719H73V53.9719H71.7858V55.9719ZM74 54.9719V54.6998H72V54.9719H74ZM73 53.6998H72.1096V55.6998H73V53.6998ZM73.1096 54.6998V54.2675H71.1096V54.6998H73.1096Z" fill="black" mask="url(#path-31-inside-13_1_765)"/>
</svg>
