<svg aria-hidden="true" style="position:absolute;width:0;height:0;overflow:hidden" xmlns="http://www.w3.org/2000/svg">
  <defs>
    <symbol id="icon-antenna" viewBox="0 0 32 32">
      <path fill="#212121" style="fill:var(--color1, #212121)"
        d="m30.773 22.098-8.443-8.505.937-4.615c.242.094.499.144.758.146h.006a2.159 2.159 0 1 0-2.008-1.435l-4.96.605L8.972.161a.534.534 0 0 0-.377-.16.532.532 0 0 0-.373.155L6.709 1.66a.534.534 0 0 0 0 .754l.814.826a14.943 14.943 0 0 0 2.519 17.663.513.513 0 0 0 .146.098c-.034.18-.051.364-.052.547v6.187h-6.4a2.67 2.67 0 0 0-2.667 2.667v1.067c0 .295.239.533.533.533h24.533a.533.533 0 0 0 .533-.533v-1.067a2.67 2.67 0 0 0-2.667-2.667h-6.4v-2.742a15.09 15.09 0 0 0 3.049.32 14.854 14.854 0 0 0 7.04-1.783l.818.823a.534.534 0 0 0 .377.16.532.532 0 0 0 .373-.155l1.513-1.504a.534.534 0 0 0 0-.754zM23.28 6.233a1.066 1.066 0 1 1 .752 1.822h-.003a1.067 1.067 0 0 1-.747-1.823h-.002zm-1.256 3.505-.598 2.946-1.175-1.182 1.774-1.763zm-.605-.902-1.92 1.909-1.485-1.493 3.405-.415zM24.004 28.8a1.6 1.6 0 0 1 1.6 1.6v.533H2.137V30.4a1.6 1.6 0 0 1 1.6-1.6h20.267zm-7.467-2.133v1.067h-5.333v-1.067h5.333zM11.204 25.6v-4.053c0-1.294 1.196-2.347 2.667-2.347s2.667 1.053 2.667 2.347V25.6h-5.333zm6.4-1.696v-2.357c0-1.882-1.675-3.413-3.733-3.413a3.8 3.8 0 0 0-3.281 1.786A13.87 13.87 0 0 1 8.311 4.033l18.602 18.708a13.818 13.818 0 0 1-9.309 1.163zm11.289-.684L7.836 2.039l.755-.752 7.935 7.98c.004 0 .006.007.01.01l13.115 13.191-.757.752z" />
      <path fill="#2196f3" style="fill:var(--color2, #2196f3)"
        d="M13.876 20.267h-.005a1.6 1.6 0 1 0-.004 3.2h.005a1.6 1.6 0 1 0 .004-3.2zm.373 1.978a.534.534 0 0 1-.752-.756.534.534 0 0 1 .373-.155.532.532 0 0 1 .373.911h.005z" />
    </symbol>
    <symbol id="icon-astronaut" viewBox="0 0 32 32">
      <path fill="#2196f3" style="fill:var(--color2, #2196f3)"
        d="M31.974 4.524a.534.534 0 0 0-.43-.363l-1.91-.278-.855-1.731c-.179-.365-.777-.365-.956 0l-.855 1.731-1.91.278a.535.535 0 0 0-.296.91l1.383 1.348-.326 1.903c-.034.2.048.402.212.522a.53.53 0 0 0 .562.04l1.709-.899 1.709.899a.536.536 0 0 0 .775-.563l-.326-1.903 1.383-1.348a.536.536 0 0 0 .135-.547zm-2.463 1.327a.534.534 0 0 0-.153.472l.191 1.114-1-.526a.533.533 0 0 0-.498 0l-1.001.526.191-1.114a.534.534 0 0 0-.153-.472l-.81-.789 1.119-.163a.532.532 0 0 0 .402-.292l.5-1.013.5 1.013a.535.535 0 0 0 .402.292l1.119.163-.809.789zM26.134 20.522h-1.067v1.067h1.067v-1.067zM26.134 22.656h-1.067v1.067h1.067v-1.067zM27.2 21.589h-1.067v1.067H27.2v-1.067zM25.067 21.589H24v1.067h1.067v-1.067zM22.4 26.389h-1.067v1.067H22.4v-1.067zM22.4 28.522h-1.067v1.067H22.4v-1.067zM23.467 27.456H22.4v1.067h1.067v-1.067zM21.333 27.456h-1.067v1.067h1.067v-1.067zM16 24.256h-1.067v1.067H16v-1.067zM16 26.389h-1.067v1.067H16v-1.067zM17.067 25.322H16v1.067h1.067v-1.067zM14.933 25.322h-1.067v1.067h1.067v-1.067zM5.867 6.122H4.8v1.067h1.067V6.122zM5.867 8.255H4.8v1.067h1.067V8.255z" />
      <path fill="#2196f3" style="fill:var(--color2, #2196f3)"
        d="M6.933 7.189H5.866v1.067h1.067V7.189zM4.8 7.189H3.733v1.067H4.8V7.189z" />
      <path fill="#212121" style="fill:var(--color1, #212121)"
        d="M24.715 14.159a1.775 1.775 0 0 0-1.188-.705 1.778 1.778 0 0 0-1.34.352l-1.252.96-1.898 1.417-1.358-.541c2.421-1.086 4.114-3.508 4.114-6.32 0-3.823-3.123-6.933-6.961-6.933s-6.961 3.11-6.961 6.933a6.86 6.86 0 0 0 1.12 3.758l-2.764-.024h-.005c-.009 0-.015.004-.023.005a.515.515 0 0 0-.155.031l-.038.013c-.006.003-.013.003-.019.006l-3.233 1.596-.001.001-1.893.911a.397.397 0 0 0-.063.035 1.779 1.779 0 0 0-.598 2.295c.22.429.595.745 1.056.889a1.776 1.776 0 0 0 1.378-.128l1.388-.738 2.264-1.169 1.357-.008L2.2 22.211l-.002.001-1.339 1.333c-.316.315-.49.732-.49 1.178s.174.863.49 1.179c.325.323.752.485 1.179.485s.854-.162 1.18-.485l1.314-1.309 1.741-1.3.901.897-1.762 1.754-.002.001-1.339 1.333c-.316.315-.49.732-.49 1.178s.174.863.49 1.179c.325.323.753.485 1.18.485s.855-.162 1.18-.485l3.482-3.467.001-.002 1.01-1-.004-.004c.006-.006.015-.009.022-.015l5.166-5.658 3.471.494a.52.52 0 0 0 .262-.033c.018-.006.033-.015.05-.023.019-.01.039-.015.058-.027l3.213-2.133c.012-.008.018-.021.029-.029.013-.01.029-.014.041-.026l1.271-1.191c.662-.62.753-1.635.212-2.362zM2.13 17.77a.714.714 0 0 1-.558.052.717.717 0 0 1-.213-1.26l1.314-.632.449 1.312-.992.528zm3.498-1.828-1.548.8-.439-1.283 2.027-1.001-.04 1.484zm15.099-6.62a5.79 5.79 0 0 1-.599 2.559l-4.181-1.899a1.863 1.863 0 0 0-.788-1.388l1.464-4.86c2.378.756 4.105 2.974 4.105 5.588zm-11.789 0c0-3.235 2.644-5.867 5.894-5.867.253 0 .5.021.745.052l-1.432 4.754c-.019-.001-.037-.006-.057-.006-1.033 0-1.873.837-1.873 1.867s.84 1.867 1.873 1.867c.694 0 1.294-.383 1.618-.945l3.862 1.755a5.894 5.894 0 0 1-4.737 2.39c-3.25 0-5.894-2.632-5.894-5.867zm5.956.8c0 .441-.362.8-.806.8s-.806-.359-.806-.8c0-.441.362-.8.806-.8s.806.359.806.8zM2.465 25.146a.608.608 0 0 1-.854.001.592.592 0 0 1 0-.844l.962-.958.851.848-.959.955zm3.214 3.734a.608.608 0 0 1-.855.001.592.592 0 0 1 0-.844l.963-.959.852.848-.96.955zm3.481-3.469-.002.001-1.765 1.76-.852-.848 1.763-1.755.002-.001c.04-.04.065-.088.09-.135.007-.014.02-.026.026-.04.017-.041.019-.085.026-.129.003-.025.014-.047.014-.073 0-.036-.013-.07-.02-.106-.006-.032-.006-.065-.019-.095a.55.55 0 0 0-.091-.138c-.01-.012-.014-.027-.025-.038h-.001l-.001-.002-1.607-1.6c-.017-.017-.039-.024-.058-.038a.507.507 0 0 0-.087-.058.515.515 0 0 0-.093-.033.507.507 0 0 0-.103-.02.5.5 0 0 0-.095.005.53.53 0 0 0-.104.02.477.477 0 0 0-.094.045c-.02.011-.042.015-.061.029L4.23 23.486l-.901-.897 2.399-2.386 4.361 4.289-.928.919zm6.819-7.017c-.015-.002-.03.004-.045.003a.556.556 0 0 0-.3.075.492.492 0 0 0-.083.061c-.013.011-.028.017-.04.029l-4.698 5.146-4.328-4.257 2.833-2.818a.534.534 0 0 0-.379-.911v-.001l-2.219.013.028-1.607 3.104.027a6.947 6.947 0 0 0 4.981 2.101c.437 0 .864-.045 1.279-.123.04.032.079.065.13.085l2.41.96.331 1.644-3.003-.427zm4.041.178-.313-1.558 1.446-1.08.947 1.257-2.08 1.381zm3.754-2.831-.838.785-.931-1.236.831-.637a.735.735 0 0 1 .543-.143.718.718 0 0 1 .48.284.713.713 0 0 1-.085.947z" />
      <path fill="#212121" style="fill:var(--color1, #212121)"
        d="m13.602 18.544-2.143-2.133a.534.534 0 0 0-.753 0l-2.142 2.133a.537.537 0 0 0 0 .756l2.142 2.133a.536.536 0 0 0 .753 0l2.143-2.133a.535.535 0 0 0 0-.756zm-2.519 1.759-1.387-1.381 1.387-1.381 1.387 1.381-1.387 1.381zM17.164 5.071l-.258 1.036c.071.018 1.738.452 1.738 2.149h1.067c0-2.017-1.666-2.965-2.547-3.185zM19.711 9.322h-1.067v1.067h1.067V9.322z" />
    </symbol>
    <symbol id="icon-clock" viewBox="0 0 32 32">
      <path fill="#212121" style="fill:var(--color1, #212121)"
        d="M31.297 15.301C31.295 6.849 24.442-.002 15.989 0S.686 6.855.688 15.308a15.304 15.304 0 0 0 10.649 14.576.662.662 0 0 0 .529-.065.637.637 0 0 0 .283-.356l3.865-12.25a1.912 1.912 0 1 0-.84-3.635l-5.106-5.107a.637.637 0 0 0-.902.902l5.103 5.109a1.876 1.876 0 0 0 .536 2.309l-3.683 11.673C3.844 25.783.118 17.71 2.799 10.432S13.553-.572 20.831 2.109s11.004 10.754 8.323 18.032a14.042 14.042 0 0 1-7.462 7.973l-.398-1.874a.638.638 0 0 0-1.048-.344l-3.837 3.426a.637.637 0 0 0 .231 1.084l4.899 1.563a.638.638 0 0 0 .819-.74l-.391-1.839a15.255 15.255 0 0 0 9.329-14.089zm-15.305-.637a.638.638 0 1 1 0 1.277.638.638 0 0 1 0-1.277zm2.101 14.864 2.184-1.948.603 2.84-2.787-.892z" />
      <path fill="#2196f3" style="fill:var(--color2, #2196f3)"
        d="M15.354 3.185V4.46a.638.638 0 1 0 1.276 0V3.185a.638.638 0 0 0-1.276 0zM3.876 14.664a.638.638 0 0 0 0 1.276h1.275a.638.638 0 1 0 0-1.276H3.876zM28.108 15.939a.638.638 0 1 0 0-1.276h-1.275a.638.638 0 0 0 0 1.276h1.275z" />
    </symbol>
    <symbol id="icon-diagram" viewBox="0 0 32 32">
      <path fill="#2196f3" style="fill:var(--color2, #2196f3)"
        d="M14.926 14.965h1.066v4.798h-1.066v-4.797zM19.19 17.097h1.066v2.665H19.19v-2.665zM10.661 18.696h1.066v1.066h-1.066v-1.066zM7.463 18.163h1.066v1.599H7.463v-1.599z" />
      <path fill="#212121" style="fill:var(--color1, #212121)"
        d="M1.599 28.291h25.587a1.6 1.6 0 0 0 1.599-1.599V24.56a1.6 1.6 0 0 0-1.599-1.599h-.533V9.668L29.681 6.8a1.608 1.608 0 1 0-.746-.763L26.654 8.2V6.97a1.6 1.6 0 0 0-1.599-1.599H3.733A1.6 1.6 0 0 0 2.134 6.97v15.992h-.533a1.6 1.6 0 0 0-1.599 1.599v2.132a1.6 1.6 0 0 0 1.599 1.599zM30.384 4.837a.533.533 0 1 1 0 1.067.533.533 0 0 1 0-1.067zM3.198 6.969c0-.294.239-.533.533-.533h21.322c.294 0 .533.239.533.533v2.239l-1.066 1.013V8.035a.533.533 0 0 0-.533-.533H4.797a.533.533 0 0 0-.533.533v13.326c0 .294.239.533.533.533h19.19a.533.533 0 0 0 .533-.533v-9.674l1.066-1.01v12.284H3.198V6.969zm4.798 6.93a1.598 1.598 0 1 0 1.107 2.749l1.853.93a.532.532 0 0 0 .636-.123l3.939-4.431 3.872 2.901a.533.533 0 0 0 .686-.039l3.365-3.188v8.131H5.33V8.569h18.124v2.66l-3.771 3.572-3.904-2.927a.533.533 0 0 0-.718.072l-3.993 4.493-1.493-.746c.011-.064.018-.129.02-.193a1.6 1.6 0 0 0-1.599-1.599zm.533 1.599a.533.533 0 1 1-1.067 0 .533.533 0 0 1 1.067 0zm3.198 8.529h5.331v.533a.533.533 0 0 1-.533.533h-4.264a.533.533 0 0 1-.533-.533v-.533zm-10.661.533c0-.294.239-.533.533-.533h9.062v.533a1.6 1.6 0 0 0 1.599 1.599h4.264a1.6 1.6 0 0 0 1.599-1.599v-.533h9.062c.294 0 .533.239.533.533v2.132a.533.533 0 0 1-.533.533H1.598a.533.533 0 0 1-.533-.533V24.56z" />
    </symbol>
    <symbol id="icon-envelope-hover" viewBox="0 0 38 32">
      <path fill="#2196f3" style="fill:var(--color2, #2196f3)"
        d="M29.6 0H8.8a2.403 2.403 0 0 0-2.4 2.4v14.4c0 1.323 1.077 2.4 2.4 2.4h20.8c1.323 0 2.4-1.077 2.4-2.4V2.4C32 1.077 30.923 0 29.6 0zm0 1.6c.109 0 .212.023.307.062L19.2 10.942 8.493 1.662A.805.805 0 0 1 8.8 1.6h20.8zm0 16H8.8a.801.801 0 0 1-.8-.8V3.352l10.676 9.252a.8.8 0 0 0 1.048 0L30.4 3.352V16.8c0 .441-.359.8-.8.8z" />
    </symbol>
    <symbol id="icon-envelope" viewBox="0 0 43 32">
      <path fill="#757575" style="fill:var(--color3, #757575)"
        d="M38.667 0H4C1.794 0 0 1.794 0 4v24c0 2.206 1.794 4 4 4h34.667c2.206 0 4-1.794 4-4V4c0-2.206-1.794-4-4-4zm0 2.667c.181 0 .353.038.511.103L21.334 18.236 3.49 2.77a1.32 1.32 0 0 1 .511-.103h34.667zm0 26.666H4A1.334 1.334 0 0 1 2.667 28V5.587L20.46 21.008a1.335 1.335 0 0 0 1.748 0L40.001 5.587V28c0 .736-.598 1.333-1.333 1.333z" />
    </symbol>
    <symbol id="icon-facebook" viewBox="0 0 32 32">
      <path fill="#afb1b8" style="fill:var(--color4, #afb1b8)"
        d="M21.329 5.313h2.921V.225C23.746.156 22.013 0 19.994 0c-4.212 0-7.097 2.649-7.097 7.519V12H8.249v5.688h4.648V32h5.699V17.689h4.46l.708-5.688h-5.169V8.082c.001-1.644.444-2.769 2.735-2.769z" />
    </symbol>
    <symbol id="icon-instagram" viewBox="0 0 32 32">
      <path style="fill:var(--color4, #afb1b8)"
        d="M31.969 9.408c-.075-1.7-.35-2.869-.744-3.882a7.806 7.806 0 0 0-1.851-2.838A7.867 7.867 0 0 0 26.542.844C25.523.45 24.36.175 22.66.1 20.947.019 20.403 0 16.059 0s-4.888.019-6.595.094c-1.7.075-2.869.35-3.882.744a7.803 7.803 0 0 0-2.838 1.85A7.867 7.867 0 0 0 .9 5.52C.506 6.539.231 7.702.156 9.402c-.081 1.713-.1 2.257-.1 6.601s.019 4.888.094 6.595c.075 1.7.35 2.869.744 3.882a7.895 7.895 0 0 0 1.85 2.838 7.867 7.867 0 0 0 2.832 1.844c1.019.394 2.182.669 3.882.744 1.706.075 2.25.094 6.595.094s4.888-.019 6.595-.094c1.7-.075 2.869-.35 3.882-.744a8.184 8.184 0 0 0 4.682-4.682c.394-1.019.669-2.182.744-3.882.075-1.707.094-2.251.094-6.595s-.006-4.888-.081-6.595zm-2.882 13.065c-.069 1.563-.331 2.407-.55 2.969a5.31 5.31 0 0 1-3.038 3.038c-.563.219-1.413.481-2.969.55-1.688.075-2.194.094-6.464.094s-4.782-.019-6.464-.094c-1.563-.069-2.407-.331-2.969-.55a4.926 4.926 0 0 1-1.838-1.194 4.974 4.974 0 0 1-1.194-1.838c-.219-.563-.481-1.413-.55-2.969-.075-1.688-.094-2.194-.094-6.464s.019-4.782.094-6.464c.069-1.563.331-2.407.55-2.969a4.868 4.868 0 0 1 1.2-1.838A4.974 4.974 0 0 1 6.639 3.55c.563-.219 1.413-.481 2.969-.55 1.688-.075 2.194-.094 6.464-.094 4.276 0 4.782.019 6.464.094 1.563.069 2.407.331 2.969.55a4.914 4.914 0 0 1 1.838 1.194 4.974 4.974 0 0 1 1.194 1.838c.219.563.481 1.413.55 2.969.075 1.688.094 2.194.094 6.464s-.019 4.77-.094 6.458z" />
      <path style="fill:var(--color4, #afb1b8)"
        d="M16.059 7.783c-4.538 0-8.22 3.682-8.22 8.22s3.682 8.22 8.22 8.22c4.539 0 8.22-3.682 8.22-8.22s-3.682-8.22-8.22-8.22zm0 13.552a5.333 5.333 0 0 1 0-10.664 5.333 5.333 0 0 1 0 10.664zM26.524 7.458a1.919 1.919 0 1 1-3.838 0 1.919 1.919 0 0 1 3.838 0z" />
    </symbol>
    <symbol id="icon-linkedin" viewBox="0 0 32 32">
      <path fill="#afb1b8" style="fill:var(--color4, #afb1b8)"
        d="M31.992 32v-.001H32V20.263c0-5.741-1.236-10.164-7.948-10.164-3.227 0-5.392 1.771-6.276 3.449h-.093v-2.913h-6.364v21.364h6.627V21.42c0-2.785.528-5.479 3.977-5.479 3.399 0 3.449 3.179 3.449 5.657v10.401h6.62zM.528 10.636h6.635V32H.528V10.636zM3.843 0C1.722 0 0 1.721 0 3.843s1.721 3.879 3.843 3.879c2.121 0 3.843-1.757 3.843-3.879A3.846 3.846 0 0 0 3.843 0z" />
    </symbol>
    <symbol id="icon-Logo1" viewBox="0 0 57 32">
      <path fill="#afb1b8" style="fill:var(--color4, #afb1b8)"
        d="m20.267 3.733 3.738 3.538-6.938-.004v17.166H35.2v-6.564l3.733 3.534V3.732H20.266zm14.769 13.722L24.439 7.423h10.597v10.032zm-3.29 4.468h-11.81V10.378h.835v10.764h10.975v.782zm-9.021 4.797-.436.898-.436-.898h-.366l.637 1.198v.698h.331v-.698l.635-1.198h-.365zm.548 1.895.154-.441h.734l.155.441h.344l-.717-1.896h-.296l-.716 1.896h.342zm.521-1.493.275.786h-.549l.275-.786zm1.737.741a.429.429 0 0 0-.072.241c0 .16.056.29.168.389s.263.148.451.148.349-.051.484-.152l.107.126h.367l-.279-.329a.95.95 0 0 0 .164-.574h-.275a.758.758 0 0 1-.079.348l-.366-.432.129-.094c.091-.066.157-.132.197-.198s.06-.14.06-.219c0-.12-.044-.22-.133-.301s-.201-.122-.339-.122c-.153 0-.274.043-.365.13s-.135.203-.135.352c0 .061.014.124.043.189s.081.144.155.237a1.12 1.12 0 0 0-.283.262zm.855.419a.485.485 0 0 1-.299.107c-.095 0-.17-.027-.227-.082s-.085-.126-.085-.214c0-.102.052-.192.156-.271l.04-.029.414.488zm-.34-.84c-.089-.11-.134-.202-.134-.275 0-.063.018-.116.055-.158s.085-.063.147-.063c.057 0 .105.018.142.053s.056.077.056.126a.235.235 0 0 1-.081.184l-.04.033-.145.099zm3.086 1.03a.689.689 0 0 0 .224-.474h-.328c-.017.135-.059.232-.124.29s-.162.087-.292.087c-.142 0-.249-.054-.323-.161s-.109-.264-.109-.469v-.168c.002-.202.041-.355.117-.46s.188-.158.331-.158c.123 0 .217.03.28.091s.104.158.12.294h.328c-.021-.207-.095-.368-.223-.482s-.296-.171-.505-.171a.718.718 0 0 0-.683.426 1.116 1.116 0 0 0-.095.473v.177c.003.174.035.328.098.46s.151.234.266.306a.748.748 0 0 0 .4.107c.216 0 .389-.056.52-.169zm1.936-.266c.064-.141.096-.304.096-.49v-.105c-.001-.185-.034-.347-.099-.486a.726.726 0 0 0-.687-.432.757.757 0 0 0-.411.113c-.119.075-.211.183-.277.324s-.098.305-.098.49v.107c.001.181.034.342.099.48s.159.246.279.322a.764.764 0 0 0 .411.112c.155 0 .293-.037.411-.112s.212-.183.276-.323zm-.352-1.071c.08.112.12.273.12.483v.099c0 .214-.04.376-.119.487s-.19.167-.336.167c-.144 0-.257-.057-.339-.171s-.121-.275-.121-.483v-.109c.002-.204.043-.362.122-.473s.192-.168.335-.168c.146 0 .258.056.337.168z" />
      <path style="fill:var(--color5, #000)"
        d="M24.004 7.272v.533l1.34.001-.973-.921-.367.387zm-3.737-3.539V3.2h-1.339l.972.921.367-.387zm-3.2 3.534v-.533h-.534v.534h.533zm0 17.167h-.533v.533h.533v-.533zm18.133 0v.533h.533v-.533H35.2zm0-6.564.367-.387-.9-.852v1.239h.533zm3.733 3.535-.367.387.9.852v-1.239h-.533zm0-17.672h.533V3.2h-.533v.533zm-14.494 3.69V6.89H23.1l.973.921.367-.387zm10.597 10.032-.367.387.9.852v-1.239h-.533zm0-10.032h.533V6.89h-.533v.533zm-15.1 14.5h-.533v.533h.533v-.533zm11.81 0v.533h.533v-.533h-.533zm-11.81-11.545v-.533h-.533v.533h.533zm.835 0h.533v-.533h-.533v.533zm0 10.763h-.533v.533h.533v-.533zm10.975 0h.533v-.533h-.533v.533zm-9.457 6.477-.48.233.48.988.48-.988-.48-.233zm.436-.898v-.533h-.334l-.146.3.48.233zm-.873 0 .48-.233-.146-.3h-.334v.533zm-.366 0v-.533h-.887l.417.784.471-.25zm.637 1.197h.533v-.133l-.062-.117-.471.25zm0 .698h-.533v.533h.533v-.533zm.331 0v.533h.533v-.533h-.533zm0-.698-.471-.25-.062.117v.133h.533zm.635-1.197.471.25.415-.783h-.887v.533zm.338 1.454v-.533h-.379l-.125.358.504.175zm-.154.441v.533h.379l.125-.358-.504-.175zm.888-.441.503-.177-.125-.357h-.378v.533zm.155.441-.503.177.125.357h.378v-.533zm.344 0v.533h.772l-.273-.722-.499.189zm-.718-1.895.499-.189-.13-.345h-.368v.533zm-.295 0v-.533h-.369l-.13.345.499.188zm-.717 1.895-.499-.188-.273.722h.772v-.533zm1.138-.707v.533h.751l-.248-.709-.504.176zm-.274-.786.503-.176-.503-1.441-.504 1.441.504.176zm-.275.786-.503-.176-.248.709h.751v-.533zm2.012-.045.446.292.002-.002-.448-.29zm.096.63-.355.398.003.003.352-.401zm.935-.004.407-.344-.325-.384-.402.302.32.427zm.107.126-.407.344.16.189h.248v-.533zm.367 0v.533h1.15l-.742-.878-.407.344zm-.279-.329-.43-.315-.248.339.271.321.407-.344zm.164-.574h.533v-.533h-.533v.533zm-.274 0v-.533h-.533v.533h.533zm-.08.347-.407.345.519.613.364-.716-.475-.242zm-.366-.432-.314-.431-.464.338.371.438.407-.345zm.129-.094-.313-.432-.001.001.314.431zm.197-.198.456.276.002-.003-.458-.274zm-.073-.519-.363.39.004.004.359-.394zm-.703.008.368.386.002-.002-.37-.384zm-.093.54-.488.215.002.005.486-.22zm.155.237.311.434.456-.326-.349-.439-.418.332zm.573.681.324.423.445-.341-.362-.427-.407.345zm-.454-.46-.309-.435-.007.005-.007.005.322.425zm.04-.028.407-.345-.316-.373-.399.283.309.435zm.074-.352-.414.336.31.382.406-.278-.301-.44zm.21-.441-.368.386.005.004.363-.39zm-.025.31.335.415.01-.008.009-.008-.354-.399zm-.04.032.301.44.017-.012.016-.013-.335-.415zm3.165.655.531.05.055-.583h-.586v.533zm-.224.474.349.403.002-.001-.351-.402zm-.104-.474v-.533h-.469l-.06.465.529.068zm-.738.216-.442.299.002.002.44-.302zm-.11-.636-.533-.005v.005h.533zm.118-.46-.43-.316v.001l.43.315zm.61-.066-.369.385.006.005.364-.39zm.12.294-.53.061.054.473h.476v-.533zm.328 0v.533h.59l-.059-.587-.531.053zm-1.139-.542-.281-.453-.002.001.283.452zm-.367.965h-.533v.008l.533-.008zm.363.766-.284.452.004.003.28-.454zm2.855-.329.485.223.001-.001-.485-.222zm.097-.595h.533v-.003l-.533.003zm-.099-.485-.483.225.001.001.483-.226zm-.277-.321-.284.452.004.002.28-.454zm-.822.002.284.452.001-.001-.284-.451zm-.277.324-.483-.225-.001.002.485.223zm-.098.596h-.533v.003l.533-.003zm.099.481-.483.226.001.002.482-.229zm.279.321-.284.451.004.002.281-.454zm.822 0 .284.452.001-.001-.284-.451zm-.076-1.394-.436.307.002.002.434-.31zm.001 1.069-.435-.309-.002.002.436.307zm-.675-.004-.435.309.002.002.433-.311zm-.121-.592-.533-.005v.005h.533zm.123-.473-.433-.312v.001l.433.311zM24.371 6.884l-3.738-3.538-.733.775 3.738 3.538.733-.775zm-7.305.917 6.938.004.001-1.067-6.938-.004-.001 1.067zm.534 16.633V7.268h-1.067v17.166H17.6zm17.6-.533H17.067v1.067H35.2v-1.067zm-.533-6.031v6.564h1.067V17.87h-1.067zm4.633 3.147-3.733-3.534-.733.775 3.733 3.534.733-.775zm-.9-17.284v17.671h1.067V3.733H38.4zm-18.133.534h18.667V3.2H20.267v1.067zm3.805 3.543 10.597 10.032.733-.775L24.805 7.035l-.733.775zm10.964-.92H24.439v1.067h10.597V6.89zm.533 10.565V7.423h-1.067v10.032h1.067zm-15.633 5.001h11.81v-1.067h-11.81v1.067zm-.533-12.078v11.545h1.067V10.378h-1.067zm1.368-.534h-.835v1.067h.835V9.844zm.533 11.297V10.377h-1.067v10.764h1.067zm10.442-.533H20.771v1.067h10.975v-1.067zm.533 1.315v-.782h-1.067v.782h1.067zm-9.511 5.928.436-.898-.96-.466-.436.898.96.466zm-1.395-.899.436.898.96-.466-.436-.898-.96.466zm.113.301h.366v-1.067h-.366v1.067zm1.108.414-.637-1.198-.942.501.637 1.198.942-.501zm.063.948v-.698H21.59v.698h1.067zm-.203-.533h-.331v1.067h.331v-1.067zm-.533-.165v.698h1.067v-.698h-1.067zm.697-1.447-.635 1.198.942.5.635-1.198-.942-.5zm.107.783h.365v-1.067h-.365v1.067zm.198.746-.154.441 1.007.351.154-.441-1.007-.351zm1.238-.358h-.734v1.067h.734v-1.067zm.658.798-.155-.441-1.006.353.155.441 1.006-.353zm-.159-.357h-.344v1.067h.344v-1.067zm-1.217-1.174.717 1.896.998-.378-.717-1.896-.998.378zm.204.345h.296v-1.067h-.296v1.067zm-.218 1.551.716-1.896-.998-.377-.716 1.896.998.377zm-.156-.722h-.342v1.067h.342v-1.067zm1.299-.35-.275-.786-1.007.352.275.786 1.007-.352zm-1.053.71h.549v-1.067h-.549v1.067zm-.229-1.496-.275.786 1.007.352.275-.786-1.007-.352zm2.702 1.158a.11.11 0 0 1-.015.051l-.892-.584a.962.962 0 0 0-.159.533h1.067zm-.01-.009.002.003.007.012.002.007-.001-.013h-1.067c0 .301.113.579.346.787l.71-.796zm.096.013a.286.286 0 0 1-.086-.01l-.01-.004-.002-.001-.703.802c.233.204.519.281.802.281v-1.067zm.164-.046c-.033.025-.079.046-.164.046v1.067c.29 0 .567-.081.804-.259l-.64-.853zm.834.209-.107-.126-.815.689.107.126.815-.689zm-.04-.189h-.367v1.067h.367v-1.067zm-.686.548.279.329.814-.689-.279-.329-.814.689zm.038-.918c0 .15-.034.223-.061.259l.86.63c.192-.262.267-.572.267-.889h-1.067zm.259.533h.275v-1.067h-.275v1.067zm.396.056c.094-.186.137-.386.137-.589h-1.067a.22.22 0 0 1-.022.106l.951.483zm-1.249-.329.366.432.814-.689-.366-.432-.814.689zm.223-.87-.129.094.627.863.129-.094-.627-.863zm.054-.043c.006-.01.008-.01-.001-.001s-.025.023-.052.043l.625.864c.125-.09.25-.206.34-.354l-.913-.552zm-.018.058a.116.116 0 0 1 .016-.055l.916.547a.952.952 0 0 0 .135-.492h-1.067zm.042.093a.148.148 0 0 1-.041-.093h1.067a.922.922 0 0 0-.307-.695l-.719.788zm.02.017c.016 0 .017.002.007-.001-.005-.002-.011-.004-.017-.008l-.015-.011.727-.781a1.01 1.01 0 0 0-.702-.265v1.067zm.005-.019c-.005.005-.01.009-.017.013l-.015.007c-.006.002 0-.002.026-.002v-1.067c-.259 0-.524.077-.734.279l.739.769zm.029-.033c0-.02.003-.02-.002-.008-.002.006-.006.014-.012.022s-.011.015-.017.02l-.735-.773a.995.995 0 0 0-.301.738h1.067zm-.003-.026c-.002-.005-.001-.004 0 0s.003.014.003.026h-1.067c0 .146.035.282.088.404l.976-.43zm.085.12a1.305 1.305 0 0 1-.065-.089l-.016-.026-.004-.007-.001-.003-.972.44c.056.122.137.241.223.349l.835-.664zm-.252.883c-.009.013-.007.007.021-.019.026-.024.066-.057.124-.099l-.621-.867a1.605 1.605 0 0 0-.42.406l.896.579zm.108.77c.235 0 .447-.081.624-.217l-.649-.847c-.007.005-.007.004.001.001l.012-.003.012-.001v1.067zm-.598-.232c.176.17.395.232.598.232v-1.067a.19.19 0 0 1 .054.011.262.262 0 0 1 .091.057l-.742.766zm-.247-.597c0 .214.074.429.247.597l.742-.766a.26.26 0 0 1 .077.169h-1.067zm.368-.696a.869.869 0 0 0-.367.696h1.067a.258.258 0 0 1-.032.123c-.017.03-.032.039-.023.031l-.645-.85zm.053-.038-.04.029.617.87.04-.029-.617-.87zm1.13.578-.414-.488-.814.69.414.488.814-.69zm-1.414-.77c0 .267.149.482.253.611l.828-.672-.029-.038-.007-.011c.001.002.006.012.01.029s.01.046.01.082h-1.067zm.187-.508a.763.763 0 0 0-.187.509h1.067a.322.322 0 0 1-.077.194l-.803-.702zm.548-.245a.717.717 0 0 0-.549.245l.803.702a.37.37 0 0 1-.129.093.32.32 0 0 1-.125.027v-1.067zm.51.201a.73.73 0 0 0-.51-.201v1.067c-.027 0-.066-.004-.109-.021s-.085-.043-.117-.073l.736-.772zm.221.512a.699.699 0 0 0-.226-.517l-.727.781a.366.366 0 0 1-.114-.264h1.067zm-.26.583a.766.766 0 0 0 .26-.583h-1.067c0-.028.005-.068.025-.113s.048-.079.074-.103l.708.798zm-.059.048.04-.033-.67-.83-.04.033.67.83zm-.178.124.145-.099-.603-.88-.145.099.603.88zm2.477.066c-.009.092-.034.114-.044.122l.702.803c.251-.219.375-.513.404-.826l-1.062-.1zm.203.584h.328v-1.067h-.328v1.067zm.232.154c.202-.18.272-.426.297-.62l-1.058-.136c-.004.033-.009.041-.006.033a.212.212 0 0 1 .056-.072l.711.795zm-.647.223a.954.954 0 0 0 .647-.223l-.711-.795a.216.216 0 0 1 .081-.048c.012-.004.009-.001-.017-.001v1.067zm-.763-.393a.898.898 0 0 0 .763.393v-1.067c-.002 0 .019 0 .052.016a.18.18 0 0 1 .065.054l-.88.603zm-.203-.77c0 .255.043.535.201.768l.883-.598c.008.011.003.009-.004-.02s-.013-.077-.013-.15h-1.067zm0-.168v.168h1.067v-.168h-1.067zm.221-.775c-.17.232-.218.515-.22.77l1.067.009c.001-.07.008-.114.014-.139s.01-.023 0-.009l-.86-.631zm.76-.376a.915.915 0 0 0-.76.375l.859.632a.166.166 0 0 1-.06.047c-.028.013-.045.012-.039.012v-1.067zm.649.24a.917.917 0 0 0-.649-.24v1.067c.019 0 .016.003-.003-.003a.23.23 0 0 1-.087-.054l.738-.77zm.281.618c-.022-.195-.089-.44-.286-.624l-.727.78a.211.211 0 0 1-.052-.07c-.003-.007.002.002.006.035l1.06-.122zm-.202-.473h-.328v1.067h.328v-1.067zm-.577.45c.007.006.036.032.047.137l1.061-.107a1.245 1.245 0 0 0-.398-.827l-.71.796zm-.151-.035c.109 0 .141.027.15.035l.71-.796a1.264 1.264 0 0 0-.86-.306v1.067zm-.13.03a.232.232 0 0 1 .13-.03V26.16c-.243 0-.48.059-.693.191l.562.906zm-.07.087a.192.192 0 0 1 .071-.088l-.565-.905c-.213.133-.37.32-.473.543l.967.45zm-.045.248c0-.116.02-.194.045-.248l-.967-.45a1.64 1.64 0 0 0-.145.698h1.067zm0 .177v-.177h-1.067v.177h1.067zm.046.231a.565.565 0 0 1-.046-.239l-1.067.016c.004.236.048.467.149.68l.964-.457zm.068.083a.182.182 0 0 1-.068-.083l-.964.457c.102.216.256.399.464.529l.568-.903zm.116.025a.222.222 0 0 1-.12-.027l-.56.908c.209.129.441.186.68.186v-1.067zm.17-.039c-.01.009-.049.039-.17.039v1.067c.311 0 .619-.083.869-.3l-.699-.806zm1.849-.352a.64.64 0 0 1-.048.268l.97.443c.102-.223.145-.464.145-.711h-1.067zm0-.106v.105h1.067v-.105h-1.067zm-.049-.259a.63.63 0 0 1 .049.262l1.067-.005a1.676 1.676 0 0 0-.149-.71l-.966.453zm-.074-.092a.202.202 0 0 1 .074.091l.967-.45a1.253 1.253 0 0 0-.481-.549l-.559.908zm-.131-.033c.065 0 .101.014.127.03l.567-.903a1.29 1.29 0 0 0-.694-.194v1.067zm-.127.031a.225.225 0 0 1 .127-.031V26.16c-.246 0-.483.061-.696.195l.569.902zm-.078.098a.21.21 0 0 1 .078-.098l-.567-.903a1.272 1.272 0 0 0-.477.551l.967.451zm-.048.265c0-.122.021-.207.049-.267l-.969-.446a1.687 1.687 0 0 0-.146.713h1.067zm0 .106v-.107h-1.067v.107h1.067zm.049.254a.61.61 0 0 1-.049-.257l-1.067.005c.001.245.046.484.149.704l.966-.453zm.08.097a.218.218 0 0 1-.081-.099l-.964.458c.105.222.263.41.476.544l.569-.902zm.127.03a.236.236 0 0 1-.131-.032l-.561.907a1.3 1.3 0 0 0 .692.192v-1.067zm.128-.03a.226.226 0 0 1-.128.03v1.067c.245 0 .482-.06.695-.194l-.567-.903zm.075-.094a.206.206 0 0 1-.076.095l.569.902c.215-.135.373-.326.476-.551l-.969-.445zm.785-.366c0-.266-.049-.554-.219-.793l-.868.619c-.006-.009-.001-.005.006.023s.014.077.014.15h1.067zm0 .099v-.099h-1.067v.099h1.067zm-.217.796c.17-.239.217-.53.217-.796h-1.067c0 .075-.007.125-.015.156s-.013.033-.005.022l.869.618zm-.771.391a.918.918 0 0 0 .772-.393l-.873-.614a.153.153 0 0 1 .057-.046c.029-.014.048-.014.044-.014v1.067zm-.772-.393a.926.926 0 0 0 .772.393v-1.067s.019 0 .047.014.044.032.048.037l-.867.622zm-.221-.794c0 .267.05.553.22.792l.87-.617c.008.011-.023-.025-.023-.174h-1.067zm0-.109v.109h1.067v-.109h-1.067zm.223-.784c-.169.235-.22.516-.223.779l1.067.009c.001-.145.031-.178.022-.166l-.866-.623zm.767-.39a.921.921 0 0 0-.767.389l.865.624a.141.141 0 0 1-.049.039c-.013.007-.025.011-.035.013l-.014.002v-1.067zm.773.393a.92.92 0 0 0-.773-.394V27.5c.004 0-.015 0-.044-.014a.147.147 0 0 1-.054-.044l.872-.615z" />
    </symbol>
    <symbol id="icon-Logo2" viewBox="0 0 57 32">
      <path fill="#afb1b8" style="fill:var(--color4, #afb1b8)"
        d="M26.727 3.165h-.073a7.542 7.542 0 0 0-.336-.012h-.243c-.212 0-.428.005-.642.016a.4.4 0 0 0-.049 0c-1.944.11-3.848.596-5.609 1.431l-.231.111V16.52l.54-.183a20.64 20.64 0 0 1 1.5-.445 18.34 18.34 0 0 1 4.317-.574v1.551c-.193.001-.38.007-.568.016h-.045a17.207 17.207 0 0 0-3.322.51 16.858 16.858 0 0 0-3.957 1.542V3.792a15.847 15.847 0 0 1 4.151-1.688c1.278-.33 2.593-.5 3.913-.504h.228c.273.007.538.019.788.038.658.046 1.31.15 1.95.311v1.527a12.05 12.05 0 0 0-1.889-.285l-.039-.003c-.132-.011-.263-.022-.386-.022zm2.688 1.561c.339.026.689.038 1.044.038a16.75 16.75 0 0 0 4.114-.528 16.958 16.958 0 0 0 3.956-1.543v14.875a15.88 15.88 0 0 1-4.153 1.688 15.948 15.948 0 0 1-3.913.503c-1 .008-1.997-.11-2.968-.35V4.438c.229.053.465.102.706.142.394.066.81.115 1.214.145zm7.57.115-.54.182c-.497.167-.997.316-1.5.449a18.23 18.23 0 0 1-4.483.575c-.352 0-.676-.01-.989-.03l-.43-.028v12.148l.37.033c.343.03.696.045 1.052.045a14.364 14.364 0 0 0 3.531-.457c.95-.238 1.874-.57 2.759-.991l.231-.111V4.843z" />
      <path style="fill:var(--color5, #000)"
        d="m26.654 3.165-.032.532.016.001h.016v-.533zm-.336-.012.013-.533h-.012v.533zm-.885.016-.039.532.033.002.033-.002-.027-.533zm-.048 0 .03.532h.008l-.039-.532zM19.776 4.6l-.229-.482-.003.001.232.48zm-.23.111-.232-.48-.302.145v.335h.533zm0 11.809h-.533v.744l.705-.239-.171-.505zm.539-.183.171.505.002-.001-.173-.504zm1.5-.445-.133-.517h-.002l.134.516zm4.318-.574h.533v-.54l-.54.007.007.533zm0 1.552.004.533.53-.004v-.53h-.533zm-.568.016v.533h.013l.014-.001-.027-.533zm-.045 0v-.533h-.015l-.015.001.029.533zm-3.321.51.13.517.002-.001-.132-.517zm-3.957 1.542h-.533v.897l.788-.428-.255-.469zm0-15.145-.269-.461-.265.154v.306h.533zm4.151-1.689.129.518.004-.001-.133-.516zm3.913-.504v-.533h-.002l.002.533zm.228 0 .013-.533h-.014V1.6zm.788.038-.04.532h.003l.037-.532zm1.949.311h.533v-.416l-.404-.101-.13.517zm0 1.527-.121.519.654.152v-.672h-.533zm-1.889-.285-.045.531.007.001.038-.532zm-.038-.003-.045.531.045-.531zm3.345 1.576v.533h.002l-.002-.533zm-1.044-.038.04-.532h-.001l-.039.532zm5.158-.49-.13-.517-.003.001.133.517zm3.956-1.543h.533v-.897l-.788.428.255.469zm0 14.875.268.461.265-.154v-.306h-.533zm-4.153 1.689-.129-.517-.004.001.133.517zm-3.913.503-.002-.533h-.002l.004.533zm-2.968-.35h-.533v.417l.405.1.128-.518zm0-14.971.12-.52-.653-.151v.67h.533zm.706.142-.089.526.089-.526zm8.244.442.17.506-.17-.505zm.54-.182h.533v-.742l-.704.237.17.505zm-2.04.631.133.517.003-.001-.136-.516zm-4.483.575v.533h.002l-.002-.533zm-.989-.03-.035.532h.001l.035-.532zm-.431-.028.035-.532-.569-.038v.57h.533zm0 12.147h-.533v.488l.487.043.047-.531zm.37.033-.047.531h.001l.046-.531zm1.052.045v.533h.002l-.002-.533zm3.531-.457-.13-.517-.004.001.134.516zm2.759-.992.229.482.002-.001-.232-.48zm.231-.111.232.48.302-.145v-.335h-.533zM26.654 3.698h.073V2.631h-.073v1.067zm-.348-.012c.114.003.216.005.317.011l.064-1.065c-.123-.007-.245-.01-.355-.013l-.026 1.066zm.012 0zm-.01 0h.011V2.619h-.011v1.067zm-.232 0h.232V2.619h-.232v1.067zm-.616.016c.206-.01.412-.016.615-.016V2.619c-.221 0-.446.006-.669.017l.054 1.065zm-.036-.001a.14.14 0 0 1-.029 0l.078-1.064a.883.883 0 0 0-.126 0l.078 1.064zm-5.419 1.381a14.546 14.546 0 0 1 5.41-1.38l-.06-1.065a15.623 15.623 0 0 0-5.807 1.481l.457.964zm-.228.11.231-.111-.463-.961-.231.111.463.961zm.302 11.328V4.711h-1.067V16.52h1.067zm-.165-.688-.54.183.343 1.01.54-.183-.343-1.01zm1.537-.456c-.531.138-1.049.288-1.54.457l.347 1.009c.457-.157.948-.3 1.461-.433l-.268-1.032zm4.445-.591a18.818 18.818 0 0 0-4.443.59l.265 1.033a17.75 17.75 0 0 1 4.192-.557l-.014-1.067zm.54 2.085v-1.551h-1.067v1.551h1.067zm-1.074.549c.18-.009.36-.014.545-.016l-.008-1.067a12.71 12.71 0 0 0-.591.017l.054 1.065zm-.072 0h.045v-1.067h-.045v1.067zm-3.189.494a16.695 16.695 0 0 1 3.219-.494l-.058-1.065a17.686 17.686 0 0 0-3.424.526l.264 1.034zm-3.835 1.494a16.343 16.343 0 0 1 3.832-1.493l-.259-1.035c-1.422.356-2.793.89-4.082 1.591l.509.937zm-.788-15.614v15.145h1.067V3.793h-1.067zm4.556-2.206c-1.505.375-2.95.963-4.291 1.745l.537.921a15.342 15.342 0 0 1 4.012-1.632l-.258-1.035zm4.04-.52c-1.364.005-2.723.18-4.044.521l.267 1.033a15.37 15.37 0 0 1 3.781-.488l-.004-1.067zm.23 0h-.228v1.067h.228V1.067zm.828.039c-.261-.02-.536-.032-.815-.039l-.027 1.066c.266.007.522.018.761.037l.081-1.064zm2.039.325a11.753 11.753 0 0 0-2.042-.325l-.075 1.064c.626.044 1.248.143 1.857.296l.26-1.035zm.403 2.045V1.949h-1.067v1.527h1.067zm-2.459.247c.608.043 1.212.134 1.805.272l.242-1.039a12.519 12.519 0 0 0-1.972-.297l-.075 1.064zm-.047-.004.039.003.09-1.063-.038-.003-.091 1.063zm-.341-.021c.096 0 .204.009.341.021l.091-1.063a5.085 5.085 0 0 0-.432-.024v1.067zm3.732.533c-.343 0-.68-.012-1.004-.036l-.081 1.064c.354.027.718.04 1.085.04V4.232zm3.981-.511a16.268 16.268 0 0 1-3.983.511l.004 1.067a17.311 17.311 0 0 0 4.244-.544l-.265-1.033zm3.834-1.496a16.446 16.446 0 0 1-3.831 1.495l.26 1.034a17.449 17.449 0 0 0 4.08-1.592l-.509-.937zm.788 15.344V2.693h-1.067v14.875h1.067zm-4.557 2.206a16.438 16.438 0 0 0 4.292-1.745l-.537-.922a15.39 15.39 0 0 1-4.014 1.632l.258 1.035zm-4.04.519a16.51 16.51 0 0 0 4.043-.52l-.266-1.033a15.419 15.419 0 0 1-3.782.486l.004 1.067zm-3.098-.365c1.014.251 2.056.374 3.101.366l-.009-1.067a11.44 11.44 0 0 1-2.836-.334l-.256 1.035zm-.405-15.489V19.41h1.067V4.439h-1.067zm1.328-.384a12.207 12.207 0 0 1-.675-.136l-.24 1.039c.237.055.484.106.736.149l.178-1.052zm1.164.139a12.96 12.96 0 0 1-1.165-.139l-.177 1.052c.412.069.844.12 1.264.151l.078-1.064zm7.162 1.335.54-.182-.34-1.011-.54.182.34 1.011zm-1.535.459a24.25 24.25 0 0 0 1.534-.459l-.34-1.011c-.485.163-.974.309-1.467.439l.272 1.031zm-4.617.592a18.808 18.808 0 0 0 4.614-.592l-.266-1.033a17.702 17.702 0 0 1-4.352.558l.004 1.067zm-1.026-.031c.326.021.662.031 1.024.031V5.513c-.342 0-.655-.009-.954-.029l-.069 1.064zm-.431-.028.43.028.07-1.064-.43-.028-.07 1.064zm.569 10.182V5.989h-1.067v10.714h1.067zm0 1.433v-1.434h-1.067v1.434h1.067zm-.117-.498-.37-.033-.094 1.063.37.033.094-1.063zm1.005.042c-.341 0-.68-.014-1.006-.043l-.093 1.063c.359.031.728.047 1.099.047V17.68zm3.398-.44a13.833 13.833 0 0 1-3.399.44l.004 1.067a14.833 14.833 0 0 0 3.662-.474l-.267-1.033zm2.663-.956c-.853.406-1.744.726-2.66.956l.26 1.035a15.343 15.343 0 0 0 2.858-1.027l-.458-.963zm.229-.11-.231.111.463.961.231-.111-.463-.961zm-.302-11.333v11.813h1.067V4.841h-1.067z" />
      <path fill="#afb1b8" style="fill:var(--color4, #afb1b8)"
        d="M19.06 24.113a.788.788 0 0 0-.6-.243.895.895 0 0 0-.347.065.778.778 0 0 0-.444.449.893.893 0 0 0-.062.335v2.023a.94.94 0 0 0 .08.415.718.718 0 0 0 .48.415c.098.028.2.042.302.042a.855.855 0 0 0 .838-.851v-.226h-.529v.18a.458.458 0 0 1-.031.18.315.315 0 0 1-.077.114.38.38 0 0 1-.222.077.266.266 0 0 1-.249-.109.479.479 0 0 1-.07-.271v-1.887a.643.643 0 0 1 .065-.302c.027-.043.066-.077.112-.098s.097-.03.147-.024a.28.28 0 0 1 .236.114c.059.078.09.173.088.271v.175h.524v-.206a.953.953 0 0 0-.242-.639z" />
      <path style="fill:var(--color5, #000)"
        d="m18.459 23.87-.007.533h.026l-.019-.533zm-.346.066.197.495.003-.001-.2-.494zm-.27.177-.377-.377-.003.003.38.375zm-.174.272.496.197.002-.004.001-.004-.499-.189zm-.062.335h.533v-.006l-.533.006zm0 2.023.533.018v-.018h-.533zm.079.415-.488.214.002.005.002.005.484-.223zm.203.271-.352.401.004.004.004.003.344-.408zm.278.144.144-.513-.005-.001-.005-.001-.134.516zm.302.042.005-.533h-.004l-.001.533zm.326-.07-.214-.489-.006.002-.006.003.225.484zm.27-.188.383.372.003-.003-.386-.369zm.177-.271-.491-.208-.002.004.493.204zm.065-.323h-.533v.003l.533-.003zm0-.226h.533v-.533h-.533v.533zm-.529 0v-.533h-.533v.533h.533zm0 .18h-.533v.014l.533-.014zm-.031.181.495.198.003-.007-.498-.191zm-.077.114.335.415.017-.014.016-.015-.369-.385zm-.111.058-.153-.511-.008.002-.008.003.168.506zm-.11.019-.01-.533h-.026l-.026.003.062.53zm-.249-.109-.455.279.012.019.013.018.43-.315zm-.07-.271.533.023.001-.012v-.012h-.533zm0-1.886h.533v-.016l-.533.017zm.065-.303-.449-.288-.017.026-.014.028.479.234zm.259-.122-.064.529.042.005.042-.002-.019-.533zm.236.114-.429.318.004.006.424-.323zm.088.271-.533-.013v.014h.533zm0 .175h-.533v.533h.533v-.533zm.523 0v.533h.533v-.533h-.533zm0-.206-.533-.005v.005h.533zm-.064-.354-.5.184.002.004.002.004.497-.193zm.207-.655a1.331 1.331 0 0 0-.459-.31l-.4.989a.266.266 0 0 1 .09.061l.768-.74zm-.459-.31a1.322 1.322 0 0 0-.545-.096l.039 1.066a.263.263 0 0 1 .107.019l.4-.989zm-.519-.096a1.42 1.42 0 0 0-.554.104l.4.989a.352.352 0 0 1 .14-.026l.014-1.067zm-.551.103a1.35 1.35 0 0 0-.45.296l.754.754a.265.265 0 0 1 .09-.059l-.395-.991zm-.452.299c-.128.13-.228.286-.293.457l.997.378a.244.244 0 0 1 .055-.086l-.759-.749zm-.29.449a1.415 1.415 0 0 0-.1.538l1.067-.012a.35.35 0 0 1 .024-.132l-.991-.394zm-.1.532v2.023h1.067V24.72h-1.067zm.001 2.005c-.008.222.035.443.124.647l.977-.428a.424.424 0 0 1-.035-.183l-1.066-.036zm.128.656c.079.171.193.325.335.449l.703-.802a.304.304 0 0 1-.07-.093l-.969.446zm.343.456c.142.119.308.205.487.252l.269-1.032a.17.17 0 0 1-.069-.036l-.687.816zm.477.249c.145.041.295.062.445.062l.003-1.067a.61.61 0 0 1-.159-.022l-.289 1.027zm.442.062c.192.002.382-.039.557-.12l-.45-.967a.228.228 0 0 1-.096.021l-.011 1.067zm.545-.115c.165-.072.314-.175.439-.304l-.765-.743a.306.306 0 0 1-.101.07l.428.977zm.442-.307c.121-.126.217-.274.284-.436l-.986-.408a.33.33 0 0 1-.07.107l.771.737zm.282-.432c.071-.169.108-.35.107-.533l-1.067.005a.284.284 0 0 1-.023.112l.982.416zm.107-.531v-.226h-1.067v.226h1.067zm-.533-.759h-.529v1.067h.529v-1.067zm-1.063.533v.18h1.067v-.18h-1.067zm.001.194c0-.008.001-.016.004-.024l.996.382a.995.995 0 0 0 .066-.385l-1.066.027zm.007-.031a.194.194 0 0 1 .05-.073l.737.771a.853.853 0 0 0 .203-.301l-.99-.396zm.083-.103a.217.217 0 0 1 .072-.038l.305 1.022a.859.859 0 0 0 .293-.154l-.67-.83zm.056-.033a.156.156 0 0 1 .048-.008l.02 1.067a.91.91 0 0 0 .269-.046l-.337-1.012zm-.004-.005a.278.278 0 0 1 .137.02l-.427.977c.13.057.273.078.414.062l-.123-1.06zm.137.02c.043.019.08.048.107.085l-.86.631a.807.807 0 0 0 .326.261l.427-.977zm.131.123c.006.009.008.02.008.031l-1.066-.046c-.009.201.043.401.148.573l.909-.558zm.009.007v-1.887h-1.067v1.887h1.067zm-.001-1.903a.104.104 0 0 1 .011-.052l-.959-.467a1.176 1.176 0 0 0-.118.553l1.066-.033zm-.019.003a.26.26 0 0 1-.109.096l-.455-.965a.798.798 0 0 0-.333.292l.897.577zm-.11.095a.267.267 0 0 1-.145.023l.129-1.059a.8.8 0 0 0-.439.071l.455.965zm-.061.027a.257.257 0 0 1-.119-.025l.464-.961a.803.803 0 0 0-.383-.08l.038 1.066zm-.119-.025a.249.249 0 0 1-.093-.077l.857-.635a.826.826 0 0 0-.301-.249l-.464.961zm-.088-.071a.098.098 0 0 1-.021-.065l1.066.026a.967.967 0 0 0-.197-.608l-.849.646zm-.022-.052v.175h1.067v-.175h-1.067zm.534.709h.524v-1.067h-.524v1.067zm1.057-.534v-.206h-1.067v.206h1.067zm0-.201a1.488 1.488 0 0 0-.101-.552l-.994.387a.44.44 0 0 1 .029.156l1.067.009zm-.098-.543a1.364 1.364 0 0 0-.29-.467l-.775.733a.303.303 0 0 1 .064.103l1.001-.369z" />
      <path fill="#afb1b8" style="fill:var(--color4, #afb1b8);stroke:var(--color5, #000)" stroke="#000"
        stroke-width=".533"
        d="M21.247 26.706h-.257v.007a.677.677 0 0 0 .054.282.516.516 0 0 0 .132.175l.002.002.004.004.004.004.002.002c.054.05.118.089.187.114h.001c.072.026.148.04.224.041l.355-.63a.355.355 0 0 1-.105.28.386.386 0 0 1-.498 0 .352.352 0 0 1-.105-.28zm0 0-.257-.022m.257.022v-1.941m-.257 1.919.86-2.199a.386.386 0 0 0-.498 0 .352.352 0 0 0-.105.28m-.257 1.919v-1.896m0 1.896v-1.896m.257-.022-.257.022m.257-.022h-.257v-.005a.658.658 0 0 1 .038-.237m-.038.264.193-.499-.01.009a.556.556 0 0 0-.145.225m0 0-.01-.004a.379.379 0 0 1 .018-.042l-.236-.104m.228.15-.01-.004a.62.62 0 0 0-.039.241v.005l.001.01v1.921l-.001.01v.007a.61.61 0 0 0 .057.282l-.236.108m0 .001a.934.934 0 0 1-.077-.397v-1.941a.943.943 0 0 1 .077-.392m0 2.73a.791.791 0 0 0 .205.271.837.837 0 0 0 .279.171.944.944 0 0 0 .316.057m-.8-.499.238-.103a.615.615 0 0 0 .129.179l.003.003.004.004.004.004.003.002a.676.676 0 0 0 .192.112h.001a.641.641 0 0 0 .226.041l.001.258m-.801-3.23.236.102-.031-.385a.82.82 0 0 0-.205.283zm.8 3.229.001-.258.601.03a.92.92 0 0 1-.602.228zM25.795 25.071H25.7l.311-.906h.052v.906h-.268zm-.762 1.039h.228l-.115.349-.114-.349zm-.753-1.944.314.906h-.36v-.906h.047zM28.878 24.44a.3.3 0 0 1 .123.136.537.537 0 0 1 .046.205l-.169-.34zm0 0a.506.506 0 0 0-.236-.046m.236.046-.236-.046m0 0h-.27v1.249l.27-1.249zM31.578 24.166l.117.519h-.233l.114-.519h.002zM35.173 26.379h.257v.927h-.039l-.336-.927h.118zm-.78-1.282h-.257v-.931h.049l.333.931h-.125zM37.951 25.626h.108l-.114.335-.009-.027-.105-.308h.119z" />
      <path fill="#afb1b8" style="fill:var(--color4, #afb1b8)"
        d="M17.6 28.61h.252v.708h.171v-.708h.251v-.145h-.675v.145z" />
      <path style="fill:var(--color5, #000)"
        d="M17.6 28.61h-.533v.533h.533v-.533zm.252 0h.533v-.533h-.533v.533zm0 .708h-.533v.533h.533v-.533zm.172 0v.533h.533v-.533h-.533zm0-.708v-.533h-.533v.533h.533zm.251 0v.533h.533v-.533h-.533zm0-.145h.533v-.533h-.533v.533zm-.675 0v-.533h-.533v.533h.533zm0 .679h.252v-1.067H17.6v1.067zm-.281-.534v.708h1.067v-.708h-1.067zm.533 1.242h.171v-1.067h-.171v1.067zm.705-.534v-.708H17.49v.708h1.067zm-.533-.174h.251v-1.067h-.251v1.067zm.784-.534v-.145h-1.067v.145h1.067zm-.533-.678H17.6v1.067h.675v-1.067zm-1.208.533v.145h1.067v-.145h-1.067z" />
      <path fill="#afb1b8" style="fill:var(--color4, #afb1b8)"
        d="m19.721 28.465-.331.853h.182l.07-.194h.34l.073.194h.186l-.339-.853h-.182zm-.027.516.116-.316.116.316h-.232z" />
      <path style="fill:var(--color5, #000)"
        d="M19.721 28.465v-.533h-.365l-.132.341.497.193zm-.331.853-.497-.193-.281.726h.779v-.533zm.182 0v.533h.374l.127-.352-.502-.181zm.071-.194v-.533h-.374l-.127.352.502.181zm.34 0 .499-.188-.13-.346h-.369v.533zm.073.194-.499.188.13.346h.369v-.533zm.186 0v.533h.786l-.29-.73-.496.197zm-.339-.853.496-.197-.134-.337h-.362v.533zm-.209.516-.501-.184-.263.717h.764v-.533zm.116-.316.501-.184-.501-1.364-.501 1.364.501.184zm.116.316v.533h.764l-.263-.717-.501.184zm-.702-.708-.331.853.995.385.331-.853-.995-.385zm.166 1.579h.182v-1.067h-.182v1.067zm.684-.352.07-.194-1.003-.363-.07.194 1.003.363zm-.431.158h.34v-1.067h-.34v1.067zm-.16-.346.073.194.998-.375-.073-.194-.998.375zm.573.54h.186v-1.067h-.186v1.067zm.681-.73-.339-.853-.991.394.339.853.991-.394zm-.834-1.19h-.182v1.067h.182v-1.067zm.292 1.232.116-.316-1.001-.368-.116.316 1.001.368zm-.886-.316.116.316 1.001-.368-.116-.316-1.001.368zm.617-.401h-.232v1.067h.232v-1.067z" />
      <path fill="#afb1b8" style="fill:var(--color4, #afb1b8)"
        d="M21.818 29.004h.197v.11a.332.332 0 0 1-.202.072c-.034.002-.069-.004-.1-.019s-.059-.036-.081-.063a.352.352 0 0 1-.063-.222c0-.19.082-.285.246-.285.043-.004.086.007.121.032s.061.062.072.104l.169-.033c-.036-.167-.156-.251-.362-.251a.426.426 0 0 0-.298.11.413.413 0 0 0-.122.328.465.465 0 0 0 .109.32.408.408 0 0 0 .324.125.511.511 0 0 0 .362-.136v-.336h-.37v.144z" />
      <path style="fill:var(--color5, #000)"
        d="M21.818 29.004h-.533v.533h.533v-.533zm.197 0h.533v-.533h-.533v.533zm0 .11.334.416.2-.16v-.256h-.533zm-.203.072-.003-.533h-.013l-.013.001.03.533zm-.181-.082-.438.305.009.014.01.013.418-.331zm-.063-.222.533.028.001-.014v-.014h-.533zm.246-.285v.533h.026l.026-.003-.053-.531zm.192.136-.517.132.124.487.493-.095-.101-.524zm.169-.033.101.524.537-.104-.117-.534-.521.114zm-.361-.251-.014.533h.014v-.533zm-.299.11-.356-.397-.009.008-.009.009.375.38zm-.122.328.533.023.001-.031-.002-.031-.532.04zm.109.32-.407.344.012.014.013.013.383-.371zm.324.125.015-.533-.025-.001-.025.002.035.532zm.361-.136.361.392.172-.158v-.234h-.533zm0-.336h.533v-.533h-.533v.533zm-.369 0v-.533h-.533v.533h.533zm0 .677h.197V28.47h-.197v1.067zm-.337-.533v.11h1.067v-.11h-1.067zm.2-.306a.204.204 0 0 1 .128-.045l.007 1.067a.86.86 0 0 0 .533-.189l-.667-.832zm.101-.045a.313.313 0 0 1 .148.028l-.438.973a.76.76 0 0 0 .349.065l-.06-1.065zm.149.028a.323.323 0 0 1 .118.092l-.836.663c.074.094.17.168.279.218l.438-.973zm.138.118a.173.173 0 0 1 .032.11l-1.065-.056a.892.892 0 0 0 .158.555l.875-.61zm.032.083c0-.03.008.047-.068.135a.313.313 0 0 1-.22.114v-1.067a.762.762 0 0 0-.588.256.846.846 0 0 0-.191.562h1.067zm-.235.246a.357.357 0 0 1-.238-.062l.613-.873a.716.716 0 0 0-.481-.126l.106 1.061zm-.238-.063a.356.356 0 0 1-.139-.201l1.033-.264a.713.713 0 0 0-.282-.408l-.613.873zm.48.191.169-.033-.202-1.047-.169.033.202 1.047zm.588-.67a.827.827 0 0 0-.334-.512.95.95 0 0 0-.549-.158v1.067c.035 0-.002.008-.06-.033a.267.267 0 0 1-.073-.077.185.185 0 0 1-.026-.059l1.042-.228zm-.868-.67a.964.964 0 0 0-.669.246l.713.794a.103.103 0 0 1-.072.026l.028-1.066zm-.687.263a.948.948 0 0 0-.222.343l.999.374a.117.117 0 0 1-.027.042l-.75-.759zm-.223.344a.96.96 0 0 0-.058.404l1.064-.079a.117.117 0 0 1-.007.049l-.999-.374zm-.058.341a.997.997 0 0 0 .235.687l.815-.688c.011.013.017.03.016.047l-1.066-.045zm.259.715a.943.943 0 0 0 .339.224l.384-.995a.123.123 0 0 1 .043.028l-.766.743zm.339.224c.128.049.265.07.403.061L21.79 28.8a.132.132 0 0 1 .052.008l-.384.995zm.353.062c.273.008.537-.092.738-.277l-.723-.784a.025.025 0 0 1 .015-.005l-.03 1.066zm.91-.669v-.336h-1.067v.336h1.067zm-.534-.869h-.37v1.067h.37v-1.067zm-.903.533v.144h1.067v-.144h-1.067z" />
      <path fill="#afb1b8" style="fill:var(--color4, #afb1b8)" d="M23.959 28.465h-.173v.853h.598v-.145h-.425v-.708z" />
      <path style="fill:var(--color5, #000)"
        d="M23.959 28.465h.533v-.533h-.533v.533zm-.173 0v-.533h-.533v.533h.533zm0 .853h-.533v.533h.533v-.533zm.598 0v.533h.533v-.533h-.533zm0-.145h.533v-.533h-.533v.533zm-.425 0h-.533v.533h.533v-.533zm0-1.241h-.173v1.067h.173v-1.067zm-.706.533v.853h1.067v-.853h-1.067zm.533 1.387h.598v-1.067h-.598v1.067zm1.131-.534v-.145H23.85v.145h1.067zm-.533-.678h-.425v1.067h.425V28.64zm.108.533v-.708h-1.067v.708h1.067z" />
      <path fill="#afb1b8" style="fill:var(--color4, #afb1b8)" d="M25.769 28.465h-.173v.853h.173v-.853z" />
      <path style="fill:var(--color5, #000)"
        d="M25.597 28.465v-.533h-.533v.533h.533zm.172 0h.533v-.533h-.533v.533zm0 .853v.533h.533v-.533h-.533zm-.172 0h-.533v.533h.533v-.533zm0-.319h.173v-1.067h-.173v1.067zm-.361-.534v.853h1.067v-.853h-1.067zm.533.32h-.173v1.067h.173v-1.067zm.361.533v-.853h-1.067v.853h1.067z" />
      <path fill="#afb1b8" style="fill:var(--color4, #afb1b8)"
        d="m27.539 29.035-.349-.57h-.167v.853h.161v-.557l.343.557h.171v-.853h-.158v.57z" />
      <path style="fill:var(--color5, #000)"
        d="m27.539 29.035-.455.279.988 1.61v-1.889h-.533zm-.349-.57.455-.279-.156-.254h-.299v.533zm-.167 0v-.533h-.533v.533h.533zm0 .853h-.533v.533h.533v-.533zm.16 0v.533h.533v-.533h-.533zm0-.557.454-.279-.988-1.607v1.886h.533zm.343.557-.454.279.156.254h.298v-.533zm.171 0v.533h.533v-.533h-.533zm0-.853h.533v-.533h-.533v.533zm-.158 0v-.533h-.533v.533h.533zm.455.291-.349-.57-.909.558.349.57.909-.558zm-.804-.824h-.167v1.067h.167v-1.067zm-.701.533v.853h1.067v-.853h-1.067zm.534 1.387h.161v-1.067h-.161v1.067zm.694-.534v-.557H26.65v.557h1.067zm-.988-.278.343.557.909-.559-.343-.557-.909.559zm.797.812h.171v-1.067h-.171v1.067zm.705-.534v-.853h-1.067v.853h1.067zm-.534-1.386h-.158v1.067h.158v-1.067zm-.691.533v.57h1.067v-.57h-1.067z" />
      <path fill="#afb1b8" style="fill:var(--color4, #afb1b8)"
        d="M29.14 28.943h.425v-.145h-.425v-.187h.457v-.145h-.63v.853h.648v-.145h-.475v-.231z" />
      <path style="fill:var(--color5, #000)"
        d="M29.14 28.943v-.533h-.533v.533h.533zm.425 0v.533h.533v-.533h-.533zm0-.145h.533v-.533h-.533v.533zm-.425 0h-.533v.533h.533v-.533zm0-.188v-.533h-.533v.533h.533zm.457 0v.533h.533v-.533h-.533zm0-.145h.533v-.533h-.533v.533zm-.63 0v-.533h-.533v.533h.533zm0 .853h-.533v.533h.533v-.533zm.648 0v.533h.533v-.533h-.533zm0-.145h.533v-.533h-.533v.533zm-.475 0h-.533v.533h.533v-.533zm0 .303h.425v-1.067h-.425v1.067zm.958-.533v-.145h-1.067v.145h1.067zm-.533-.679h-.425v1.067h.425v-1.067zm.108.534v-.187h-1.067v.187h1.067zm-.533.346h.457v-1.067h-.457v1.067zm.99-.534v-.145h-1.067v.145h1.067zm-.533-.678h-.63v1.067h.63v-1.067zm-1.163.533v.853h1.067v-.853h-1.067zm.533 1.387h.648v-1.067h-.648v1.067zm1.181-.534v-.145h-1.067v.145h1.067zm-.533-.678h-.475v1.067h.475V28.64zm.058.533v-.231h-1.067v.231h1.067z" />
      <path fill="#afb1b8" style="fill:var(--color4, #afb1b8)"
        d="M33.02 28.802h-.336v-.336h-.171v.853h.171v-.373h.336v.373h.171v-.853h-.171v.336z" />
      <path style="fill:var(--color5, #000)"
        d="M33.02 28.802v.533h.533v-.533h-.533zm-.336 0h-.533v.533h.533v-.533zm0-.337h.533v-.533h-.533v.533zm-.171 0v-.533h-.533v.533h.533zm0 .853h-.533v.533h.533v-.533zm.171 0v.533h.533v-.533h-.533zm0-.373v-.533h-.533v.533h.533zm.336 0h.533v-.533h-.533v.533zm0 .373h-.533v.533h.533v-.533zm.171 0v.533h.533v-.533h-.533zm0-.853h.533v-.533h-.533v.533zm-.171 0v-.533h-.533v.533h.533zm0-.197h-.336v1.067h.336v-1.067zm.197.534v-.336H32.15v.336h1.067zm-.533-.87h-.171v1.067h.171v-1.067zm-.705.533v.853h1.067v-.853h-1.067zm.534 1.387h.171v-1.067h-.171v1.067zm.704-.534v-.373H32.15v.373h1.067zm-.533.161h.336v-1.067h-.336v1.067zm-.198-.534v.373h1.067v-.373h-1.067zm.534.907h.171v-1.067h-.171v1.067zm.705-.534v-.853h-1.067v.853h1.067zm-.534-1.386h-.171v1.067h.171v-1.067zm-.705.533v.336h1.067v-.336h-1.067z" />
      <path fill="#afb1b8" style="fill:var(--color4, #afb1b8)"
        d="M34.629 28.943h.426v-.145h-.426v-.187h.459v-.145h-.63v.853h.646v-.145h-.475v-.231z" />
      <path style="fill:var(--color5, #000)"
        d="M34.629 28.943v-.533h-.533v.533h.533zm.427 0v.533h.533v-.533h-.533zm0-.145h.533v-.533h-.533v.533zm-.427 0h-.533v.533h.533v-.533zm0-.188v-.533h-.533v.533h.533zm.459 0v.533h.533v-.533h-.533zm0-.145h.533v-.533h-.533v.533zm-.63 0v-.533h-.533v.533h.533zm0 .853h-.533v.533h.533v-.533zm.646 0v.533h.533v-.533h-.533zm0-.145h.533v-.533h-.533v.533zm-.475 0h-.533v.533h.533v-.533zm0 .303h.426v-1.067h-.426v1.067zm.96-.533v-.145h-1.067v.145h1.067zm-.533-.679h-.426v1.067h.426v-1.067zm.107.534v-.187h-1.067v.187h1.067zm-.534.346h.459v-1.067h-.459v1.067zm.992-.534v-.145h-1.067v.145h1.067zm-.533-.678h-.63v1.067h.63v-1.067zm-1.163.533v.853h1.067v-.853h-1.067zm.533 1.387h.646v-1.067h-.646v1.067zm1.18-.534v-.145h-1.067v.145h1.067zm-.534-.678h-.475v1.067h.475V28.64zm.059.533v-.231h-1.067v.231h1.067z" />
      <path fill="#afb1b8" style="fill:var(--color4, #afb1b8)"
        d="M36.812 28.943c.148-.023.224-.102.224-.237a.203.203 0 0 0-.084-.189.479.479 0 0 0-.25-.05h-.362v.853h.171v-.357h.034a.231.231 0 0 1 .107.019.181.181 0 0 1 .061.062l.186.271h.205L37 29.148a.6.6 0 0 0-.189-.205zm-.172-.118h-.127v-.214h.135a.445.445 0 0 1 .174.02c.012.011.022.025.029.04a.116.116 0 0 1-.004.097.114.114 0 0 1-.032.037.486.486 0 0 1-.174.02z" />
      <path style="fill:var(--color5, #000)"
        d="m37.036 28.705-.53-.063-.004.031v.032h.533zm-.083-.189.31-.434-.034-.024-.037-.019-.239.477zm-.25-.051v.533h.018l.018-.001-.037-.532zm-.361 0v-.533h-.533v.533h.533zm0 .853h-.533v.533h.533v-.533zm.171 0v.533h.533v-.533h-.533zm0-.356v-.533h-.533v.533h.533zm.034 0v.533h.016l.016-.001-.033-.532zm.106.019.28-.454-.031-.019-.034-.015-.215.488zm.061.062-.461.268.01.017.011.017.44-.302zm.186.271-.44.302.159.232h.281v-.533zm.205 0v.533h.96l-.508-.815-.453.282zm-.104-.166-.466.26.006.011.007.011.453-.282zm-.488-.323h-.533v.533h.533v-.533zm0-.215v-.533h-.533v.533h.533zm.135 0v.533h.022l.022-.002-.043-.532zm.174.021.353-.4-.083-.073-.105-.034-.164.507zm-.008.173.156.51.085-.026.072-.053-.314-.431zm.08.666a.817.817 0 0 0 .473-.237.758.758 0 0 0 .203-.528h-1.067c0-.035.013-.124.09-.206a.318.318 0 0 1 .096-.07.185.185 0 0 1 .042-.014l.164 1.054zm.672-.702a.732.732 0 0 0-.057-.384l-.976.43a.325.325 0 0 1-.026-.171l1.059.126zm-.057-.384a.731.731 0 0 0-.246-.302l-.62.868a.336.336 0 0 1-.11-.135l.976-.43zm-.317-.345a1.019 1.019 0 0 0-.526-.106l.073 1.064a.047.047 0 0 1-.026-.005l.479-.953zm-.489-.107h-.362v1.067h.362v-1.067zm-.895.533v.853h1.067v-.853h-1.067zm.534 1.387h.171v-1.067h-.171v1.067zm.704-.534v-.357h-1.067v.357h1.067zm-.533.177h.034v-1.067h-.034v1.067zm.067-.001a.31.31 0 0 1-.141-.025l.429-.977a.756.756 0 0 0-.354-.063l.066 1.065zm-.207-.059a.36.36 0 0 1-.121-.124l.922-.535a.72.72 0 0 0-.242-.249l-.56.908zm-.099-.09.186.271.879-.604-.186-.271-.879.604zm.626.503h.205v-1.067H36.9v1.067zm.658-.816-.104-.167-.905.564.104.167.905-.564zm-.091-.144a1.14 1.14 0 0 0-.358-.389l-.592.887a.055.055 0 0 1 .019.021l.932-.519zm-.827-.597h-.127v1.067h.127v-1.067zm.406.534v-.214h-1.067v.214h1.067zm-.533.319h.135v-1.067h-.135v1.067zm.178-.002a.08.08 0 0 1-.034-.004l.329-1.015a.989.989 0 0 0-.382-.045l.086 1.063zm-.222-.111a.41.41 0 0 1-.109-.152l.983-.415a.653.653 0 0 0-.167-.232l-.706.8zm-.11-.153a.415.415 0 0 1-.033-.184l1.066.05a.66.66 0 0 0-.05-.281l-.983.415zm-.032-.183a.422.422 0 0 1 .05-.18l.94.505a.633.633 0 0 0 .076-.275l-1.066-.05zm.049-.18a.417.417 0 0 1 .123-.141l.628.862a.65.65 0 0 0 .188-.216l-.94-.505zm.281-.221c.005-.002.011-.002.017-.002l-.069 1.064c.123.008.247-.006.365-.043l-.313-1.02z" />
      <path fill="#afb1b8" style="fill:var(--color4, #afb1b8)"
        d="M38.458 28.943h.425v-.145h-.425v-.187h.459v-.145h-.631v.853h.648v-.145h-.475v-.231z" />
      <path style="fill:var(--color5, #000)"
        d="M38.458 28.943v-.533h-.533v.533h.533zm.425 0v.533h.533v-.533h-.533zm0-.145h.533v-.533h-.533v.533zm-.425 0h-.533v.533h.533v-.533zm0-.188v-.533h-.533v.533h.533zm.459 0v.533h.533v-.533h-.533zm0-.145h.533v-.533h-.533v.533zm-.631 0v-.533h-.533v.533h.533zm0 .853h-.533v.533h.533v-.533zm.647 0v.533h.533v-.533h-.533zm0-.145h.533v-.533h-.533v.533zm-.475 0h-.533v.533h.533v-.533zm0 .303h.425v-1.067h-.425v1.067zm.959-.533v-.145H38.35v.145h1.067zm-.534-.679h-.425v1.067h.425v-1.067zm.109.534v-.187h-1.067v.187h1.067zm-.534.346h.459v-1.067h-.459v1.067zm.992-.534v-.145h-1.067v.145h1.067zm-.533-.678h-.631v1.067h.631v-1.067zm-1.165.533v.853h1.067v-.853h-1.067zm.534 1.387h.648v-1.067h-.648v1.067zm1.181-.534v-.145H38.4v.145h1.067zm-.534-.678h-.475v1.067h.475V28.64zm.059.533v-.231h-1.067v.231h1.067z" />
    </symbol>
    <symbol id="icon-Logo3" viewBox="0 0 57 32">
      <path fill="#afb1b8" style="fill:var(--color4, #afb1b8)"
        d="M19.417 26.187c.008 0 .017.002.025.005s.015.007.02.013l.116.111a.955.955 0 0 1-.327.211 1.299 1.299 0 0 1-.464.076 1.213 1.213 0 0 1-.436-.071.942.942 0 0 1-.329-.2.878.878 0 0 1-.212-.308 1.02 1.02 0 0 1-.074-.396.91.91 0 0 1 .305-.705 1.06 1.06 0 0 1 .349-.201c.143-.048.296-.072.449-.071.143-.003.285.019.417.064.115.043.221.104.313.178l-.097.119a.085.085 0 0 1-.025.021.066.066 0 0 1-.039.009.086.086 0 0 1-.042-.013l-.052-.032-.073-.04a.818.818 0 0 0-.229-.071 1.11 1.11 0 0 0-.173-.013.952.952 0 0 0-.323.053.683.683 0 0 0-.417.387.81.81 0 0 0-.06.313.795.795 0 0 0 .06.318.68.68 0 0 0 .402.383.867.867 0 0 0 .3.05c.059.001.119-.003.177-.01a.69.69 0 0 0 .384-.163.09.09 0 0 1 .055-.02z" />
      <path style="fill:var(--color5, #000)"
        d="m19.462 26.205.369-.386-.005-.004-.364.39zm.116.111.376.378.387-.386-.395-.378-.368.386zm-.327.211.183.501.006-.002.006-.002-.194-.497zm-.464.076.012-.533h-.022l.01.533zm-.436-.071-.182.501.003.001.179-.502zm-.329-.199-.368.386.003.003.365-.389zm-.212-.309-.495.198.001.003.494-.201zm-.074-.395.533.007v-.016l-.533.008zm.08-.397-.488-.216-.002.004.489.212zm.225-.308-.352-.401-.003.003-.003.003.358.395zm.349-.201-.17-.505-.005.002.175.504zm.449-.071-.005.533h.016l-.011-.533zm.418.065.188-.499-.008-.003-.008-.003-.173.504zm.312.178.412.338.34-.414-.416-.338-.336.414zm-.097.119-.412-.338-.003.004.415.334zm-.025.021.273.458.004-.002-.277-.456zm-.039.009.043-.532h-.012l-.032.532zm-.042-.013-.276.457.005.003.27-.46zM19.313 25l.276-.457-.008-.005-.008-.005-.259.466zm-.072-.041.259-.466-.014-.008-.015-.007-.23.481zm-.098-.039.167-.506-.004-.002-.005-.001-.158.509zm-.132-.032.089-.526-.005-.001-.084.527zm-.173-.012-.006.533h.012l-.007-.533zm-.323.053.177.503h.001l-.178-.503zm-.253.149-.359-.395-.004.004-.004.004.367.387zm-.164.238-.494-.202v.001l.494.201zm-.06.313.533.009v-.016l-.533.008zm.06.318-.495.199.001.002.494-.201zm.161.237-.371.383.001.001.37-.384zm.242.146.181-.502-.005-.002-.176.503zm.299.051.007-.533h-.012l.004.533zm.177-.01-.056-.53-.006.001-.006.001.068.529zm.27-.085.261.465.004-.002-.265-.463zm.114-.078.335.415.006-.005-.34-.411zm.043.513a.464.464 0 0 1-.158-.032l.39-.993a.621.621 0 0 0-.207-.042l-.025 1.066zm-.158-.032a.46.46 0 0 1-.149-.094l.728-.78a.572.572 0 0 0-.19-.119l-.39.993zm-.153-.098.116.111.737-.771-.116-.111-.737.771zm.109-.652a.436.436 0 0 1-.145.092l.389.993c.19-.074.364-.185.509-.33l-.753-.756zm-.134.087a.749.749 0 0 1-.269.044l-.024 1.066c.224.005.448-.031.659-.108l-.366-1.002zm-.291.044a.674.674 0 0 1-.247-.04l-.358 1.005c.2.071.412.106.625.102l-.019-1.066zm-.244-.039a.439.439 0 0 1-.146-.087l-.73.777c.147.138.323.243.512.312l.364-1.003zm-.143-.084a.366.366 0 0 1-.087-.124l-.988.402c.076.187.193.354.338.493l.736-.772zm-.085-.121a.494.494 0 0 1-.036-.191l-1.067-.014a1.56 1.56 0 0 0 .112.6l.99-.396zm-.036-.205a.435.435 0 0 1 .036-.177l-.979-.424a1.503 1.503 0 0 0-.124.617l1.067-.016zm.034-.173a.38.38 0 0 1 .096-.129l-.716-.791c-.15.136-.272.301-.355.488l.975.432zm.09-.123a.506.506 0 0 1 .173-.098l-.35-1.007a1.58 1.58 0 0 0-.525.304l.703.802zm.167-.097a.832.832 0 0 1 .274-.043l.01-1.067a1.897 1.897 0 0 0-.625.099l.341 1.011zm.291-.043a.665.665 0 0 1 .233.036l.346-1.009a1.731 1.731 0 0 0-.602-.093l.023 1.066zm.218.031a.596.596 0 0 1 .165.093l.672-.828a1.66 1.66 0 0 0-.461-.263l-.376.998zm.088-.659-.097.119.825.676.097-.119-.825-.676zm-.101.122a.444.444 0 0 1 .114-.1l.554.912a.61.61 0 0 0 .163-.143l-.831-.669zm.118-.102a.465.465 0 0 1 .277-.064l-.087 1.063c.12.01.245-.016.355-.082l-.546-.916zm.266-.065a.438.438 0 0 1 .196.06l-.541.919c.088.052.185.08.281.085l.064-1.065zm.201.063-.052-.032-.551.913.052.032.551-.913zm-.068-.041-.073-.04-.518.932.073.04.518-.932zm-.102-.056a1.368 1.368 0 0 0-.16-.064l-.335 1.013a.365.365 0 0 1 .035.014l.46-.962zm-.169-.067a1.38 1.38 0 0 0-.202-.048l-.178 1.052a.58.58 0 0 1 .063.015l.317-1.019zm-.207-.049a1.556 1.556 0 0 0-.264-.019l.013 1.067c.028 0 .055.002.082.006l.169-1.053zm-.251-.019a1.453 1.453 0 0 0-.506.084l.356 1.006a.418.418 0 0 1 .139-.023l.012-1.067zm-.506.083a1.268 1.268 0 0 0-.435.258l.717.789a.229.229 0 0 1 .071-.041l-.354-1.006zm-.443.265a1.222 1.222 0 0 0-.291.423l.987.403a.15.15 0 0 1 .038-.052l-.734-.774zm-.291.423a1.335 1.335 0 0 0-.099.522l1.067-.015c0-.034.006-.069.02-.105l-.988-.402zm-.099.506a1.35 1.35 0 0 0 .098.526l.989-.398a.28.28 0 0 1-.021-.111l-1.067-.017zm.099.528c.065.159.163.301.284.418l.742-.766a.153.153 0 0 1-.038-.054l-.988.402zm.285.42c.125.12.275.21.435.266l.352-1.007a.135.135 0 0 1-.048-.027l-.74.768zm.431.264c.155.056.32.083.485.082l-.009-1.067a.345.345 0 0 1-.114-.019l-.362 1.004zm.473.082c.084.001.169-.004.252-.014l-.136-1.058a.877.877 0 0 1-.103.006l-.014 1.067zm.241-.013c.165-.018.327-.068.474-.15l-.522-.93a.156.156 0 0 1-.064.019l.112 1.061zm.478-.152a1.36 1.36 0 0 0 .184-.126l-.669-.831a.335.335 0 0 1-.046.031l.53.925zm.19-.131a.439.439 0 0 1-.269.102l-.033-1.066a.624.624 0 0 0-.379.143l.681.821z" />
      <path fill="#afb1b8" style="fill:var(--color4, #afb1b8)"
        d="M22.776 25.629a.974.974 0 0 1-.078.393c-.047.114-.122.218-.219.305s-.214.155-.344.2a1.42 1.42 0 0 1-.884 0 1.027 1.027 0 0 1-.342-.201.904.904 0 0 1-.221-.308 1.022 1.022 0 0 1 0-.787.94.94 0 0 1 .221-.31c.097-.084.214-.15.342-.193.284-.096.6-.096.884 0 .129.046.246.114.343.201a.914.914 0 0 1 .298.699zm-.306 0a.84.84 0 0 0-.055-.316.653.653 0 0 0-.402-.385 1.025 1.025 0 0 0-.643 0 .683.683 0 0 0-.246.149.63.63 0 0 0-.157.236.927.927 0 0 0 0 .632.643.643 0 0 0 .403.384c.207.067.435.067.643 0a.698.698 0 0 0 .246-.148.662.662 0 0 0 .156-.236.82.82 0 0 0 .055-.316z" />
      <path style="fill:var(--color5, #000)"
        d="m22.776 25.629-.533-.008v.016l.533-.007zm-.079.393-.49-.21-.002.005.492.205zm-.563.505.168.506.007-.002-.175-.504zm-.884 0-.178.503.005.002.005.002.168-.506zm-.341-.201-.36.393.003.003.357-.397zm-.221-.308-.493.203.003.006.491-.209zm0-.787-.49-.212-.002.004-.002.004.493.203zm.221-.31-.349-.404-.007.006-.007.007.363.39zm.341-.193-.171-.505h-.001l.171.505zm.884 0 .177-.503-.007-.002-.171.505zm.344.201.361-.393-.005-.004-.356.398zm.219.304.491-.209-.002-.004-.489.213zm-.282.08-.5.187.001.004.498-.19zm-.156-.236.373-.381-.003-.003-.003-.003-.368.386zm-.245-.15.178-.503-.005-.002-.005-.002-.169.506zm-.643 0-.169-.506-.005.002-.005.002.178.503zm-.246.15-.368-.386-.002.002.369.385zm-.157.236-.5-.186-.002.005.502.18zm0 .632-.502.181.003.007.499-.187zm.157.236-.371.383.004.004.366-.388zm.246.148-.177.503.006.002.006.002.165-.507zm.643 0 .165.507.006-.002.006-.002-.176-.503zm.245-.148.366.388.004-.004.004-.004-.375-.38zm.156-.236-.498-.191-.001.002.499.189zm-.173-.309a.427.427 0 0 1-.036.176l.981.419c.082-.193.124-.4.121-.61l-1.067.014zm-.037.181a.315.315 0 0 1-.083.113l.713.794c.153-.137.276-.306.355-.497l-.985-.409zm-.083.113a.476.476 0 0 1-.162.093l.349 1.008c.193-.067.373-.17.525-.307l-.713-.794zm-.155.091a.885.885 0 0 1-.548 0l-.336 1.012c.394.131.826.131 1.22 0l-.336-1.012zm-.539.003a.477.477 0 0 1-.163-.095l-.713.793c.151.136.329.239.52.307l.356-1.005zm-.159-.091a.351.351 0 0 1-.09-.124l-.981.418c.08.189.202.355.352.493l.72-.787zm-.088-.118a.494.494 0 0 1 0-.381l-.986-.406a1.56 1.56 0 0 0 0 1.193l.986-.406zm-.004-.373a.395.395 0 0 1 .095-.131l-.727-.781a1.436 1.436 0 0 0-.347.489l.979.423zm.08-.117a.505.505 0 0 1 .164-.092l-.342-1.01a1.54 1.54 0 0 0-.519.295l.697.807zm.164-.092a.855.855 0 0 1 .543 0l.341-1.011a1.93 1.93 0 0 0-1.225 0l.341 1.011zm.536-.002a.504.504 0 0 1 .165.095l.711-.795a1.55 1.55 0 0 0-.521-.306l-.355 1.006zm.16.091c.044.04.073.083.091.124l.978-.425a1.447 1.447 0 0 0-.348-.485l-.721.786zm.089.12a.44.44 0 0 1 .036.179l1.067.016a1.51 1.51 0 0 0-.121-.612l-.981.418zm.797.198a1.361 1.361 0 0 0-.09-.517l-.997.38a.292.292 0 0 1 .02.114l1.066.023zm-.088-.514a1.187 1.187 0 0 0-.282-.431l-.746.762a.126.126 0 0 1 .029.042l.999-.373zm-.288-.436a1.214 1.214 0 0 0-.435-.265l-.357 1.005c.027.01.046.022.056.033l.736-.772zm-.444-.268a1.553 1.553 0 0 0-.981 0l.338 1.012a.497.497 0 0 1 .305 0l.338-1.012zm-.991.003c-.16.057-.31.146-.435.265l.736.772a.17.17 0 0 1 .056-.033l-.357-1.005zm-.436.267a1.167 1.167 0 0 0-.288.435l1 .371a.1.1 0 0 1 .026-.037l-.739-.769zm-.29.44a1.46 1.46 0 0 0 0 .993l1.004-.361a.395.395 0 0 1 0-.271l-1.004-.361zm.003 1c.062.165.161.312.286.432l.741-.767a.103.103 0 0 1-.028-.04l-.999.375zm.29.436c.126.119.275.207.436.264l.353-1.007a.155.155 0 0 1-.056-.032l-.733.775zm.447.268c.314.102.658.102.972 0l-.33-1.014a.507.507 0 0 1-.313 0l-.33 1.014zm.984-.004c.16-.056.31-.145.436-.264l-.733-.775a.155.155 0 0 1-.056.032l.353 1.007zm.444-.271a1.2 1.2 0 0 0 .28-.427l-.998-.377a.12.12 0 0 1-.031.045l.749.759zm.279-.425c.063-.166.095-.341.09-.519l-1.066.024a.284.284 0 0 1-.02.113l.996.382z" />
      <path fill="#afb1b8" style="fill:var(--color4, #afb1b8);stroke:var(--color5, #000)" stroke="#000"
        stroke-width=".533" d="M25.954 24.68c-.015.004-.028.016-.042.037l.042-.037zm0 0 .014-.003-.014.003z" />
      <path fill="#afb1b8" style="fill:var(--color4, #afb1b8)"
        d="M27.864 25.865v.715h-.291v-1.906h.649c.122-.002.244.012.362.042a.724.724 0 0 1 .256.119.492.492 0 0 1 .145.187.576.576 0 0 1 .049.244.54.54 0 0 1-.211.435.752.752 0 0 1-.257.126 1.25 1.25 0 0 1-.35.044l-.352-.005zm0-.205h.352a.808.808 0 0 0 .225-.029.52.52 0 0 0 .163-.082.358.358 0 0 0 .134-.286c.003-.053-.007-.106-.029-.155s-.057-.094-.102-.13a.624.624 0 0 0-.391-.102h-.352v.786z" />
      <path style="fill:var(--color5, #000)"
        d="m27.864 25.865.008-.533-.541-.008v.541h.533zm0 .715v.533h.533v-.533h-.533zm-.291 0h-.533v.533h.533v-.533zm0-1.906v-.533h-.533v.533h.533zm.648 0v.533h.008l-.009-.533zm.362.041-.131.517.003.001.128-.518zm.256.119.333-.417-.008-.006-.008-.006-.317.429zm.146.187-.489.213.001.003.488-.215zm.049.244-.533-.011v.018l.533-.008zm-.054.244.481.23v-.001l-.482-.229zm-.157.191-.324-.423-.001.001.325.423zm-.257.126-.14-.515-.002.001.143.514zm-.35.044.01-.533h-.002l-.008.533zm-.352-.21h-.533v.533h.533v-.533zm.352 0 .006-.533h-.006v.533zm.225-.029.142.514.004-.001.004-.001-.15-.512zm.163-.082.326.422.004-.003.004-.003-.333-.416zm.099-.126-.483-.226-.002.005-.002.005.488.216zm.035-.161-.532-.034-.001.021v.021l.533-.007zm-.131-.285.339-.412-.019-.016-.02-.014-.299.441zm-.391-.102v.533h.018l.018-.001-.036-.532zm-.352 0v-.533h-.533v.533h.533zm-.534.99v.715h1.067v-.715H27.33zm.534.182h-.291v1.067h.291v-1.067zm.242.533v-1.906h-1.067v1.906h1.067zm-.533-1.373h.649V24.14h-.649v1.067zm.657 0a.873.873 0 0 1 .223.026l.261-1.034a1.93 1.93 0 0 0-.502-.058l.018 1.067zm.226.026a.185.185 0 0 1 .066.03l.634-.858a1.268 1.268 0 0 0-.445-.208l-.255 1.036zm.05.018c.001.001-.005-.004-.011-.017l.978-.425a1.026 1.026 0 0 0-.302-.391l-.666.833zm-.009-.015c.004.008.004.014.004.018l1.066.021a1.114 1.114 0 0 0-.095-.47l-.976.431zm.004.037v.001a.017.017 0 0 1-.002.005l.963.458c.071-.15.108-.314.106-.481l-1.067.016zm-.002.006c.004-.008.006-.007 0-.003l.649.847c.131-.1.24-.23.314-.384l-.962-.46zm-.001-.002a.216.216 0 0 1-.073.035l.28 1.029a1.26 1.26 0 0 0 .442-.218l-.65-.846zm-.075.035a.722.722 0 0 1-.198.025l-.019 1.067c.17.003.339-.018.503-.064l-.285-1.028zm-.2.025-.352-.005-.015 1.067.352.005.015-1.067zm-.359.857h.352v-1.067h-.352v1.067zm.345 0c.126.001.252-.015.373-.048l-.284-1.028a.278.278 0 0 1-.078.01l-.012 1.067zm.382-.051c.121-.035.237-.093.339-.172l-.652-.844a.042.042 0 0 1 .014-.008l.299 1.024zm.346-.177a.87.87 0 0 0 .253-.326l-.975-.433a.198.198 0 0 1 .055-.074l.666.833zm.249-.317a.898.898 0 0 0 .085-.394l-1.067.015c0-.027.006-.053.015-.073l.966.452zm.084-.353a.854.854 0 0 0-.077-.412l-.97.444a.207.207 0 0 1-.018-.101l1.064.068zm-.077-.411a.903.903 0 0 0-.248-.32l-.677.824a.182.182 0 0 1-.045-.06l.97-.444zm-.287-.349a1.159 1.159 0 0 0-.727-.193l.072 1.064a.096.096 0 0 1 .056.012l.599-.883zm-.69-.195h-.352v1.067h.352v-1.067zm-.886.534v.786h1.067v-.786H27.33z" />
      <path fill="#afb1b8" style="fill:var(--color4, #afb1b8)"
        d="M31.772 26.583h-.23a.109.109 0 0 1-.064-.018.123.123 0 0 1-.038-.044l-.198-.461h-.993l-.205.461a.107.107 0 0 1-.101.062h-.23l.872-1.909h.302l.884 1.909zm-1.439-.709h.82l-.346-.777a1.276 1.276 0 0 1-.065-.179l-.034.1a.98.98 0 0 1-.032.081l-.343.776z" />
      <path style="fill:var(--color5, #000)"
        d="M31.772 26.583v.533h.835l-.351-.757-.484.224zm-.229 0v-.533h-.018l.018.533zm-.064-.018-.312.433.008.006.008.005.296-.444zm-.038-.044-.49.21.005.012.006.011.48-.233zm-.198-.461.49-.21-.139-.323h-.352v.533zm-.993 0v-.533h-.347l-.141.317.487.217zm-.205.461.487.218v-.001l-.487-.217zm-.037.043-.304-.438-.002.001.306.437zm-.065.019.016-.533h-.016v.533zm-.23 0-.485-.222-.345.755h.83v-.533zm.873-1.909v-.533h-.343l-.142.312.485.222zm.302 0 .484-.224-.143-.309h-.341v.533zm-.555 1.2-.488-.216-.331.749h.819v-.533zm.82 0v.533h.821l-.334-.75-.487.217zm-.346-.777.487-.217-.001-.003-.486.22zm-.066-.18.514-.144-.468-1.669-.551 1.644.506.169zm-.033.1zm-.032.081-.487-.218-.001.002.488.216zm1.096.951h-.23v1.067h.23v-1.067zm-.247.001a.423.423 0 0 1 .25.072l-.592.888a.646.646 0 0 0 .378.107l-.036-1.066zm.265.082a.42.42 0 0 1 .13.155l-.959.466a.641.641 0 0 0 .206.244l.624-.865zm.141.179-.198-.461-.98.42.198.461.98-.42zm-.688-.785h-.993v1.067h.993v-1.067zm-1.481.317-.205.461.975.433.205-.461-.975-.433zm-.204.46a.43.43 0 0 1 .147-.178l.608.877a.637.637 0 0 0 .219-.264l-.974-.435zm.145-.176a.425.425 0 0 1 .256-.077l-.032 1.066a.643.643 0 0 0 .387-.115l-.612-.874zm.24-.078h-.23v1.067h.23v-1.067zm.255.755.872-1.909-.97-.443-.872 1.909.97.443zm.388-1.597h.302V24.14h-.302v1.067zm-.182-.309.884 1.909.968-.448-.884-1.909-.968.448zm-.071 1.509h.82V25.34h-.82v1.067zm1.307-.75-.346-.777-.974.434.346.777.974-.434zm-.347-.78a.812.812 0 0 1-.038-.104l-1.027.288c.024.087.056.173.093.255l.972-.44zm-1.057-.129-.033.1 1.011.339.033-.1-1.011-.339zm-.034.099-.013.033.974.436c.014-.032.033-.077.051-.129l-1.011-.339zm-.014.035-.343.776.975.432.343-.776-.976-.431z" />
      <path fill="#afb1b8" style="fill:var(--color4, #afb1b8)"
        d="M33.029 24.682c.017.008.032.02.044.034l1.272 1.439V24.673h.26v1.909h-.145a.136.136 0 0 1-.06-.011.165.165 0 0 1-.047-.035l-1.271-1.438a.726.726 0 0 1 0 .066v1.419h-.26v-1.909h.154a.15.15 0 0 1 .052.009z" />
      <path style="fill:var(--color5, #000)"
        d="m33.072 24.716-.417.333.008.01.009.01.4-.353zm1.273 1.44-.4.353.933 1.055v-1.408h-.533zm0-1.482v-.533h-.533v.533h.533zm.26 0h.533v-.533h-.533v.533zm0 1.909v.533h.533v-.533h-.533zm-.145 0v-.533h-.014l.014.533zm-.06-.012-.241.476.014.007.015.006.212-.489zm-.047-.035-.4.353.002.002.397-.356zm-1.271-1.438.4-.353-1.032-1.167.1 1.554.532-.034zm0 .066-.532-.034-.001.017v.017h.533zm0 1.419v.533h.533v-.533h-.533zm-.26 0h-.533v.533h.533v-.533zm0-1.909v-.533h-.533v.533h.533zm.154 0v.533H32.989l-.013-.533zm-.177.49a.405.405 0 0 1-.144-.115l.834-.666a.66.66 0 0 0-.231-.183l-.459.963zm-.126-.094 1.272 1.439.799-.707-1.272-1.439-.799.706zm2.205 1.086h-1.067 1.067zm0-.067h-1.067 1.067zm0-.064v-1.352h-1.067v1.352h1.067zm-.533-.818h.26V24.14h-.26v1.067zm-.273-.533v1.909h1.067v-1.909h-1.067zm.533 1.375h-.145v1.067h.145v-1.067zm-.16 0a.397.397 0 0 1 .167.032l-.424.979c.092.04.19.058.286.055l-.028-1.066zm.196.046a.371.371 0 0 1 .11.085l-.795.711a.682.682 0 0 0 .203.155l.482-.952zm.112.088-1.271-1.438-.799.706 1.271 1.438.799-.706zm-2.203-1.051v-.003l1.064.068a.999.999 0 0 0 0-.134l-1.064.068zm-.001.032v.058h1.067v-.058h-1.067zm0 .058v1.361h1.067v-1.361h-1.067zm.533.827h-.26v1.067h.26v-1.067zm.274.534v-1.909h-1.067v1.909h1.067zm-.534-1.376h.154V24.14h-.154v1.067zm.167 0a.392.392 0 0 1-.15-.026l.379-.997a.658.658 0 0 0-.255-.043l.026 1.066z" />
      <path fill="#afb1b8" style="fill:var(--color4, #afb1b8)"
        d="M36.748 25.823v.758h-.291v-.758l-.804-1.15h.26a.114.114 0 0 1 .063.016.159.159 0 0 1 .039.043l.503.742a.717.717 0 0 1 .088.169l.038-.082a.745.745 0 0 1 .049-.087l.496-.747a.18.18 0 0 1 .038-.04.098.098 0 0 1 .063-.019h.263l-.806 1.155z" />
      <path style="fill:var(--color5, #000)"
        d="m36.748 25.823-.437-.305-.096.137v.168h.533zm0 .758v.533h.533v-.533h-.533zm-.291 0h-.533v.533h.533v-.533zm0-.758h.533v-.168l-.096-.138-.437.306zm-.804-1.149v-.533h-1.024l.587.839.437-.306zm.261 0v.533h.014l.014-.001-.027-.533zm.062.016.327-.422-.017-.013-.018-.011-.292.446zm.039.043-.452.284.005.008.005.008.441-.299zm.504.742.448-.289-.003-.005-.004-.005-.441.299zm.088.169-.498.191.453 1.181.529-1.149-.484-.223zm.038-.082-.483-.227-.002.004.484.223zm.049-.087.443.297.002-.002-.444-.295zm.496-.747-.437-.306-.004.005-.004.005.444.295zm.038-.04-.323-.425-.007.005-.007.006.337.414zm.063-.019-.022.533h.022v-.533zm.263 0 .437.305.585-.838h-1.022v.533zm-1.339 1.154v.758h1.067v-.758h-1.067zm.533.225h-.291v1.067h.291v-1.067zm.243.533v-.758h-1.067v.758h1.067zm-.096-1.063-.804-1.15-.874.611.804 1.15.874-.611zm-1.242-.311h.26V24.14h-.26v1.067zm.288-.001a.432.432 0 0 1-.257-.07l.585-.892a.635.635 0 0 0-.382-.103l.055 1.065zm-.291-.094a.38.38 0 0 1-.086-.095l.903-.567a.714.714 0 0 0-.164-.181l-.653.843zm-.076-.08.503.742.883-.599-.503-.742-.883.599zm.496.732c.015.024.024.038.028.047l.945-.494a1.54 1.54 0 0 0-.077-.13l-.897.578zm.028.046.011.025.996-.382a1.069 1.069 0 0 0-.062-.137l-.945.494zm.994.057.038-.082-.969-.446-.038.082.969.446zm.036-.078.01-.017-.886-.595c-.034.05-.064.103-.089.158l.965.454zm.011-.019.496-.747-.889-.59-.496.747.889.59zm.488-.736a.318.318 0 0 1-.063.068l-.673-.828a.748.748 0 0 0-.138.148l.874.612zm-.076.078a.436.436 0 0 1-.282.089l.044-1.066a.633.633 0 0 0-.407.127l.645.849zm-.26.09h.263v-1.067h-.263v1.067zm-.175-.839-.806 1.155.875.61.806-1.155-.875-.61z" />
      <path fill="#afb1b8" style="fill:var(--color4, #afb1b8);stroke:var(--color5, #000)" stroke="#000"
        stroke-width=".533"
        d="M29.262 16.798a9.86 9.86 0 0 0 .747-5.344l1.501 1.304c.017 1.765-.552 3.502-1.645 5.002-.903 1.239-2.133 2.273-3.584 3.017 1.304-1.119 2.324-2.474 2.982-3.979z" />
      <path fill="#afb1b8" style="fill:var(--color4, #afb1b8);stroke:var(--color5, #000)" stroke="#000"
        stroke-width=".533"
        d="M27.563 14.745a11.652 11.652 0 0 0-.878-6.055l2.012 1.748a8.975 8.975 0 0 1-.41 5.928c-.604 1.42-1.561 2.703-2.797 3.76 1.125-1.634 1.836-3.469 2.072-5.382zM31.478 20.06c1.572-1.28 2.704-2.923 3.262-4.742l.78.677c-.546 1.145-1.375 2.177-2.432 3.021a9.849 9.849 0 0 1-1.61 1.044zM27.572 21.169c1.326-.797 2.454-1.829 3.304-3.036.977-1.386 1.556-2.957 1.69-4.579l1.243 1.08c-.36 1.432-1.109 2.774-2.191 3.911-1.085 1.141-2.473 2.042-4.046 2.625z" />
      <path fill="#afb1b8" style="fill:var(--color4, #afb1b8);stroke:var(--color5, #000)" stroke="#000"
        stroke-width=".533"
        d="M16.096 12.798c.006-1.703.603-3.37 1.72-4.78 1.089-1.375 2.622-2.446 4.412-3.075l1.984 1.726c1.629 2.178 2.416 4.745 2.253 7.331-.16 2.547-1.234 4.991-3.077 6.989-2.069-.479-3.898-1.529-5.212-2.986-1.344-1.491-2.073-3.322-2.08-5.204zM35.878 8.283c1.832 1.592 2.856 3.74 2.863 5.972a7.338 7.338 0 0 1-.509 2.684l-12.35-10.73a11.064 11.064 0 0 1 3.066-.428c2.606.007 5.097.909 6.93 2.502z" />
    </symbol>
    <symbol id="icon-Logo4" viewBox="0 0 57 32">
      <path fill="#2196f3" style="fill:var(--color2, #2196f3)"
        d="M12.878 11.255h-.002c-1.279 0-2.316.921-2.316 2.058v.001c0 1.137 1.037 2.058 2.316 2.058h.002c1.279 0 2.316-.921 2.316-2.058v-.001c0-1.137-1.037-2.058-2.316-2.058zM29.971 10.597c-.004-1.579-.711-3.092-1.967-4.208s-2.958-1.745-4.735-1.749c-1.777.003-3.48.631-4.737 1.748s-1.964 2.63-1.968 4.209v8.706s13.405-1.327 13.406-8.704v-.001zM5.867 22.16c.003 1.098.496 2.151 1.369 2.928s2.058 1.215 3.294 1.218c1.236-.003 2.42-.441 3.294-1.218s1.366-1.829 1.37-2.927v-6.057s-9.327.924-9.327 6.056zm4.663 1.085c-.242 0-.478-.064-.678-.183s-.357-.289-.45-.487c-.092-.198-.117-.417-.069-.627s.163-.404.334-.556c.171-.152.388-.255.625-.297s.482-.02.706.062c.223.082.414.221.548.4s.206.388.206.603c.001.143-.031.284-.092.417s-.151.252-.264.353c-.114.101-.248.182-.397.236s-.308.083-.468.083v-.004zM19.956 22.647h-.9v.93h-.469v-2.275h1.481v.38h-1.012v.588h.9v.378zm2.253-.156c0 .224-.04.42-.119.589a.893.893 0 0 1-.847.528c-.189 0-.357-.045-.505-.136s-.262-.22-.344-.387a1.344 1.344 0 0 1-.123-.581v-.112c0-.224.04-.421.12-.591a.895.895 0 0 1 .848-.529c.189 0 .358.046.505.137a.888.888 0 0 1 .342.392c.081.17.122.366.122.589v.102zm-.475-.103c0-.238-.043-.42-.128-.544s-.207-.186-.366-.186a.416.416 0 0 0-.364.184c-.085.122-.129.301-.13.538v.111c0 .232.043.412.128.541s.208.192.369.192a.415.415 0 0 0 .363-.184c.084-.124.127-.304.128-.541v-.111zm1.996.592a.237.237 0 0 0-.094-.203 1.203 1.203 0 0 0-.337-.15 2.418 2.418 0 0 1-.386-.156c-.258-.14-.387-.328-.387-.564 0-.123.034-.232.103-.328a.688.688 0 0 1 .298-.227c.13-.054.276-.081.438-.081.163 0 .307.03.434.089a.662.662 0 0 1 .401.614h-.469c0-.104-.033-.185-.098-.242s-.158-.087-.277-.087a.426.426 0 0 0-.267.073.225.225 0 0 0-.095.191c0 .074.037.136.111.186.075.05.185.097.33.141.267.08.461.18.583.298s.183.267.183.444a.55.55 0 0 1-.223.464c-.149.111-.349.167-.602.167-.175 0-.334-.032-.478-.095-.144-.065-.254-.153-.33-.264s-.113-.241-.113-.388h.47c0 .251.15.377.45.377a.442.442 0 0 0 .261-.067.222.222 0 0 0 .094-.191zm2.501-1.298h-.697v1.895h-.469v-1.895h-.687v-.38h1.853v.38zm1.638.909h-.9v.609h1.056v.377H26.5v-2.275h1.522v.38h-1.053v.542h.9v.367zm1.273.153h-.373v.833H28.3v-2.275h.845c.269 0 .476.06.622.18s.219.289.219.508a.697.697 0 0 1-.102.389.689.689 0 0 1-.305.247l.492.93v.022h-.503l-.427-.833zm-.373-.379h.378c.118 0 .209-.03.273-.089a.321.321 0 0 0 .097-.248.343.343 0 0 0-.092-.253c-.06-.061-.154-.092-.28-.092h-.377v.683zm2.84.41v.802h-.469v-2.275h.887c.171 0 .321.031.45.094a.703.703 0 0 1 .405.659.655.655 0 0 1-.23.528c-.152.128-.363.192-.633.192h-.411zm0-.379h.419c.124 0 .218-.029.283-.088.066-.058.098-.142.098-.25 0-.111-.033-.202-.098-.27s-.156-.104-.272-.106h-.43v.714zm2.966.195h-.9v.609h1.056v.377h-1.525v-2.275h1.522v.38h-1.053v.542h.9v.367zm2.175-.909h-.697v1.895h-.469v-1.895h-.688v-.38h1.853v.38zm1.637.909h-.9v.609h1.056v.377h-1.525v-2.275h1.522v.38h-1.053v.542h.9v.367zm1.274.153h-.373v.833h-.469v-2.275h.845c.269 0 .476.06.622.18s.219.289.219.508a.697.697 0 0 1-.102.389.689.689 0 0 1-.305.247l.492.93v.022h-.503l-.427-.833zm-.374-.379h.378c.118 0 .209-.03.273-.089a.321.321 0 0 0 .097-.248.343.343 0 0 0-.092-.253c-.06-.061-.154-.092-.28-.092h-.377v.683zm2.755.615a.237.237 0 0 0-.094-.203 1.203 1.203 0 0 0-.337-.15 2.418 2.418 0 0 1-.386-.156c-.258-.14-.388-.328-.388-.564 0-.123.034-.232.103-.328a.688.688 0 0 1 .298-.227c.13-.054.276-.081.438-.081.163 0 .307.03.434.089a.675.675 0 0 1 .295.248.646.646 0 0 1 .106.366h-.469c0-.104-.033-.185-.098-.242s-.158-.087-.277-.087a.426.426 0 0 0-.267.073.225.225 0 0 0-.095.191c0 .074.037.136.111.186.075.05.185.097.33.141.267.08.461.18.583.298s.183.267.183.444a.548.548 0 0 1-.223.464c-.149.111-.349.167-.602.167-.175 0-.334-.032-.478-.095a.773.773 0 0 1-.33-.264.678.678 0 0 1-.112-.388h.47c0 .251.15.377.45.377a.442.442 0 0 0 .261-.067.222.222 0 0 0 .094-.191z" />
    </symbol>
    <symbol id="icon-Logo5" viewBox="0 0 57 32">
      <path fill="#afb1b8" style="fill:var(--color4, #afb1b8)" stroke-width=".533" stroke="#000"
        d="M12 25.012v-2.769h.187v2.765h.949a.996.996 0 0 0 .587-.158l.011-.007.01-.008a.673.673 0 0 0 .196-.249.643.643 0 0 0 .058-.296.646.646 0 0 0-.06-.297.712.712 0 0 0-.055-.097.6.6 0 0 1 .188.14.495.495 0 0 1 .128.339v.01l.001.01a.494.494 0 0 1-.046.235.565.565 0 0 1-.151.196c-.2.136-.45.203-.704.188l-.008-.001h-1.29zm1.701-1.295a.972.972 0 0 0-.295-.125.9.9 0 0 0 .259-.121l.01-.007.01-.008.012-.011.004.271zm.307-.574a.552.552 0 0 1-.165.123.627.627 0 0 0 .078-.34.645.645 0 0 0-.23-.522l-.012-.01-.013-.009a.925.925 0 0 0-.355-.144c.225-.005.444.056.625.172.062.049.11.109.141.174.032.067.046.14.042.211l-.001.014.001.014a.455.455 0 0 1-.111.316zM17.041 24.109l.615.903h-.141l-.79-1.207h.108l.207.305zm-1.098-.569.001.181h-.001v1.291h-.193v-2.769l1.125-.001c.28-.018.554.062.768.219.139.134.22.305.233.481s-.041.355-.159.504a.858.858 0 0 1-.324.205l.043-.032c.179-.145.252-.353.254-.575a.725.725 0 0 0-.053-.309.756.756 0 0 0-.183-.264l-.01-.009-.011-.008a.946.946 0 0 0-.638-.188h-.86l.002.269.007 1.005zM21.588 24.52l-.065-.173h-.005l-.784-2.067h.112l1.107 2.732h-.181l-.185-.492zm-1.874-.173h-.005l-.255.665h-.181l1.111-2.732h.114l-.784 2.067zM23.702 23.033v1.979h-.186v-2.769h.186v.79zm.484-.156-.456-.634h.103l1.981 2.769h-.091l-1.536-2.135zm1.665 1.358v-1.992h.187v2.769h-.187v-.777zM27.737 25.012v-2.769h1.022a2.07 2.07 0 0 1 .896.179c.228.105.412.269.531.466.125.229.19.48.19.733s-.065.505-.19.733c-.12.2-.305.366-.534.474a2.019 2.019 0 0 1-.894.183h-1.022zm2.022-.395.015-.012.013-.014c.25-.267.391-.611.391-.97s-.141-.704-.391-.97l-.013-.014-.015-.012c-.3-.24-.686-.359-1.076-.339h-.76v2.671h.76c.39.02.776-.099 1.076-.339zM30.627 11.465v7.498l-.037-.014c-.251-.096-.61-.238-1.04-.424a26.528 26.528 0 0 1-3.141-1.598c-1.138-.686-2.256-1.508-3.075-2.435s-1.318-1.936-1.274-3.005v-.012l-.003-7.485.037.014c.251.096.61.238 1.041.424.862.371 2.007.913 3.143 1.598 1.139.686 2.257 1.507 3.076 2.434s1.318 1.936 1.273 3.004zM44.821 15.269c-1.622.182-3.19.643-4.622 1.355 1.223-1.393 2.809-2.493 4.622-3.195v1.84z" />
      <path fill="#afb1b8" style="fill:var(--color4, #afb1b8)" stroke-width=".533" stroke="#000"
        d="M32.389 27.459V16.625c-.066-1.561.663-3.025 1.841-4.358s2.781-2.51 4.408-3.489a37.99 37.99 0 0 1 4.49-2.282 38.943 38.943 0 0 1 1.693-.683v6.527c-2.993 1.053-5.459 3.093-6.905 5.73-2.597 2.038-4.217 4.938-4.497 8.073-.037.316-.042.63-.043.931-.387.158-.706.281-.935.368l-.051.019z" />
      <path fill="#afb1b8" style="fill:var(--color4, #afb1b8)" stroke-width=".533" stroke="#000"
        d="M36.77 21.202a9.999 9.999 0 0 0-1.947 5.057l-.016.202a38.83 38.83 0 0 0 1.96-.953 10.856 10.856 0 0 1-.169-3.125l.172-1.181zm0 0a10.98 10.98 0 0 0-.172 1.181l.172-1.181zM37.656 22.471v-.001a9.998 9.998 0 0 1 .762-3.05c1.759-1.523 3.996-2.505 6.397-2.808v.035c.074 1.745-.847 3.369-2.272 4.821-1.338 1.363-3.094 2.547-4.795 3.503a9.881 9.881 0 0 1-.093-2.501z" />
    </symbol>
    <symbol id="icon-Logo6" viewBox="0 0 57 32">
      <path fill="#fff" style="fill:var(--color6, #fff)" d="M0 0h56.533v32H0V0z" />
      <path fill="#afb1b8" style="fill:var(--color4, #afb1b8);stroke:var(--color5, #000)" stroke="#000"
        stroke-width=".533"
        d="M30.334 13.605v.109c.002.14-.008.28-.031.418a.641.641 0 0 1-.22.387l-.009.007-.009.007a.738.738 0 0 1-.46.135.764.764 0 0 1-.328-.048.675.675 0 0 1-.287-.211l-.014-.018-.011-.021a1.225 1.225 0 0 1-.144-.659v-1.854a2.054 2.054 0 0 1 .04-.435l1.474 2.182zm0 0h.342v.089l.001.01c.019.27-.063.543-.242.777-.128.14-.375.246-.842.246s-.749-.114-.892-.276a1.309 1.309 0 0 1-.265-.874l.001-.01V12.02c0-.435.099-.721.255-.899.139-.16.411-.276.9-.275h.001c.455 0 .712.097.845.226.177.214.258.468.239.719l-.001.01v.105h-.342v-.096a2.102 2.102 0 0 0-.029-.404.612.612 0 0 0-.218-.375l-.01-.008-.01-.007a.768.768 0 0 0-.467-.129.805.805 0 0 0-.483.134l-.01.007-.01.008a.672.672 0 0 0-.237.388l1.474 2.182zM33.245 10.845h.001c.484 0 .762.111.91.267.158.168.261.438.261.854v1.617c0 .416-.102.691-.265.866-.152.163-.43.277-.905.277s-.763-.115-.914-.275c-.159-.173-.26-.447-.26-.868v-1.617c0-.417.101-.686.259-.854.147-.156.426-.268.914-.267zm-.619.306-.014.018-.011.02c-.102.187-.15.395-.138.605v1.973c-.012.213.035.423.137.613l.019.036.029.028c.078.077.172.137.275.177a.888.888 0 0 0 .644 0c.102-.04.196-.1.275-.177l.079-.078v-.059c.079-.172.115-.359.105-.548v-1.965a1.15 1.15 0 0 0-.134-.602l-.011-.021-.015-.019a.673.673 0 0 0-.293-.213.741.741 0 0 0-.326-.046.771.771 0 0 0-.326.046.681.681 0 0 0-.294.212zM37.645 13.673l.675-2.781h.446l.081 3.774h-.145l-.066-2.733-.526-.054-.651 2.788h-.122l-.676-2.801-.526.057-.061 2.744h-.152l.075-3.774h.47l.66 2.779.519.001zM40.81 13.019v1.648h-.372l.005-3.774h1.201c.384 0 .623.093.766.231.142.137.236.361.236.725 0 .34-.095.548-.243.678-.154.135-.413.226-.825.226h-.767v.267zm1.313-.502.022-.031a.962.962 0 0 0 .18-.651 1.586 1.586 0 0 0-.053-.449l-.001-.005-.001-.005a.593.593 0 0 0-.122-.218.65.65 0 0 0-.196-.149l-.008-.004-.008-.003a1.194 1.194 0 0 0-.512-.089h-.612v1.821h.605a.985.985 0 0 0 .35-.03.901.901 0 0 0 .326-.163l.03-.024zM45.409 13.888l-.043-.215h-.002l-.053-.281-.339-1.808h-.524l-.398 2.124h.004l-.037.179-.159.78h-.304l.875-3.774h.549l.875 3.774h-.29l-.155-.779zM49.111 13.083v-2.191h.219v3.774h-.168l-1.149-2.413-.507.115v2.299h-.244l.002-3.774h.202l1.141 2.309.506-.118zM51.624 13.291v-.049l-.017-.046-.872-2.298h.276l.811 2.25.761-2.25h.256l-.878 2.344v1.424h-.336V13.29z" />
      <path fill="#afb1b8" style="fill:var(--color4, #afb1b8)"
        d="M29.892 16.817v.225h-.739v1.75h-.31v-1.75H28.1v-.225h1.792z" />
      <path style="fill:var(--color5, #000)"
        d="M29.892 16.817h.533v-.533h-.533v.533zm0 .225v.533h.533v-.533h-.533zm-.739 0v-.533h-.533v.533h.533zm0 1.75v.533h.533v-.533h-.533zm-.31 0h-.533v.533h.533v-.533zm0-1.75h.533v-.533h-.533v.533zm-.743 0h-.533v.533h.533v-.533zm0-.225v-.533h-.533v.533h.533zm1.259 0v.225h1.067v-.225h-1.067zm.533-.308h-.739v1.067h.739v-1.067zm-1.272.533v1.75h1.067v-1.75H28.62zm.533 1.217h-.31v1.067h.31v-1.067zm.223.533v-1.75h-1.067v1.75h1.067zm-.533-2.283H28.1v1.067h.743v-1.067zm-.209.533v-.225h-1.067v.225h1.067zm-.534.308h1.792v-1.067H28.1v1.067z" />
      <path fill="#afb1b8" style="fill:var(--color4, #afb1b8)"
        d="M32.209 18.793h-.239a.105.105 0 0 1-.067-.019.102.102 0 0 1-.04-.045l-.214-.469h-1.026l-.214.469a.119.119 0 0 1-.033.053.112.112 0 0 1-.067.019h-.239l.906-1.976h.315l.917 1.968zm-1.5-.734h.855l-.362-.804a1.426 1.426 0 0 1-.067-.186 4.03 4.03 0 0 0-.034.105l-.033.083-.359.802z" />
      <path style="fill:var(--color5, #000)"
        d="M32.209 18.793v.533h.837l-.353-.759-.483.225zm-.239 0v-.533h-.014l-.014.001.029.533zm-.067-.019.309-.435-.012-.008-.012-.008-.286.45zm-.04-.045.489-.214-.002-.004-.002-.004-.485.221zm-.213-.47.485-.221-.142-.312h-.343v.533zm-1.026 0v-.533h-.343l-.142.312.485.221zm-.214.47-.485-.221-.014.031-.01.032.509.158zm-.032.053.303.439.04-.027.034-.034-.377-.377zm-.067.018.022-.533h-.022v.533zm-.24 0-.485-.222-.346.756h.831v-.533zm.906-1.975v-.533h-.342l-.143.311.485.222zm.316 0 .483-.225-.144-.308h-.34v.533zm-.584 1.234-.487-.218-.336.751h.823v-.533zm.855 0v.533h.825l-.339-.752-.486.219zm-.362-.804-.488.215.002.004.486-.219zm-.067-.186.513-.146-.469-1.652-.55 1.627.505.171zm-.034.105.496.195.004-.01.004-.01-.504-.175zm-.033.083.487.218.005-.011.004-.011-.496-.195zm1.141 1.002h-.239v1.067h.239v-1.067zm-.267.001a.43.43 0 0 1 .271.079l-.618.869a.645.645 0 0 0 .405.117l-.057-1.065zm.247.063a.429.429 0 0 1 .163.192l-.977.427a.632.632 0 0 0 .243.282l.571-.901zm.16.184-.214-.469-.971.442.214.469.971-.442zm-.699-.781h-1.026v1.067h1.026v-1.067zm-1.511.312-.214.469.971.442.214-.469-.971-.442zm-.238.533a.404.404 0 0 1 .1-.166l.754.755a.658.658 0 0 0 .165-.273l-1.019-.316zm.173-.228a.422.422 0 0 1 .258-.075l-.044 1.066a.637.637 0 0 0 .392-.113l-.606-.878zm.237-.076h-.239v1.067h.239v-1.067zm.245.756.906-1.976-.97-.445-.906 1.976.97.445zm.421-1.665h.315v-1.067h-.315v1.067zm-.168-.308.917 1.968.967-.45-.917-1.968-.967.451zm-.1 1.542h.855v-1.067h-.855v1.067zm1.342-.752-.362-.804-.972.438.362.804.972-.438zm-.361-.8a.913.913 0 0 1-.042-.117l-1.026.291c.025.087.055.172.092.255l.976-.429zm-1.06-.142c-.026.077-.017.056-.033.1l1.008.35.02-.062.015-.047-1.011-.341zm-.026.081-.033.083.993.39.033-.083-.993-.39zm-.023.06-.359.802.974.435.359-.802-.974-.435z" />
      <path fill="#afb1b8" style="fill:var(--color4, #afb1b8);stroke:var(--color5, #000)" stroke="#000"
        stroke-width=".533"
        d="m34.612 18.6-.007.004V18.6h.007zm0 0v-.491h-.007v.479l.007.011zm-1.589-.341a.765.765 0 0 1-.057-.105.924.924 0 0 1 0-.659l.057.764zm0 0a.668.668 0 0 1-.07-.1v-.001a.705.705 0 0 1-.084-.344v-.007a.765.765 0 0 1 .06-.303l.095.755zm1.385-1.144zm0 0 .005.01m-.005-.01.005.01m0 0zm0 0V17.134l.001.081-.002-.133v.043zm-.448.87zm0 0zm.38.115v.331l-.007.003v-.334h.007zm-.436-.115v.003-.003z" />
      <path fill="#afb1b8" style="fill:var(--color4, #afb1b8)"
        d="M36.659 18.567h.989v.225h-1.292v-1.976h.31l-.007 1.75z" />
      <path style="fill:var(--color5, #000)"
        d="m36.659 18.567-.533-.002-.002.536h.536v-.533zm.99 0h.533v-.533h-.533v.533zm0 .225v.533h.533v-.533h-.533zm-1.292 0h-.533v.533h.533v-.533zm0-1.975v-.533h-.533v.533h.533zm.31 0 .533.002.002-.536h-.536v.533zm-.008 2.284h.989v-1.067h-.989v1.067zm.456-.534v.225h1.067v-.225h-1.067zm.534-.308h-1.292v1.067h1.292v-1.067zm-.759.533v-1.976h-1.067v1.976h1.067zm-.533-1.442h.31v-1.067h-.31v1.067zm-.224-.535-.007 1.75 1.067.004.007-1.75-1.067-.004z" />
      <path fill="#afb1b8" style="fill:var(--color4, #afb1b8)" d="M38.678 18.792h-.31v-1.976h.31v1.976z" />
      <path style="fill:var(--color5, #000)"
        d="M38.678 18.792v.533h.533v-.533h-.533zm-.31 0h-.533v.533h.533v-.533zm0-1.975v-.533h-.533v.533h.533zm.31 0h.533v-.533h-.533v.533zm0 1.442h-.31v1.067h.31v-1.067zm.223.533v-1.976h-1.067v1.976h1.067zm-.533-1.442h.31v-1.067h-.31v1.067zm-.224-.533v1.976h1.067v-1.976h-1.067z" />
      <path fill="#afb1b8" style="fill:var(--color4, #afb1b8);stroke:var(--color5, #000)" stroke="#000"
        stroke-width=".533" d="M41.205 17.076z" />
      <path fill="#afb1b8" style="fill:var(--color4, #afb1b8)"
        d="M43.753 16.817v.217h-1.098v.652h.89v.21h-.89v.674h1.098v.217h-1.417v-1.971h1.417z" />
      <path style="fill:var(--color5, #000)"
        d="M43.753 16.817h.533v-.533h-.533v.533zm0 .217v.533h.533v-.533h-.533zm-1.098 0v-.533h-.533v.533h.533zm0 .653h-.533v.533h.533v-.533zm.889 0h.533v-.533h-.533v.533zm0 .209v.533h.533v-.533h-.533zm-.889 0v-.533h-.533v.533h.533zm0 .674h-.533v.533h.533v-.533zm1.098 0h.533v-.533h-.533v.533zm0 .218v.533h.533v-.533h-.533zm-1.417 0h-.533v.533h.533v-.533zm0-1.971v-.533h-.533v.533h.533zm.883 0v.217h1.067v-.217h-1.067zm.534-.316h-1.098v1.067h1.098v-1.067zm-1.632.533v.652h1.067v-.652h-1.067zm.534 1.186h.89v-1.067h-.89v1.067zm.356-.533v.21h1.067v-.21h-1.067zm.533-.324h-.89v1.067h.89v-1.067zm-1.423.533v.674h1.067v-.674h-1.067zm.534 1.208h1.098v-1.067h-1.098v1.067zm.564-.534v.217h1.067v-.217h-1.067zm.534-.315h-1.417v1.067h1.417v-1.067zm-.884.533v-1.971h-1.067v1.971h1.067zm-.533-1.438h1.417v-1.067h-1.417v1.067z" />
      <path fill="#afb1b8" style="fill:var(--color4, #afb1b8);stroke:var(--color5, #000)" stroke="#000"
        stroke-width=".533"
        d="m11.35 4.357-.33-.081v12.368l14.291 3.502V7.779L11.35 4.357zm14.308 16.118L10.671 16.8V3.949l14.987 3.676v12.85z" />
      <path fill="#afb1b8" style="fill:var(--color4, #afb1b8);stroke:var(--color5, #000)" stroke="#000"
        stroke-width=".533"
        d="M18.455 13.844v12.852L3.466 23.018v-12.85l14.989 3.676zM10.725 4.206l-.134-.033-6.272 5.413 14.215 3.488 6.27-5.414-14.08-3.453zm-.251-.305 14.885 3.651-6.707 5.792L3.766 9.693l6.709-5.792zM19.862 19.604l5.497 1.349-5.497 4.747v-6.096z" />
    </symbol>
    <symbol id="icon-smartphone" viewBox="0 0 20 32">
      <path fill="#757575" style="fill:var(--color3, #757575)"
        d="M17 0H3C1.346 0 0 1.346 0 3v26c0 1.654 1.346 3 3 3h14c1.654 0 3-1.346 3-3V3c0-1.654-1.346-3-3-3zM3 2h14a1 1 0 0 1 1 1v21H2V3a1 1 0 0 1 1-1zm14 28H3a1 1 0 0 1-1-1v-3h16v3a1 1 0 0 1-1 1z" />
      <path fill="#757575" style="fill:var(--color3, #757575)"
        d="M4.707 27.478c.391.365.391.956 0 1.321s-1.024.365-1.414 0c-.391-.365-.391-.956 0-1.321s1.024-.365 1.414 0z" />
    </symbol>
    <symbol id="icon-twitter" viewBox="0 0 32 32">
      <path fill="#afb1b8" style="fill:var(--color4, #afb1b8)"
        d="M32 6.078c-1.19.522-2.458.868-3.78 1.036a6.523 6.523 0 0 0 2.886-3.626 13.11 13.11 0 0 1-4.16 1.588A6.574 6.574 0 0 0 22.154 3c-3.632 0-6.556 2.948-6.556 6.562 0 .52.044 1.02.152 1.496-5.454-.266-10.28-2.88-13.522-6.862a6.605 6.605 0 0 0-.898 3.316 6.57 6.57 0 0 0 2.914 5.452 6.479 6.479 0 0 1-2.964-.808v.072c0 3.188 2.274 5.836 5.256 6.446a6.548 6.548 0 0 1-1.72.216 5.8 5.8 0 0 1-1.242-.112c.85 2.598 3.262 4.508 6.13 4.57a13.182 13.182 0 0 1-8.134 2.798c-.538 0-1.054-.024-1.57-.09A18.469 18.469 0 0 0 10.064 29c12.072 0 18.672-10 18.672-18.668 0-.29-.01-.57-.024-.848A13.087 13.087 0 0 0 32 6.078z" />
    </symbol>
  </defs>
</svg>